<svg width="24" height="24" viewBox="0 0 24 24" fill="none" xmlns="http://www.w3.org/2000/svg">
<g clip-path="url(#clip0_2353_1549)">
<path d="M8.5 1H16.5C17.88 1 19 2.12 19 3.5V20.5C19 21.88 17.88 23 16.5 23H8.5C7.12 23 6 21.88 6 20.5V3.5C6 2.12 7.12 1 8.5 1ZM12.5 22C13.33 22 14 21.33 14 20.5C14 19.67 13.33 19 12.5 19C11.67 19 11 19.67 11 20.5C11 21.33 11.67 22 12.5 22ZM8 18H17V4H8V18Z" fill="currentColor"/>
</g>
<defs>
<clipPath id="clip0_2353_1549">
<rect width="24" height="24" fill="white" transform="matrix(-1 0 0 1 24 0)"/>
</clipPath>
</defs>
</svg>
