<svg width="24" height="24" viewBox="0 0 24 24" fill="none" xmlns="http://www.w3.org/2000/svg">
<path d="M0.35 12C0.35 5.5765 5.5765 0.35 12 0.35C18.4235 0.35 23.65 5.5765 23.65 12C23.65 18.4235 18.4235 23.65 12 23.65C5.5765 23.65 0.35 18.4235 0.35 12ZM2.05 12C2.05 17.4865 6.5135 21.95 12 21.95C17.4865 21.95 21.95 17.4865 21.95 12C21.95 6.5135 17.4865 2.05 12 2.05C6.5135 2.05 2.05 6.5135 2.05 12Z" fill="#868886" stroke="white" stroke-width="0.7"/>
<path d="M12.85 11.503V11.6479L12.9526 11.7504L15.9535 14.7514L14.7516 15.9532L11.15 12.3516V6.34976H12.85V11.503Z" fill="#868886" stroke="white" stroke-width="0.7"/>
</svg>
