<svg width="64" height="17" viewBox="0 0 64 17" fill="none" xmlns="http://www.w3.org/2000/svg">
<path opacity="0.24" d="M53.6564 13.5982C52.5742 13.5982 51.537 13.8114 50.5768 14.2035C49.8392 11.0802 47.2817 8.77541 44.239 8.77541C42.3247 8.77541 40.6013 9.68845 39.4031 11.1429C38.4767 10.5274 37.4016 10.1581 36.2527 10.1182C35.8054 4.59664 31.6301 0.269684 26.5449 0.269684C22.4486 0.269684 18.9432 3.07719 17.5009 7.05421C16.8392 6.76468 16.117 6.6051 15.363 6.6051C12.2207 6.6051 9.65811 9.36472 9.5309 12.822C8.9359 12.5039 8.26807 12.3261 7.5633 12.3261C5.17406 12.3261 3.94506 14.0462 0.73616 16.9757H10.686H12.0946H18.3533H20.0389H29.5035H34.7374H37.7391H42.5863H46.9401H50.7399H63.2637C60.1307 15.7036 56.3329 13.5982 53.6564 13.5982Z" fill="white"/>
</svg>
