<svg width="24" height="24" viewBox="0 0 24 24" fill="none" xmlns="http://www.w3.org/2000/svg">
<g clip-path="url(#clip0_1647_26264)">
<rect width="24" height="24" fill="white"/>
<mask id="path-1-inside-1_1647_26264" fill="white">
<path d="M10.6636 1.56967C8.81462 1.8095 7.06282 2.53719 5.58812 3.67798C4.11341 4.81878 2.96894 6.33156 2.27227 8.06096C1.5756 9.79036 1.35184 11.674 1.62396 13.5185C1.89608 15.363 2.65427 17.1018 3.82068 18.5564C4.98708 20.0109 6.51964 21.1287 8.26096 21.7951C10.0023 22.4614 11.8896 22.6522 13.729 22.3479C15.5685 22.0436 17.2938 21.2551 18.7277 20.0634C20.1616 18.8718 21.2525 17.3199 21.8883 15.5672L12.0147 11.9856L10.6636 1.56967Z"/>
</mask>
<path d="M10.6636 1.56967C8.81462 1.8095 7.06282 2.53719 5.58812 3.67798C4.11341 4.81878 2.96894 6.33156 2.27227 8.06096C1.5756 9.79036 1.35184 11.674 1.62396 13.5185C1.89608 15.363 2.65427 17.1018 3.82068 18.5564C4.98708 20.0109 6.51964 21.1287 8.26096 21.7951C10.0023 22.4614 11.8896 22.6522 13.729 22.3479C15.5685 22.0436 17.2938 21.2551 18.7277 20.0634C20.1616 18.8718 21.2525 17.3199 21.8883 15.5672L12.0147 11.9856L10.6636 1.56967Z" stroke="#C4D4C8" stroke-width="2" mask="url(#path-1-inside-1_1647_26264)"/>
<path d="M21.7955 13.9206C22.3176 12.4967 22.4638 10.9622 22.22 9.46533C21.9762 7.96844 21.3506 6.5597 20.4035 5.37512C19.4565 4.19054 18.22 3.27013 16.8135 2.70277C15.407 2.13541 13.878 1.94026 12.3741 2.13617L13.5135 10.8835L21.7955 13.9206Z" fill="#C4D4C8"/>
</g>
<defs>
<clipPath id="clip0_1647_26264">
<rect width="24" height="24" fill="white"/>
</clipPath>
</defs>
</svg>
