<svg width="48" height="48" viewBox="0 0 48 48" fill="none" xmlns="http://www.w3.org/2000/svg">
<rect x="0.5" y="0.5" width="47" height="47" rx="23.5" fill="#EC7B29" stroke="#EC7B29"/>
<path d="M8.99753 8.95513C8.47949 7.95589 8.57423 6.48875 9.5 6.07284C9.86879 5.9072 10.4232 6.07752 10.4405 6.07261C10.4576 6.06792 11.0902 6.26125 11.8464 6.50236C15.7024 7.73198 18 11.6823 17.5 16.0728C17.5 16.0728 21.8478 19.0728 24.1358 18.5948C25.5 18.5948 41.5151 14.8063 44 13.9663C44 13.9663 45.8942 16.8904 46.5 19C47.1606 21.3005 47 25.1084 47 25.1084C46.8464 25.0555 32.4381 28.9017 31.529 29.0488C28.8622 29.4806 28.9029 29.4616 28.9029 30.2742C28.9029 31.5329 28.0786 34.3819 27.235 36.0386C26.3778 37.7225 24.3597 40.1369 23.2053 40.8602C22.0611 41.577 21.2244 41.6536 20.189 41.1364C19.0629 40.5736 18.52 39.6824 18.5219 38.3998C18.5234 37.3296 18.7962 36.8362 20.2303 35.3088C20.749 34.7563 21.4768 33.6512 21.8478 32.8531C22.4638 31.5271 22.522 31.2096 22.522 29.1696C22.522 27.2256 22.4491 26.7784 21.9574 25.7093C20.7745 23.1365 18.5481 21.3623 15.7608 20.7716C12.2524 20.028 8.1825 22.0912 6.53364 25.4495L5.97493 26.8057C4.5 29.5725 1.66556 27.3254 2.47864 25.1084C2.82666 23.7604 4.37127 21.186 5.52719 20.0271C7.02507 18.5256 6.65001 18.3564 4.7604 19.6813C3.27527 20.7225 2.58246 20.7931 1.66556 19.9968C1.12329 19.5259 1 19.2507 1 18.5113C1 17.7364 1.12848 17.4817 1.87948 16.766C2.62529 16.0554 5.21701 14.5601 6.73199 13.9663C7.05082 13.8413 6.85896 13.7609 6.00305 13.6609C4.6728 13.5055 3.81192 12.7279 3.81192 11.6823C3.81192 10.2883 4.70698 9.76684 7.5375 9.51168C9.06502 9.37416 9.19004 9.32639 8.99753 8.95513Z" fill="white"/>
<path d="M5.9751 25.8056L6.5338 24.4494C8.18267 21.0912 12.9916 19.7563 16.5 20.4999C19.2873 21.0906 21.317 22.4269 22.5 24.9998C22.9917 26.0689 23.2055 26.5558 23.2055 28.4998C23.2055 30.5398 23.116 31.1737 22.5 32.4998C22.129 33.2979 21.5187 34.486 21 35.0385C19.5659 36.566 19.0015 36.9295 19 37.9998C18.9981 39.2823 19.0631 39.5735 20.1891 40.1363C21.2246 40.6536 22.0612 40.577 23.2055 39.8602C24.3599 39.1368 26.1428 36.7225 27 35.0385C27.8436 33.3819 28.5 30.7584 28.5 29.4998C28.5 28.6871 28.8624 28.4805 31.5292 28.0488C32.4383 27.9017 46.8466 24.0554 47.0002 24.1083" stroke="white"/>
<path d="M47 25.1084C46.8464 25.0554 32.4381 28.9017 31.529 29.0488C28.8622 29.4806 28.9029 29.4616 28.9029 30.2742C28.9029 31.5329 28.0786 34.3819 27.235 36.0386C26.3778 37.7225 24.3597 40.1369 23.2053 40.8602C22.0611 41.577 21.2244 41.6536 20.189 41.1363C19.0629 40.5736 18.52 39.6824 18.5219 38.3998C18.5234 37.3296 18.7962 36.8362 20.2303 35.3088C20.749 34.7563 21.4768 33.6512 21.8478 32.8531C22.4638 31.5271 22.522 31.2096 22.522 29.1696C22.522 27.2256 22.4491 26.7784 21.9574 25.7093C20.7745 23.1364 18.5481 21.3623 15.7608 20.7716C12.2524 20.028 8.1825 22.0912 6.53364 25.4495L5.97493 26.8057C4.5 29.5725 1.66556 27.3254 2.47864 25.1084C2.82666 23.7604 4.37127 21.186 5.52719 20.0271C7.02507 18.5256 6.65001 18.3564 4.7604 19.6813C3.27527 20.7225 2.58246 20.7931 1.66556 19.9967C1.12329 19.5259 1 19.2507 1 18.5113C1 17.7364 1.12848 17.4817 1.87948 16.766C2.62529 16.0554 5.21701 14.5601 6.73199 13.9663C7.05082 13.8413 6.85896 13.7609 6.00305 13.6609C4.6728 13.5055 3.81192 12.7279 3.81192 11.6823C3.81192 10.2883 4.70698 9.76684 7.5375 9.51167C9.06502 9.37415 9.19004 9.32638 8.99753 8.95512C8.47949 7.95589 8.57423 6.48874 9.5 6.07284C9.86879 5.90719 10.4232 6.07752 10.4405 6.0726C10.4576 6.06792 11.0902 6.26124 11.8464 6.50235C15.7024 7.73197 18 11.6823 17.5 16.0728C17.5 16.0728 21.8478 19.0728 24.1358 18.5948C25.5 18.5948 41.5151 14.8063 44 13.9663" stroke="#EC7B29"/>
<path d="M6.5 19.0726C7.16667 18.2393 14.5 14.0726 22.5 18.5728M6.5 14.0726C7.5 13.7393 13.5 12.0728 17 16.6732C16.5 10.5728 10 9.07275 9 9.07275" stroke="#EC7B29" stroke-linecap="round" stroke-linejoin="round"/>
<path d="M16.0466 28.919L16.0486 28.9205C18.8366 31.0379 19.4641 35.6344 17.1534 39.6409C14.8361 43.6469 10.5437 45.3989 7.3144 44.0456C6.55731 43.726 5.86718 43.3925 5.09673 42.9633L9.5487 35.2542L14.0012 27.5443C14.7605 27.9955 15.3995 28.4224 16.0466 28.919Z" fill="white" stroke="#EC7B29"/>
<path d="M3.97105 31.7517L3.97076 31.7522C1.53406 35.9688 2.36363 40.7601 5.49155 42.5668C8.61939 44.3734 13.1839 42.6972 15.6207 38.4804C18.0574 34.2638 17.2279 29.4726 14.1001 27.6658L3.97105 31.7517ZM3.97105 31.7517C6.40064 27.536 10.9648 25.8588 14.1 27.6658L3.97105 31.7517Z" fill="white" stroke="#EC7B29"/>
<path d="M13.5699 27.2861C16.9028 29.2127 17.807 34.22 15.3009 38.5696C12.7885 42.9182 8.00231 44.6369 4.66253 42.7163C1.33018 40.7895 0.426166 35.7826 2.932 31.4333C5.44495 27.0835 10.2379 25.36 13.5699 27.2861Z" fill="white" stroke="#EC7B29"/>
<path d="M12.3214 28.9494L12.3222 28.9498C14.7224 30.3316 15.3683 34.099 13.4146 37.4837C11.4611 40.868 7.87907 42.1913 5.47803 40.8031L5.47723 40.8026C3.07701 39.4209 2.43107 35.6534 4.38479 32.2687C6.33827 28.8844 9.92034 27.5612 12.3214 28.9494Z" fill="white" stroke="#EC7B29"/>
<path opacity="0.5" d="M5.00418 33.161L5.00389 33.1615C3.82935 35.2005 3.51051 37.4987 4.03424 39.3933C2.90875 37.593 2.90164 34.8189 4.37691 32.2629C6.32998 28.8861 9.91189 27.5617 12.3135 28.9434C12.4343 29.0136 12.5506 29.0896 12.6623 29.171C9.93755 28.452 6.74123 30.1534 5.00418 33.161Z" fill="white" stroke="#EC7B29"/>
<path d="M4.4217 32.2909C3.95316 33.0998 3.61318 33.9488 3.40128 34.7998C3.57961 33.9605 3.9032 33.103 4.38472 32.2688C4.87185 31.4266 5.46031 30.712 6.10651 30.1353C5.46753 30.748 4.8946 31.4729 4.4217 32.2909Z" fill="white" stroke="#EC7B29"/>
</svg>
