<svg width="187" height="568" viewBox="0 0 187 568" fill="none" xmlns="http://www.w3.org/2000/svg">
<path d="M138.115 495.068C134.874 500.985 129.258 498.95 124.189 499.591C102.029 502.417 81.5837 509.107 66.8667 527.423C56.9549 524.615 60.1394 515.325 57.6521 508.862C56.0696 506.731 54.0197 504.99 51.6598 503.774C41.8421 499.233 36.8485 490.584 32.9102 481.162C25.1842 462.751 15.9508 444.812 14.0664 424.461C20.3979 410.686 30.8562 400.378 42.2001 390.787C43.4815 390.957 44.9136 391.39 45.2528 392.671C49.0216 406.597 54.8632 420.127 53.6949 435.051C47.1184 447.884 47.1184 447.884 62.9472 462.582C63.6549 462.854 64.4245 462.924 65.1699 462.785C65.9153 462.645 66.6072 462.301 67.1681 461.79C68.3176 461.206 69.8816 460.584 70.6919 461.508C78.9643 471.137 91.0244 477.204 96.734 489.208C98.6184 489.924 99.8432 493.184 102.387 490.282C101.765 487.022 99.4099 484.987 97.2617 482.745C86.1439 469.968 73.0663 458.625 67.1117 442.004C65.7738 439.743 64.059 437.764 62.7588 435.484C60.3091 428.738 53.2427 422.784 58.99 414.568C62.7588 408.67 59.9134 405.674 54.2791 403.902C49.2855 396.685 52.2628 388.149 50.3031 380.423C49.9639 375.919 53.0353 372.885 55.2589 369.625C64.8127 355.323 73.8766 340.813 79.492 324.4C82.2374 317.099 83.4683 309.316 83.11 301.524C83.4115 295.626 83.1101 289.841 79.5109 284.791C80.7357 279.722 79.9443 274.483 80.8676 269.377C83.918 265.764 85.4986 261.136 85.2958 256.412C85.4073 255.13 85.7998 253.888 86.4454 252.775C87.8775 250.891 90.0257 251.136 92.0985 250.891C94.1713 250.646 95.8672 249.289 97.9212 249.779C99.9752 250.269 101.388 251.173 103.574 251.663C102.708 246.481 102.896 241.657 107.946 238.586C111.357 237.964 110.603 241.431 112.016 242.769C111.489 263.271 106.57 283.038 101.935 302.862C101.238 305.783 99.033 308.76 102.519 311.36C102.621 311.93 102.602 312.515 102.463 313.077C102.324 313.638 102.069 314.165 101.714 314.621C101.358 315.078 100.911 315.455 100.4 315.728C99.8897 316 99.3275 316.162 98.7503 316.203C89.3284 331.278 86.9165 348.426 83.5811 365.329C81.5271 367.006 82.0359 369.833 80.6603 371.83C78.7425 373.65 77.5894 376.131 77.4354 378.77C77.2814 381.409 78.138 384.008 79.8312 386.038C81.5166 388.89 82.7857 391.967 83.6 395.178C85.9366 423.99 91.5709 451.502 113.957 472.437C116.501 485.175 124.189 491.903 137.229 492.581C138.115 492.769 138.416 494.032 138.115 495.068Z" fill="#AEE959"/>
<path d="M-4.94769 231.198C-10.8081 223.133 -15.8206 227.43 -21.3795 232.442C-24.9975 225.508 -22.4348 220.514 -16.3105 217.122C-10.8458 214.107 -5.00428 211.978 0.648853 209.208C6.8673 206.098 10.6738 201.67 7.50801 193.096C4.37995 200.634 -0.689053 201.859 -7.83084 199.88C-20.5315 196.375 -22.1333 197.148 -32.0074 206.212C-34.6456 201.011 -31.6305 197.675 -27.9371 195.339C-19.7966 190.194 -18.4021 182.713 -19.5327 174.083C-19.7797 171.276 -20.2397 168.491 -20.9084 165.754C-26.8442 145.572 -19.0241 131.025 -2.44155 119.982C12.9399 109.76 29.1522 100.847 46.0247 93.3373C49.5862 97.6149 46.8727 102.062 46.4204 106.528C43.1416 130.196 43.1793 154.033 43.1039 177.87C43.1039 190.628 43.6692 203.441 42.9154 216.161C41.7471 235.721 34.5488 251.87 14.9513 259.86C7.62605 261.155 0.0822449 259.619 -6.15372 255.563C-6.42756 255.332 -6.64755 255.043 -6.79848 254.718C-6.94941 254.392 -7.0277 254.038 -7.0277 253.679C-7.0277 253.32 -6.94941 252.966 -6.79848 252.64C-6.64755 252.315 -6.42756 252.026 -6.15372 251.795C-3.70403 249.91 -0.368721 249.571 2.40131 246.518C0.89381 244.954 -1.59348 243.729 -2.4603 241.336C-4.26447 238.274 -5.1294 234.748 -4.94769 231.198Z" fill="#0D5523"/>
<path d="M24.9213 524.013C18.3825 520.602 12.9554 524.559 7.33999 526.802C-4.23008 531.437 -13.5012 540.444 -25.6177 544.025C-27.1281 543.642 -28.4826 542.8 -29.495 541.616C-30.5073 540.431 -31.1278 538.962 -31.2709 537.411C-33.9278 522.486 -37.6589 507.713 -38.2807 492.468C-36.8486 486.061 -32.1754 481.614 -27.9544 477.28C-18.1953 467.304 -9.45846 456.377 -1.87452 444.662C-0.852188 442.722 0.74802 441.148 2.7045 440.158C3.86604 440.081 5.01739 440.417 5.95523 441.107C6.89307 441.796 7.55702 442.795 7.82995 443.927C7.35886 449.787 10.1289 454.686 12.5786 459.699C15.8197 475.98 22.8107 491.055 27.9551 506.714C29.6699 511.971 32.798 516.909 32.0254 522.807C30.1787 526.067 27.3709 524.031 24.9213 524.013Z" fill="#AEE95A"/>
<path d="M3.13654 440.949C-7.35944 460.037 -23.2447 474.867 -36.9818 491.356C-39.0358 497.876 -45.0281 501.155 -49.0419 506.073C-54.695 510.426 -57.4651 517.831 -64.7388 520.319C-68.1495 528.704 -71.4283 537.127 -74.9898 545.456C-77.8163 552.014 -91.9491 559.815 -98.9213 559.043C-101.955 558.722 -102.087 556.518 -102.426 554.388C-103.576 547.02 -102.916 540.538 -97.3385 534.414C-88.2558 524.445 -76.3276 517.454 -68.4132 506.374C-65.7939 493.937 -56.5039 484.949 -51.4538 473.737C-46.6863 465.804 -42.8612 457.38 -38.4894 449.24C-31.7273 436.982 -23.3904 425.661 -13.6909 415.566C-11.2601 412.928 -8.96111 408.537 -3.87329 411.138C-2.13966 416.339 -4.13717 421.238 -5.11704 426.213C-7.54789 428.286 -9.54531 430.528 -7.81168 434.033C-7.58279 434.618 -7.16658 435.111 -6.62797 435.435C-6.08936 435.759 -5.45863 435.895 -4.83434 435.823C-0.349525 435.201 -2.70508 430.434 -0.443825 428.418C2.91037 426.42 6.35878 424.969 10.2783 426.91C12.8599 434.108 7.9417 437.5 3.13654 440.949Z" fill="#4CB427"/>
<path d="M3.13635 440.949C4.85114 436.05 9.71282 432.809 10.3158 427.344C10.2028 423.575 12.822 423.255 15.6109 423.161C19.9073 447.978 30.3279 470.553 41.3892 492.883C43.82 497.782 49.982 498.932 53.6565 502.757C44.2346 510.389 44.6115 514.063 55.3901 520.338C58.8197 516.419 55.0698 510.332 59.2532 506.733C62.9277 513.215 59.4604 522.336 66.7907 527.461C64.9063 530.721 63.3045 534.094 61.2693 537.222C51.2256 552.599 42.746 552.41 33.2864 536.713C33.9082 532.153 29.8192 528.441 30.9686 523.787C26.3896 510.276 22.3005 496.557 17.0431 483.31C13.9727 475.55 11.7426 467.482 10.3912 459.247C11.4276 453.914 12.5582 448.562 6.75432 444.963L3.13635 440.949Z" fill="#A0D749"/>
<path d="M44.1799 105.642C44.8206 101.534 45.4425 97.4447 46.0643 93.3368C54.2237 66.5975 66.4155 41.2903 74.0095 14.3626C74.6028 14.7653 75.0429 15.3566 75.2584 16.0406C75.4738 16.7245 75.452 17.4612 75.1967 18.1313C74.8764 16.7746 76.1012 13.9668 74.4618 11.2722C75.2532 4.78993 76.0636 -1.56042 85.3912 0.342799C88.9904 1.05886 94.455 1.77492 94.7188 4.5638C95.1522 9.38781 94.4174 16.718 91.2705 19.0735C76.6666 30.0406 76.365 46.51 73.0485 61.7358C71.7483 67.747 72.6528 74.2292 72.5398 80.5796C74.7068 85.479 72.2947 90.0015 71.5221 94.7501C71.296 97.1969 70.8802 99.6225 70.2785 102.005C69.0348 105.227 69.016 109.26 64.6254 110.466C57.7286 109.505 50.0215 111.634 44.1799 105.642Z" fill="#4CB428"/>
<path d="M136.814 109.261C147.612 92.1696 161.179 76.567 165.834 56.1215C166.512 53.1441 168.792 49.9595 166.87 47.0953C161.707 39.4259 168.283 34.1496 170.827 28.5342C172.994 23.7855 177.159 28.5342 180.249 29.4387C184.922 30.9273 188.314 33.2074 186.505 39.6708C184.187 47.9244 178.063 53.9544 175.689 62.2834C168.377 88.137 160.614 113.915 148.158 137.96C141.261 138.073 137.266 133.701 133.761 128.538C135.335 122.213 136.356 115.763 136.814 109.261Z" fill="#4CB428"/>
<path d="M108.529 239.226C104.761 244.013 101.651 248.874 109.283 254.471C103.102 255.074 99.7105 253.491 96.8274 250.514C94.6227 248.629 94.6227 248.629 93.0586 254.188L87.5562 251.984C85.05 251.588 84.1455 249.534 83.0149 247.687C81.2164 245.671 80.1711 243.094 80.0564 240.395C80.6594 234.647 85.05 232.122 89.4783 229.861C97.468 225.734 102.669 219.798 102.933 210.471C103.705 200.729 105.382 191.363 113.203 184.391C115.445 182.394 116.971 179.19 120.74 180.113C125.489 187.406 132.046 193.493 135.815 201.482C142.448 215.502 138.981 227.864 126.393 234.836L130.482 224.038C130.181 223.53 130.019 222.952 130.011 222.361C130.02 221.273 130.264 220.199 130.727 219.214C129.804 219.93 129.898 221.344 128.843 221.984C126.356 229.258 118.705 229.88 113.655 233.837C112.373 236.004 111.224 238.36 108.529 239.226Z" fill="#0E5523"/>
<path d="M69.0717 94.2237C70.24 89.6258 71.4021 85.0342 72.5578 80.4489C90.7232 66.203 107.343 73.194 123.662 84.2177C126.508 91.416 121.778 92.5466 116.615 92.3582C109.831 92.1132 103.424 89.8142 97.1301 87.4022C108.606 91.171 119.743 96.8241 132.462 94.2991C135.797 98.8781 134.139 104.23 134.723 109.223C134.723 113.539 131.256 112.992 128.75 113.425C126.244 113.859 122.833 113.086 120.383 114.255C113.185 117.665 108.926 114.858 104.686 108.96C100.07 102.534 92.8337 100.084 85.1643 98.8027C79.6619 97.8229 73.8203 97.8794 69.0717 94.2237Z" fill="#0F5523"/>
<path d="M120.798 180.113C111.829 188.009 104.423 196.733 105.195 209.754C101.257 207.437 101.841 203.423 101.766 199.843C101.578 192.135 101.389 184.409 101.954 176.721C102.727 172.481 104.63 168.392 103.65 163.889C104.8 159.253 108.116 155.823 110.472 151.847C112.563 148.814 114.617 145.742 116.577 142.614C118.33 140.315 119.309 137.545 121.024 135.227C125.226 132.683 128.373 128.123 134.045 128.425L148.046 138.016C140.528 152.959 128.92 165.434 120.798 180.113Z" fill="#BD6F21"/>
<path d="M134.082 128.462L122.361 135.867C121.533 135.914 120.702 135.914 119.874 135.867C116.589 135.246 113.601 133.557 111.375 131.062C110.772 130.535 110.169 129.988 109.491 129.498C96.8465 131.383 85.1822 129.875 75.7415 120.189C74.5453 118.921 73.4843 117.532 72.5756 116.044C71.0105 113.955 69.7422 111.659 68.8069 109.222C69.0142 106.697 66.9226 104.285 68.3924 101.685C68.5997 99.1975 68.7881 96.7101 68.9954 94.1473C80.3017 95.6737 93.4923 93.5255 101.407 102.495C109.321 111.465 117.292 113.669 128.052 111.013C130.294 110.466 133.045 111.898 134.647 109.128L136.739 109.241C141.619 116.458 138.51 122.526 134.082 128.462Z" fill="#DBFEA2"/>
<path d="M121.456 567.147C116.198 565.959 111.94 562.737 107.606 559.854C97.5808 553.165 97.0344 548.887 104.214 538.466C104.817 538.203 105.608 537.92 105.966 538.24C114.427 546.098 121.418 554.766 121.456 567.147Z" fill="#3D9A1B"/>
<path d="M121.533 444.528C121.288 446.507 122.871 450.822 118.273 447.864C114.499 445.215 110.945 442.266 107.645 439.045C99.09 431.376 98.8639 427.607 106.194 417.978C106.54 417.686 106.966 417.505 107.416 417.458C107.866 417.411 108.32 417.5 108.719 417.714C116.445 425.006 117.896 435.295 121.533 444.528Z" fill="#3D9A1A"/>
<path d="M138.115 495.068C137.357 494.537 136.517 494.136 135.627 493.88C116.068 491.826 115.842 491.619 114.07 472.568L117.651 472.719C127.336 476.959 134.158 484.892 141.884 491.657L143.203 494.804L138.115 495.068Z" fill="#3B9A17"/>
<path d="M132.462 94.2236C130.766 95.4673 129.956 97.9924 127.28 97.7851C113.807 96.5037 101.275 92.7727 90.8359 83.2943C98.5242 85.5178 106.137 88.0052 113.901 89.8519C118.499 90.9448 123.756 91.7363 123.662 84.1988C125.768 85.1318 127.646 86.5117 129.165 88.2427C130.685 89.9738 131.81 92.0146 132.462 94.2236Z" fill="#45784D"/>
<path d="M121.457 567.146C117.887 556.435 112.001 546.642 104.215 538.466C115.314 534.81 121.174 537.806 122.512 548.585C122.959 554.756 123.028 560.948 122.72 567.127C122.72 567.278 122.399 567.598 122.267 567.56C121.978 567.464 121.704 567.324 121.457 567.146Z" fill="#51B62F"/>
<path d="M141.883 491.658C132.103 487.512 124.923 479.975 117.65 472.72C128.372 467.481 132.876 468.857 137.643 479.278C139.433 483.235 140.488 487.512 141.883 491.658Z" fill="#4EB42C"/>
<path d="M121.533 444.528C114.315 436.991 113.675 426.099 108.135 417.676C107.682 417.243 107.569 416.847 107.758 416.489C107.946 416.131 108.153 415.999 108.323 415.999C124.397 417.676 127.431 424.196 121.533 444.528Z" fill="#4CB328"/>
<path d="M179.948 452.01L181.097 454.46C178.16 455.142 175.111 455.194 172.152 454.613C169.193 454.031 166.391 452.83 163.93 451.087C159.464 448.053 159.615 443.248 162.668 438.763C171.261 439.498 174.784 446.791 179.948 452.01Z" fill="#419D1F"/>
<path d="M83.7135 395.31C81.4522 392.068 79.1155 388.865 76.9485 385.549C73.1798 379.726 73.3494 374.6 79.8317 370.737C80.467 370.315 81.2079 370.079 81.9704 370.055C82.733 370.032 83.4869 370.223 84.1468 370.605L84.0338 370.7C87.9156 378.501 86.1254 386.302 84.0338 394.085C84.097 394.299 84.1006 394.526 84.0441 394.742C83.9877 394.958 83.8734 395.154 83.7135 395.31Z" fill="#3E9B18"/>
<path d="M179.854 544.344C180.096 544.513 180.329 544.696 180.551 544.89C176.293 551.787 169.584 548.772 164.233 547.924C158.881 547.076 158.033 541.875 159.183 536.882C159.183 536.637 160.351 536.655 160.954 536.542C168.039 537.24 174.013 540.613 179.854 544.344Z" fill="#3C9B19"/>
<path d="M179.947 452.009C172.674 449.541 169.037 442.38 162.686 438.706C173.842 434.522 176.65 436.689 179.947 452.009Z" fill="#4EB22B"/>
<path d="M179.854 544.344C172.984 543.504 166.472 540.814 161.01 536.562C164.779 530.325 169.208 531.436 173.692 535.507C176.454 537.89 178.573 540.929 179.854 544.344Z" fill="#4FB42B"/>
<path d="M83.9949 394.159C84.4283 386.377 82.3178 378.576 83.9949 370.774C91.0047 372.791 92.6818 377.275 89.648 383.607C88.0274 387.15 85.9169 390.579 83.9949 394.159Z" fill="#4FB42D"/>
<path d="M123.247 295.965C131.764 300.845 132.066 303.935 125.131 315.807C121.136 313.414 121.476 308.967 120.081 305.311C119.717 303.999 119.558 302.639 119.61 301.278C119.584 300.124 119.921 298.99 120.574 298.036C121.226 297.083 122.161 296.359 123.247 295.965Z" fill="#50B52E"/>
<path d="M147.443 523.56C139.906 523.07 134.384 524.371 133.047 517.379C132.519 514.647 134.366 513.271 136.702 512.97C144.164 511.99 143.147 518.83 147.443 523.56Z" fill="#51B22E"/>
<path d="M121.456 301.316V305.085C122.963 312.622 122.963 312.622 119.458 314.506C115.087 309.249 108.925 304.237 117.122 297.264C121.192 295.889 119.779 300.242 121.456 301.316Z" fill="#3E9A1C"/>
<path d="M95.188 406.445C101.105 409.875 97.5811 414.51 96.149 419.221C93.8124 415.339 84.3717 415.792 89.7987 407.255C91.2873 404.975 93.247 405.729 95.188 406.445Z" fill="#3F9D19"/>
<path d="M169.791 500.873C164.251 500.345 159.163 501.627 157.203 495.653C156.657 494.051 156.6 491.884 159.389 491.508C166.154 490.603 167.322 495.559 169.791 500.873Z" fill="#469F28"/>
<path d="M151.757 457.625C153.377 459.868 153.735 461.677 150.099 461.583C146.123 461.469 141.826 461.583 140.564 456.495C140.017 454.252 140.394 452.048 143.258 451.708C144.782 451.683 146.304 451.815 147.8 452.104C148.492 454.322 149.879 456.258 151.757 457.625Z" fill="#5BAD3D"/>
<path d="M31.045 523.748C33.7773 527.705 37.0561 531.568 33.3628 536.675C30.5487 532.454 27.7348 528.233 24.9208 524.012C26.8617 521.373 29.0099 523.974 31.045 523.748Z" fill="#90BB3B"/>
<path d="M123.228 257.673C121.212 258.427 122.098 262.629 119.29 261.743C116.482 260.858 115.974 257.636 115.672 255.054C115.182 250.833 117.896 249.91 121.457 250.305C123.926 252.303 125.509 254.526 123.228 257.673Z" fill="#3D991E"/>
<path d="M96.395 359.204C98.7505 355.115 100.955 357.489 102.689 359.618C105.817 363.387 103.518 366.251 100.56 368.795C96.3008 366.873 97.0734 362.709 96.395 359.204Z" fill="#5FB841"/>
<path d="M91.1197 527.46C92.0619 529.948 91.9488 532.058 88.6135 530.72C84.8447 529.156 78.909 528.61 81.9805 521.751C87.6148 519.49 88.4062 525.03 91.1197 527.46Z" fill="#3C9819"/>
<path d="M98.7882 316.335L102.557 311.492C103.782 310.436 104.215 311.492 104.667 312.34C105.176 316.108 106.062 319.877 104.46 323.646C98.1852 324.532 101.106 318.426 98.7882 316.335Z" fill="#39961E"/>
<path d="M91.1186 527.46C86.596 527.912 86.2569 521.656 81.9794 521.807C88.5747 518.283 89.8183 519.056 91.1186 527.46Z" fill="#52B530"/>
<path d="M104.441 323.608C103.838 319.839 102.557 316.071 104.648 312.302C112.77 316.24 107.965 319.915 104.441 323.608Z" fill="#4FAE2A"/>
<path d="M119.535 314.525C123.756 312.113 119.29 307.873 121.532 305.103C124.227 308.194 123.605 312.377 125.131 315.863C121.57 322.76 120.929 317.031 119.535 314.525Z" fill="#409F1F"/>
<path d="M96.3944 359.204C100.314 361.296 98.1469 366.044 100.559 368.796C99.3717 369.681 98.26 372.451 96.7901 369.304C95.3203 366.157 91.6269 362.747 96.3944 359.204Z" fill="#379511"/>
<path d="M128.919 221.984L128.75 212.882C129.597 213.146 130.747 213.127 131.199 213.692C133.706 216.877 132.311 220.061 130.973 223.227C130.847 223.507 130.703 223.778 130.54 224.037L128.919 221.984Z" fill="#DBFEA2"/>
<path d="M108.53 239.227C108.983 238.021 109.678 236.92 110.572 235.993C111.467 235.066 112.542 234.333 113.731 233.838C113.166 236.871 112.582 239.886 112.017 242.901L108.53 239.227Z" fill="#A7E15B"/>
<path d="M151.757 457.625C148.121 457.456 145.746 456.363 147.8 452.104C150.759 452.764 151.286 455.176 151.757 457.625Z" fill="#5CB43E"/>
<path d="M74.4795 11.2169C77.551 14.1188 75.8174 17.4165 74.9505 20.6388C74.649 18.5283 74.3476 16.4178 74.0272 14.3261L74.4795 11.2169Z" fill="#3CB014"/>
<path d="M84.1464 370.606L79.8312 370.738C80.1138 368.288 79.9442 365.48 83.5999 365.461C83.7884 367.176 83.9768 368.891 84.1464 370.606Z" fill="#7ACA3E"/>
<path d="M95.1879 406.446L89.7986 407.256C90.1189 406.145 90.1566 404.336 90.835 404.034C92.9832 403.092 94.1892 404.788 95.1879 406.446Z" fill="#C0E2B4"/>
<path d="M121.457 301.317L117.198 297.284C118.763 294.816 120.967 295.4 123.247 295.965C122.682 297.755 122.06 299.526 121.457 301.317Z" fill="#409F1F"/>
<path d="M108.323 415.999C108.327 416.564 108.264 417.127 108.135 417.677L106.251 417.978C107.946 416.094 102.651 413.135 106.59 412.061C109.266 411.307 107.984 414.492 108.323 415.999Z" fill="#7BB55F"/>
<path d="M123.228 257.674C123.386 255.096 122.769 252.53 121.457 250.306C126.451 251.7 126.733 254.226 123.228 257.674Z" fill="#58B236"/>
<path d="M104.272 173.216L105.233 209.773C105.383 220.665 100.183 227.769 90.1577 231.915C86.2571 233.535 81.9607 235.439 81.81 240.847C81.0939 247.555 83.2421 254.037 83.0725 260.765C83.0725 263.817 83.977 266.927 82.0361 269.734C81.1504 274.445 86.7282 280.061 80.1517 283.98C73.6694 290.915 64.7563 290.726 56.8231 289.972C47.8024 289.261 39.0509 286.561 31.1962 282.069C23.3414 277.576 16.578 271.401 11.3908 263.987C10.5805 260.859 12.1257 259.069 14.8204 257.938C31.6667 249.496 39.3173 235.156 40.2783 217.028C40.9379 204.214 40.5233 191.344 40.5986 178.493C45.9596 170.496 52.5996 163.436 60.2527 157.595C66.5851 163.071 70.832 170.566 72.275 178.813C72.0112 181.96 70.1268 184.636 69.6368 187.726C68.5439 194.397 71.6531 199.767 77.1744 200.728C84.0523 201.934 89.3474 198.053 90.5911 190.986C91.1753 187.575 89.3474 184.184 90.5911 180.773C94.2845 176.891 97.2241 171.294 104.272 173.216Z" fill="#DBFEA2"/>
<path d="M15.6124 423.16L10.3173 427.343L-0.0278945 429.454C-1.47886 430.095 -0.0279131 426.59 -2.40223 427.946C-3.8532 428.813 -5.9448 429.416 -6.69855 426.703L-5.05915 410.384C-6.94353 403.355 -3.17485 397.551 -1.13973 391.352C2.4029 384.398 5.39906 377.219 8.28216 369.964C15.0848 354.889 21.3032 339.663 30.6497 325.964C32.6626 322.45 35.3075 319.339 38.451 316.787C51.246 310.569 64.625 305.801 77.891 300.77C80.5669 299.771 83.2427 299.168 85.7866 301.166C86.3896 324.569 74.6688 343.432 63.1741 362.332C59.4053 368.419 55.3539 374.279 51.4344 380.253C50.9207 382.724 49.8442 385.043 48.2886 387.03C46.7329 389.017 44.74 390.618 42.4648 391.71L15.6124 423.16Z" fill="#227465"/>
<path d="M85.7289 301.165C69.4479 305.085 54.7309 313.225 38.8645 318.294C36.0191 319.67 33.4752 318.709 30.9689 317.315C19.5643 303.511 9.27462 288.823 0.197021 273.39C2.45827 268.057 2.91054 260.633 11.9932 263.233C23.6387 274.257 35.6234 284.508 52.4132 286.957C61.9858 288.352 71.0119 286.58 80.0569 283.999C88.7627 287.504 84.3722 295.267 85.7289 301.165Z" fill="#4CB427"/>
<path d="M42.3887 391.709C44.7179 387.416 47.7497 383.544 51.3583 380.252C56.465 387.168 51.5655 395.855 55.4097 402.997C55.7267 403.238 55.9883 403.545 56.1768 403.896C56.3653 404.247 56.4764 404.634 56.5026 405.032C56.2692 406.186 56.3585 407.383 56.7607 408.49C57.163 409.597 57.8626 410.572 58.7828 411.307C59.8569 412.833 62.5515 413.587 61.0817 416.282C55.8431 418.92 59.4799 422.538 60.3467 425.534C61.5795 428.923 63.0466 432.223 64.7374 435.408C62.5138 437.462 59.9322 437.292 57.1998 436.614C55.7489 434.862 53.563 435.936 51.8106 435.276C50.89 420.361 47.7132 405.672 42.3887 391.709Z" fill="#9FD649"/>
<path d="M68.9395 440.667C74.4984 457.626 88.7443 468.424 98.8446 482.123C98.7812 483.255 98.4931 484.364 97.9967 485.383C97.0922 487.418 97.0921 489.868 95.2266 491.451C89.5735 478.92 77.2685 472.475 68.6381 462.676C68.5062 462.507 67.5451 463.072 66.9798 463.298C64.9824 455.572 64.3793 447.884 68.9395 440.667Z" fill="#9FD749"/>
<path d="M51.8862 435.276C53.1864 435.276 54.1663 432.902 55.655 434.786C62.646 442.814 63.8708 452.933 65.6233 462.826C65.9059 464.409 65.1522 465.841 62.9852 465.238C59.9325 462.619 56.7479 460.15 53.8648 457.361C44.669 448.392 44.4806 445.791 51.8862 435.276Z" fill="#3C9B17"/>
<path d="M59.2549 506.694V525.689C51.7174 521.392 44.1799 519.244 44.1799 510.086C44.1799 504.188 48.3444 502.341 53.7149 502.718L59.2549 506.694Z" fill="#3D9916"/>
<path d="M63.0408 465.239C64.9252 456.288 58.7256 449.184 57.3876 440.949C56.9375 438.861 56.3585 436.803 55.6541 434.787L64.6802 435.39C66.0746 437.162 67.488 438.914 68.8824 440.666C68.7505 448.204 69.3158 455.949 66.998 463.279C66.4327 465.578 66.2631 468.612 63.0408 465.239Z" fill="#4CB427"/>
<path d="M82.055 269.791C80.3025 260.181 76.7034 250.57 81.8289 240.903C81.5651 243.843 84.7685 244.804 85.4468 247.197C82.1303 251.098 87.3312 253.472 87.1993 256.77C88.9329 262.404 88.2358 267.153 82.055 269.791Z" fill="#185D24"/>
<path d="M55.3713 487.889C50.0385 485.477 45.5347 483.932 46.4392 477.958C46.5137 477.41 46.7164 476.887 47.0307 476.431C47.3451 475.976 47.7622 475.601 48.2485 475.336C48.7348 475.072 49.2766 474.926 49.8298 474.91C50.383 474.894 50.9322 475.009 51.4329 475.245C57.6702 477.619 54.6552 482.726 55.3713 487.889Z" fill="#389813"/>
<path d="M55.4661 404.863C55.4661 404.235 55.4661 403.606 55.4661 402.978C64.3792 403.92 65.4721 406.483 61.1192 416.263C59.8944 414.982 58.6884 413.7 57.4635 412.494C57.0678 409.837 55.2399 407.614 55.4661 404.863Z" fill="#4AAD22"/>
<path d="M93.1349 254.188C94.1901 249.873 88.047 246.048 92.6449 240.998C95.5846 243.636 95.8673 247.273 96.8283 250.552L93.1349 254.188Z" fill="#90CE50"/>
<path d="M95.2269 491.506C95.0008 488.811 93.8513 485.853 96.9605 483.969C99.9878 485.907 102.559 488.479 104.498 491.506C104.95 493.108 106.232 495.369 102.727 494.314C100.183 493.635 97.7331 492.486 95.2269 491.506Z" fill="#3B9C16"/>
<path d="M104.516 491.601C101.256 489.811 96.9784 488.944 96.9784 484.064L98.8628 482.179C102.971 483.969 105.175 486.928 104.516 491.601Z" fill="#4BB125"/>
<path d="M87.1983 256.712C85.3139 253.754 78.5867 251.7 85.4458 247.14L87.6318 251.983C87.481 253.565 87.3491 255.129 87.1983 256.712Z" fill="#A1D84A"/>
<path d="M12.031 263.234C5.52989 263.234 4.64423 269.716 0.724731 272.769C-4.31689 283.011 -10.4517 292.677 -17.5726 301.599C-26.2596 310.117 -28.8789 321.743 -32.4215 332.579C-38.0746 349.18 -43.106 366.007 -45.7818 383.457C-46.5033 386.501 -47.981 389.314 -50.0781 391.635C-63.8529 399.662 -77.8351 407.37 -89.8385 418.016C-97.376 419.693 -94.4364 413.908 -94.1726 411.214C-92.5881 394.673 -89.1431 378.365 -83.9027 362.597C-77.0436 341.869 -65.9069 323.534 -53.3946 305.726C-41.8426 288.992 -29.0494 273.151 -15.1229 258.334C-12.7486 255.847 -11.0715 251.362 -6.11556 253.944C0.423225 257.279 7.64039 257.091 14.6126 257.938C13.6516 259.597 11.7483 260.859 12.031 263.234Z" fill="#AEE95A"/>
<path d="M59.7623 158.612C54.6368 166.508 48.7387 173.687 40.5416 178.587C39.2635 154.243 40.4822 129.832 44.1786 105.737C50.9623 107.942 58.5187 105.605 65.0198 109.317C65.9538 110.17 66.6524 111.249 67.0484 112.451C67.4444 113.652 67.5245 114.935 67.281 116.176C65.1328 127.238 66.7722 138.6 64.3602 149.624C62.9469 152.582 62.0236 155.899 59.7623 158.612Z" fill="#BD6F20"/>
<path d="M-4.79703 252.096C-7.39747 249.043 -9.77178 252.963 -12.3345 252.341C-9.71525 247.347 -4.09981 245.35 -1.02827 240.884C0.385012 243.673 3.30586 244.502 5.98167 245.802C3.24932 249.854 0.196574 252.718 -4.79703 252.096Z" fill="#A4E053"/>
<path d="M4.92725 493.768C-3.34516 495.992 -2.77983 487.927 -5.3049 484.252C-8.56487 479.504 -5.09763 475.603 -0.725877 472.946C4.53153 472.739 3.58931 477.242 4.41844 480.107C5.40538 484.593 5.57775 489.221 4.92725 493.768Z" fill="#3C9A17"/>
<path d="M4.92694 493.768C2.21343 489.999 3.38171 485.609 2.53374 481.557C1.91189 478.655 3.40059 474.604 -0.726196 472.927C-0.575446 470.609 -0.236309 469.422 2.40182 471.4C6.17057 474.189 10.9947 475.923 10.1467 481.934C9.57411 486.297 7.76258 490.403 4.92694 493.768Z" fill="#4DB326"/>
<path d="M6.83064 444.925C15.7814 446.376 16.6482 449.711 10.4486 459.208C8.11198 454.723 2.8546 451.011 6.83064 444.925Z" fill="#429F19"/>
<path d="M14.9707 519.037C12.2949 513.026 6.66064 510.727 10.2598 505.074C11.6354 502.925 13.6516 502.285 15.7056 504.094C20.4542 508.277 17.1566 512.385 14.9707 519.037Z" fill="#469E1A"/>
<path d="M1.02629 391.786C-0.996277 397.992 -3.02509 404.191 -5.06021 410.385C-17.5373 422.014 -28.2415 435.41 -36.8309 450.145C-41.4099 451.935 -42.5782 448.449 -42.8421 445.472C-43.6712 436.238 -45.2728 426.817 -40.6561 417.979L-27.0697 405.203C-18.8538 398.928 -13.2762 390.523 -7.98109 381.855C-6.45474 379.368 -5.41825 376.033 -1.42338 376.372C3.68328 380.838 0.065258 386.623 1.02629 391.786Z" fill="#AEE959"/>
<path d="M-6.69898 426.702C-4.92766 428.719 0.329708 422.312 -0.0283232 429.454C5.34215 434.937 -1.19663 437.613 -3.5521 439.271C-6.4352 441.288 -8.67764 435.785 -12.0695 435.333C-7.96158 433.901 -14.538 425.817 -6.69898 426.702Z" fill="#4BB427"/>
<path d="M-2.3468 376.918C-6.8693 383.871 -11.1846 390.975 -15.9898 397.74C-18.6279 401.509 -21.8312 405.033 -27.0698 405.278L-42.5217 405.466C-44.5945 404.147 -44.8207 401.697 -45.876 399.813C-44.9715 395.875 -41.9753 392.596 -42.1072 388.281C-43.3132 377.445 -39.9025 367.194 -37.7543 356.849C-34.3701 340.273 -29.4884 324.039 -23.1693 308.345C-22.0395 305.065 -20.2212 302.065 -17.8364 299.545C-11.7876 290.538 -7.66076 280.174 0.818943 272.862C11.8614 286.976 22.037 301.675 31.6662 316.787C31.8258 318.184 31.7047 319.599 31.3099 320.948C30.9151 322.298 30.2545 323.555 29.3672 324.645C21.5659 336.686 15.4417 349.651 8.20567 361.993C4.66304 366.893 3.64552 373.639 -2.3468 376.918Z" fill="#227565"/>
<path d="M62.7386 150.038C61.9849 136.358 64.3969 122.828 65.0188 109.223L68.4671 101.685C69.089 104.097 69.7108 106.528 70.3515 108.94C70.6718 115.743 71.9344 121.735 76.6642 127.52C84.2017 136.81 82.7508 145.497 73.9696 153.694C69.5036 154.599 65.5275 154.146 62.7386 150.038Z" fill="#0F5622"/>
<path d="M62.7394 150.038L74.234 152.977C80.9801 155.992 87.0101 162.399 95.4333 157.387C99.8427 157.858 103.574 159.271 104.29 164.378C109.152 167.336 106.777 170.276 104.29 173.216C99.0325 174.064 96.3379 179.133 91.6269 180.885C84.8809 178.435 78.0217 176.966 70.8988 178.605C68.3926 171.275 63.8134 165.075 59.8562 158.536C58.6126 154.975 58.6126 151.753 62.7394 150.038Z" fill="#ADE95A"/>
<path d="M104.291 164.379C101.784 161.722 99.2216 159.159 95.4528 158.349L94.4353 157.463C94.0383 156.389 94.0692 155.203 94.5217 154.151C94.9741 153.099 95.8133 152.261 96.8661 151.81C101.615 152.055 105.949 149.718 110.641 149.586C111.941 150.152 112.978 150.83 112.111 152.488L104.291 164.379Z" fill="#195821"/>
<path d="M112.111 152.545L110.095 150.548C109.68 145.63 112.601 143.538 116.86 142.596L118.066 143.425C116.945 146.949 114.886 150.102 112.111 152.545Z" fill="#305C1C"/>
<path d="M122.361 135.83C121.57 138.732 120.929 141.71 118.065 143.368C117.835 143.113 117.56 142.902 117.255 142.746C115.898 138.977 116.991 136.396 120.873 135.209C121.151 135.196 121.43 135.245 121.687 135.352C121.944 135.46 122.175 135.623 122.361 135.83Z" fill="#24561A"/>
<path d="M120.797 135.189C119.61 137.733 118.404 140.258 117.179 142.727L110.018 150.472C106.004 152.526 102.217 155.955 97.2986 152.639C92.8515 154.9 89.7611 151.697 85.3139 149.134C89.7234 152.055 93.0964 154.203 95.1316 157.821L95.3577 158.273C85.2763 164.247 83.3354 163.757 74.1584 152.903C81.3568 142.388 79.9058 133.305 70.7477 124.335C66.5456 120.227 66.9789 114.16 70.2389 108.865C71.4449 110.881 72.651 112.878 73.8381 114.895C73.6309 116.779 73.8381 118.437 76.4197 118.023C86.2939 125.56 96.1302 132.966 109.453 125.56C110.282 125.089 111.488 126.634 111.545 128.066C110.885 129.216 111.205 130.742 110.131 131.741C111.3 131.496 111.149 130.026 112.016 129.593L120.797 135.189Z" fill="#BE6E20"/>
<path d="M93.7574 120.341C87.9912 119.813 83.7514 117.194 81.8481 111.465C83.1107 107.697 86.9548 107.301 89.7437 105.511C90.5001 105.4 91.2724 105.495 91.979 105.787C92.6855 106.079 93.3001 106.556 93.7574 107.169C94.7938 109.694 97.2812 109.92 99.4106 110.712C102.802 115.347 107.042 120.247 96.4143 120.623C95.9432 119.964 96.0375 118.626 94.7749 118.909C94.4169 119.041 94.0778 119.832 93.7574 120.341Z" fill="#B76C22"/>
<path d="M123.569 126.709C121.213 130.177 119.253 127.746 117.218 126.295C117.105 124.222 121.552 121.075 115.805 120.34C118.575 116.967 121.741 115.591 125.755 118.305C127.658 121.791 125.378 124.184 123.569 126.709Z" fill="#B6712E"/>
<path d="M89.7437 105.511C88.9613 107.038 87.8454 108.369 86.4787 109.407C85.1119 110.444 83.5293 111.16 81.8481 111.503C80.6798 105.586 81.5843 104.908 89.7437 105.511Z" fill="#20602D"/>
<path d="M115.805 120.341C117.218 120.642 119.573 120.567 119.875 121.302C120.723 123.525 119.272 125.221 117.237 126.295C114.617 124.806 112.978 123.111 115.805 120.341Z" fill="#694525"/>
<path d="M93.7565 120.342C93.5115 117.93 92.852 114.425 96.5642 115.329C99.6357 116.102 96.3757 118.778 96.4134 120.624L93.7565 120.342Z" fill="#3C3129"/>
<path d="M123.567 126.71C124.302 123.921 125.018 121.057 125.753 118.306C129.126 121.886 128.598 123.884 123.567 126.71Z" fill="#51784A"/>
<path d="M112.185 129.594C111.809 133.099 109.792 134.097 106.231 133.212L111.62 128.067C111.822 128.263 111.978 128.502 112.076 128.766C112.174 129.031 112.211 129.313 112.185 129.594Z" fill="#A55A1B"/>
<path d="M76.496 118.098C75.5727 119.266 75.1958 122.206 73.1042 120.397C71.5967 119.097 72.2562 116.628 73.9144 114.97L76.496 118.098Z" fill="#A75211"/>
<path d="M99.4097 110.711C97.5253 109.637 91.8722 114.253 93.7566 107.168C94.9483 107.108 96.1296 107.416 97.1407 108.05C98.1518 108.683 98.944 109.612 99.4097 110.711Z" fill="#683A1F"/>
<path d="M70.806 178.606C78.4943 172.501 85.3534 173.933 91.5342 180.867C92.2454 183.571 92.7122 186.333 92.9287 189.121C92.9287 195.113 90.479 200.201 84.8824 202.914C82.7937 204.048 80.4063 204.509 78.0457 204.236C75.6852 203.963 73.4664 202.968 71.6917 201.388C66.8677 197.337 65.7748 191.966 67.0938 186.106C68.0283 183.467 69.2745 180.949 70.806 178.606Z" fill="#50B52B"/>
<path d="M6.49148 361.523C13.8821 346.043 22.2858 331.067 31.6479 316.693C34.1672 316.36 36.7234 316.927 38.8651 318.295C26.2963 334.199 18.6456 352.779 10.0717 370.869C4.43744 369.456 6.66107 365.028 6.49148 361.523Z" fill="#ABE858"/>
<path d="M6.4916 361.522C7.74785 364.65 8.94122 367.791 10.0718 370.944L1.02686 391.86C-3.55217 387.696 1.27187 381.383 -2.34613 376.993C0.60606 371.817 3.55197 366.66 6.4916 361.522Z" fill="#9CD44B"/>
<path d="M55.4654 404.863C57.4629 407.048 60.5721 408.933 57.3498 412.4C54.5044 410.516 52.4128 408.349 55.4654 404.863Z" fill="#38920C"/>
<path d="M95.208 157.896C90.0071 154.485 83.4871 152.374 81.6593 143.273C87.6705 147.042 91.232 152.299 97.3751 152.695C96.6401 154.447 95.924 156.162 95.208 157.896Z" fill="#AD5511"/>
<path d="M110.339 139.241C108.888 144.386 106.363 145.554 102.801 144.894C98.712 144.046 95.3956 141.484 95.9986 137.357C96.6016 133.23 100.634 135.472 102.745 136.189C105.42 137.018 109.698 136 110.339 139.241Z" fill="#F2E2D5"/>
<path d="M89.4229 189.554C88.5749 195.867 85.4657 199.73 79.1154 199.579C72.765 199.428 70.4472 195.49 70.6357 189.667C70.8241 183.524 74.0652 179.152 80.0576 179.152C86.0499 179.152 89.046 183.807 89.4229 189.554Z" fill="#99DE4F"/>
<path d="M82.5645 182.77C84.2793 187.161 87.2377 191.174 82.0557 194.679C81.624 195.041 81.1049 195.284 80.5504 195.382C79.9958 195.481 79.4251 195.433 78.8951 195.242C78.3651 195.051 77.8943 194.725 77.5297 194.296C77.165 193.866 76.9193 193.349 76.817 192.795C75.0269 187.632 78.0043 184.994 82.5645 182.77Z" fill="#469F1A"/>
</svg>
