<svg width="24" height="24" viewBox="0 0 24 24" fill="none" xmlns="http://www.w3.org/2000/svg">
<rect width="24" height="24" fill="white"/>
<path d="M20.25 18.6147C20.25 19.8981 19.2 20.9481 17.9167 20.9481H5.08333C3.8 20.9481 2.75 19.8981 2.75 18.6147V8.69808C2.75 7.41475 3.8 6.36475 5.08333 6.36475H17.9167C19.2 6.36475 20.25 7.41475 20.25 8.69808V18.6147Z" fill="#22AA22"/>
<path d="M22 6.94808C22 8.23141 20.95 9.28141 19.6667 9.28141H3.33333C2.05 9.28141 1 8.23141 1 6.94808C1 5.66475 2.05 4.61475 3.33333 4.61475H19.6667C20.95 4.61475 22 5.66475 22 6.94808Z" fill="#22AA22"/>
<path d="M2.75 9.8641C2.75 9.54193 3.01117 9.28076 3.33333 9.28076H19.6667C19.9888 9.28076 20.25 9.54193 20.25 9.8641C20.25 10.1863 19.9888 10.4474 19.6667 10.4474H3.33333C3.01117 10.4474 2.75 10.1863 2.75 9.8641Z" fill="#086008" stroke="#086008"/>
<path fill-rule="evenodd" clip-rule="evenodd" d="M9.40515 3.14789L6.62281 1.20001C6.09665 0.831925 5.40656 0.986508 5.08806 1.54359L3.91206 3.60159C3.59356 4.15867 3.8584 4.61426 4.50006 4.61426H9.1665V19.9474C9.1665 20.4997 9.61422 20.9474 10.1665 20.9474H12.8332C13.3855 20.9474 13.8332 20.4997 13.8332 19.9474V4.61426H18.5001C19.1417 4.61426 19.4066 4.15867 19.0887 3.60101L17.9127 1.54359C17.5942 0.986508 16.9035 0.831925 16.3779 1.20001L13.5946 3.14828C13.291 2.62945 12.7278 2.28075 12.0832 2.28075H10.9165C10.2719 2.28075 9.70881 2.62913 9.40515 3.14789Z" fill="#086008"/>
<path d="M9.40515 3.14789L9.11839 3.55749L9.56268 3.86853L9.83666 3.40048L9.40515 3.14789ZM6.62281 1.20001L6.90957 0.790409L6.90942 0.790307L6.62281 1.20001ZM5.08806 1.54359L4.654 1.29542L4.65394 1.29552L5.08806 1.54359ZM3.91206 3.60159L4.34613 3.84976L4.34619 3.84966L3.91206 3.60159ZM9.1665 4.61426H9.6665V4.11426H9.1665V4.61426ZM13.8332 4.61426V4.11426H13.3332V4.61426H13.8332ZM19.0887 3.60101L19.523 3.35338L19.5227 3.35289L19.0887 3.60101ZM17.9127 1.54359L18.3467 1.29547L18.3467 1.29542L17.9127 1.54359ZM16.3779 1.20001L16.6646 1.60963L16.6647 1.60956L16.3779 1.20001ZM13.5946 3.14828L13.1631 3.40083L13.437 3.86891L13.8813 3.5579L13.5946 3.14828ZM9.69191 2.73829L6.90957 0.790409L6.33606 1.60961L9.11839 3.55749L9.69191 2.73829ZM6.90942 0.790307C6.14245 0.253767 5.11858 0.482839 4.654 1.29542L5.52213 1.79176C5.69455 1.49018 6.05084 1.41008 6.33621 1.60971L6.90942 0.790307ZM4.65394 1.29552L3.47794 3.35352L4.34619 3.84966L5.52219 1.79166L4.65394 1.29552ZM3.478 3.35342C3.26518 3.72566 3.18697 4.17772 3.41365 4.56797C3.64023 4.95805 4.0715 5.11426 4.50006 5.11426V4.11426C4.28696 4.11426 4.26498 4.04267 4.27836 4.0657C4.29182 4.08888 4.24045 4.03461 4.34613 3.84976L3.478 3.35342ZM4.50006 5.11426H9.1665V4.11426H4.50006V5.11426ZM8.6665 4.61426V19.9474H9.6665V4.61426H8.6665ZM8.6665 19.9474C8.6665 20.7758 9.33807 21.4474 10.1665 21.4474V20.4474C9.89036 20.4474 9.6665 20.2236 9.6665 19.9474H8.6665ZM10.1665 21.4474H12.8332V20.4474H10.1665V21.4474ZM12.8332 21.4474C13.6616 21.4474 14.3332 20.7758 14.3332 19.9474H13.3332C13.3332 20.2236 13.1093 20.4474 12.8332 20.4474V21.4474ZM14.3332 19.9474V4.61426H13.3332V19.9474H14.3332ZM18.5001 4.11426H13.8332V5.11426H18.5001V4.11426ZM18.6543 3.84864C18.7599 4.03383 18.7086 4.08844 18.7219 4.06557C18.7352 4.04271 18.7131 4.11426 18.5001 4.11426V5.11426C18.9287 5.11426 19.3599 4.95801 19.5865 4.56795C19.8132 4.17786 19.7354 3.72585 19.523 3.35338L18.6543 3.84864ZM17.4786 1.79171L18.6546 3.84913L19.5227 3.35289L18.3467 1.29547L17.4786 1.79171ZM16.6647 1.60956C16.9493 1.41023 17.3061 1.49009 17.4786 1.79176L18.3467 1.29542C17.8822 0.482925 16.8576 0.253616 16.0911 0.790456L16.6647 1.60956ZM13.8813 3.5579L16.6646 1.60963L16.0912 0.790389L13.3079 2.73866L13.8813 3.5579ZM14.0261 2.89573C13.6365 2.23006 12.9127 1.78075 12.0832 1.78075V2.78075C12.5429 2.78075 12.9454 3.02884 13.1631 3.40083L14.0261 2.89573ZM12.0832 1.78075H10.9165V2.78075H12.0832V1.78075ZM10.9165 1.78075C10.0872 1.78075 9.36332 2.2296 8.97364 2.8953L9.83666 3.40048C10.0543 3.02866 10.4567 2.78075 10.9165 2.78075V1.78075Z" fill="#086008"/>
</svg>
