<svg width="24" height="24" viewBox="0 0 24 24" fill="none" xmlns="http://www.w3.org/2000/svg">
<path d="M20.25 19.6147C20.25 20.8981 19.2 21.9481 17.9167 21.9481H5.08333C3.8 21.9481 2.75 20.8981 2.75 19.6147V9.69808C2.75 8.41475 3.8 7.36475 5.08333 7.36475H17.9167C19.2 7.36475 20.25 8.41475 20.25 9.69808V19.6147Z" fill="white" stroke="#C4D4C8"/>
<path d="M22 7.94808C22 9.23141 20.95 10.2814 19.6667 10.2814H3.33333C2.05 10.2814 1 9.23141 1 7.94808C1 6.66475 2.05 5.61475 3.33333 5.61475H19.6667C20.95 5.61475 22 6.66475 22 7.94808Z" fill="white" stroke="#C4D4C8"/>
<path d="M2.75 10.2808H20.25V11.4474H2.75V10.2808Z" fill="#C4D4C8" stroke="#C4D4C8"/>
<path fill-rule="evenodd" clip-rule="evenodd" d="M9.40515 4.14789L6.62281 2.20001C6.09665 1.83192 5.40656 1.98651 5.08806 2.54359L3.91206 4.60159C3.59356 5.15867 3.8584 5.61426 4.50006 5.61426H9.1665V21.9474H13.8332V5.61426H18.5001C19.1417 5.61426 19.4066 5.15867 19.0887 4.60101L17.9127 2.54359C17.5942 1.98651 16.9035 1.83192 16.3779 2.20001L13.5946 4.14828C13.291 3.62945 12.7278 3.28075 12.0832 3.28075H10.9165C10.2719 3.28075 9.70881 3.62913 9.40515 4.14789Z" fill="#C4D4C8"/>
<path d="M9.40515 4.14789L9.11839 4.55749L9.56268 4.86853L9.83666 4.40048L9.40515 4.14789ZM6.62281 2.20001L6.90957 1.79041L6.90942 1.79031L6.62281 2.20001ZM5.08806 2.54359L4.654 2.29542L4.65394 2.29552L5.08806 2.54359ZM3.91206 4.60159L4.34613 4.84976L4.34619 4.84966L3.91206 4.60159ZM9.1665 5.61426H9.6665V5.11426H9.1665V5.61426ZM9.1665 21.9474H8.6665V22.4474H9.1665V21.9474ZM13.8332 21.9474V22.4474H14.3332V21.9474H13.8332ZM13.8332 5.61426V5.11426H13.3332V5.61426H13.8332ZM19.0887 4.60101L19.523 4.35338L19.5227 4.35289L19.0887 4.60101ZM17.9127 2.54359L18.3467 2.29547L18.3467 2.29542L17.9127 2.54359ZM16.3779 2.20001L16.6646 2.60963L16.6647 2.60956L16.3779 2.20001ZM13.5946 4.14828L13.1631 4.40083L13.437 4.86891L13.8813 4.5579L13.5946 4.14828ZM9.69191 3.73829L6.90957 1.79041L6.33606 2.60961L9.11839 4.55749L9.69191 3.73829ZM6.90942 1.79031C6.14245 1.25377 5.11858 1.48284 4.654 2.29542L5.52213 2.79176C5.69455 2.49018 6.05084 2.41008 6.33621 2.60971L6.90942 1.79031ZM4.65394 2.29552L3.47794 4.35352L4.34619 4.84966L5.52219 2.79166L4.65394 2.29552ZM3.478 4.35342C3.26518 4.72566 3.18697 5.17772 3.41365 5.56797C3.64023 5.95805 4.0715 6.11426 4.50006 6.11426V5.11426C4.28696 5.11426 4.26498 5.04267 4.27836 5.0657C4.29182 5.08888 4.24045 5.03461 4.34613 4.84976L3.478 4.35342ZM4.50006 6.11426H9.1665V5.11426H4.50006V6.11426ZM8.6665 5.61426V21.9474H9.6665V5.61426H8.6665ZM9.1665 22.4474H13.8332V21.4474H9.1665V22.4474ZM14.3332 21.9474V5.61426H13.3332V21.9474H14.3332ZM18.5001 5.11426H13.8332V6.11426H18.5001V5.11426ZM18.6543 4.84864C18.7599 5.03383 18.7086 5.08844 18.7219 5.06557C18.7352 5.04271 18.7131 5.11426 18.5001 5.11426V6.11426C18.9287 6.11426 19.3599 5.95801 19.5865 5.56795C19.8132 5.17786 19.7354 4.72585 19.523 4.35338L18.6543 4.84864ZM17.4786 2.79171L18.6546 4.84913L19.5227 4.35289L18.3467 2.29547L17.4786 2.79171ZM16.6647 2.60956C16.9493 2.41023 17.3061 2.49009 17.4786 2.79176L18.3467 2.29542C17.8822 1.48292 16.8576 1.25362 16.0911 1.79046L16.6647 2.60956ZM13.8813 4.5579L16.6646 2.60963L16.0912 1.79039L13.3079 3.73866L13.8813 4.5579ZM14.0261 3.89573C13.6365 3.23006 12.9127 2.78075 12.0832 2.78075V3.78075C12.5429 3.78075 12.9454 4.02884 13.1631 4.40083L14.0261 3.89573ZM12.0832 2.78075H10.9165V3.78075H12.0832V2.78075ZM10.9165 2.78075C10.0872 2.78075 9.36332 3.2296 8.97364 3.8953L9.83666 4.40048C10.0543 4.02866 10.4567 3.78075 10.9165 3.78075V2.78075Z" fill="#C4D4C8"/>
</svg>
