<svg width="22" height="22" viewBox="0 0 22 22" fill="none" xmlns="http://www.w3.org/2000/svg">
<path d="M11.7158 1.2958C11.6228 1.20207 11.5122 1.12768 11.3904 1.07691C11.2685 1.02614 11.1378 1 11.0058 1C10.8738 1 10.7431 1.02614 10.6212 1.07691C10.4994 1.12768 10.3888 1.20207 10.2958 1.2958L1.2958 10.2958C1.20207 10.3888 1.12768 10.4994 1.07691 10.6212C1.02614 10.7431 1 10.8738 1 11.0058C1 11.1378 1.02614 11.2685 1.07691 11.3904C1.12768 11.5122 1.20207 11.6228 1.2958 11.7158C1.38924 11.8085 1.50005 11.8818 1.62189 11.9316C1.74373 11.9813 1.87419 12.0066 2.0058 12.0058H3.0058V19.0058C3.0058 19.5362 3.21651 20.0449 3.59158 20.42C3.96666 20.7951 4.47537 21.0058 5.0058 21.0058H17.0058C17.5362 21.0058 18.0449 20.7951 18.42 20.42C18.7951 20.0449 19.0058 19.5362 19.0058 19.0058V12.0058H20.0058C20.271 12.0058 20.5254 11.9004 20.7129 11.7129C20.9004 11.5254 21.0058 11.271 21.0058 11.0058C21.0066 10.8742 20.9813 10.7437 20.9316 10.6219C20.8818 10.5001 20.8085 10.3892 20.7158 10.2958L11.7158 1.2958Z" stroke="#C4D4C8"/>
</svg>
