<svg width="56" height="56" viewBox="0 0 56 56" fill="none" xmlns="http://www.w3.org/2000/svg">
<rect x="-0.5" y="0.5" width="47" height="47" rx="23.5" transform="matrix(-1 0 0 1 51 4)" fill="#22AA22" stroke="#22AA22"/>
<path d="M36.5 31.9981H50C50 31.9981 50.1551 34.9998 48.5 37.9998C45.4657 43.4997 43.5 42.9983 43.5 42.9983L38.5002 42.9982C34.0002 43.4982 25.0337 43.8373 23.0002 43.4983C20.9667 43.1593 16.5002 41.9982 13.5002 39.4982C10.5002 36.9982 3.00021 29.4982 6.00021 27.4982C9.00021 25.4982 8.00021 29.9982 15.0002 32.4982C20.6002 34.4982 24.3335 34.3316 25.5002 33.9983C22.0002 31.4983 18.5 31.9981 18.5 28.9981C18.5 25.9981 23 26.9981 27.5 28.4981C31.1 29.6981 35 31.3314 36.5 31.9981Z" fill="white"/>
<path d="M19.0001 28.4998C19.0001 31.4998 21.5001 29.9998 25.0001 32.4998C27.8001 34.4998 28.1666 36.1652 28 36.4985" stroke="white"/>
<path d="M50.0001 31.9981H36.5001C35.0001 31.3314 31.1001 29.6981 27.5001 28.4981C23.0001 26.9981 18.5001 25.9981 18.5001 28.9981C18.5001 31.9981 20.5001 30.4983 24.0001 32.9983C26.8001 34.9983 27.1667 36.165 27.0001 36.4983" stroke="#22AA22"/>
<path d="M45.0001 42.9982H38.5001C34.0001 43.4982 25.0335 43.8373 23.0001 43.4983C20.9666 43.1593 16.5001 41.9982 13.5001 39.4982C10.5001 36.9982 3.00006 29.4982 6.00006 27.4982C9.00006 25.4982 8.00006 29.9982 15.0001 32.4982C20.6001 34.4982 24.3334 34.3316 25.5001 33.9983" stroke="#22AA22"/>
<path d="M21.98 8.91945L21.9819 8.92094C24.77 11.0384 25.3974 15.6349 23.0867 19.6413C20.7694 23.6473 16.4771 25.3993 13.2477 24.0461C12.4907 23.7264 11.8005 23.393 11.0301 22.9637L15.4821 15.2547L19.9345 7.54478C20.6939 7.99597 21.3328 8.42292 21.98 8.91945Z" fill="white" stroke="#22AA22"/>
<path d="M9.90312 11.7522L9.90283 11.7527C7.46613 15.9693 8.2957 20.7606 11.4236 22.5673C14.5515 24.3739 19.116 22.6977 21.5528 18.4808C23.9895 14.2643 23.16 9.47306 20.0321 7.66632L9.90312 11.7522ZM9.90312 11.7522C12.3327 7.53653 16.8969 5.8593 20.032 7.66627L9.90312 11.7522Z" fill="white" stroke="#22AA22"/>
<path d="M19.5027 7.28609C22.8356 9.21272 23.7399 14.22 21.2338 18.5696C18.7214 22.9182 13.9352 24.6369 10.5954 22.7163C7.26304 20.7895 6.35903 15.7826 8.86486 11.4333C11.3778 7.08353 16.1707 5.35995 19.5027 7.28609Z" fill="white" stroke="#22AA22"/>
<path d="M18.2537 8.94889L18.2545 8.94935C20.6547 10.3311 21.3006 14.0985 19.3469 17.4832C17.3935 20.8675 13.8114 22.1908 11.4103 20.8026L11.4095 20.8021C9.00932 19.4204 8.36339 15.6529 10.3171 12.2682C12.2706 8.88395 15.8526 7.56069 18.2537 8.94889Z" fill="white" stroke="#22AA22"/>
<path opacity="0.5" d="M10.9376 13.1598L10.9374 13.1603C9.76282 15.1993 9.44399 17.4975 9.96771 19.3921C8.84222 17.5918 8.83511 14.8176 10.3104 12.2617C12.2635 8.88489 15.8454 7.56049 18.2469 8.94219C18.3678 9.01242 18.4841 9.08838 18.5958 9.16978C15.871 8.45078 12.6747 10.1521 10.9376 13.1598Z" fill="white" stroke="#22AA22"/>
<path d="M10.354 12.2904C9.88548 13.0993 9.5455 13.9483 9.33359 14.7993C9.51192 13.96 9.83552 13.1025 10.317 12.2683C10.8042 11.4261 11.3926 10.7115 12.0388 10.1348C11.3998 10.7475 10.8269 11.4724 10.354 12.2904Z" fill="white" stroke="#22AA22"/>
</svg>
