<svg width="56" height="56" viewBox="0 0 56 56" fill="none" xmlns="http://www.w3.org/2000/svg">
<rect x="-0.5" y="0.5" width="47" height="47" rx="23.5" transform="matrix(-1 0 0 1 51 4)" fill="#22AA22" stroke="#22AA22"/>
<path d="M36.5 31.9981H50C50 31.9981 50.1551 34.9998 48.5 37.9998C45.4657 43.4998 43.5 42.9984 43.5 42.9984L38.5002 42.9982C34.0002 43.4982 25.0337 43.8374 23.0002 43.4984C20.9667 43.1593 16.5002 41.9982 13.5002 39.4982C10.5002 36.9982 3.00021 29.4982 6.00021 27.4982C9.00021 25.4982 8.00021 29.9982 15.0002 32.4982C20.6002 34.4982 24.3335 34.3316 25.5002 33.9984C22.0002 31.4984 18.5 31.9981 18.5 28.9981C18.5 25.9981 23 26.9981 27.5 28.4981C31.1 29.6981 35 31.3314 36.5 31.9981Z" fill="white"/>
<path d="M19 28.4998C19 31.4998 21.5 29.9998 25 32.4998C27.8 34.4998 28.1666 36.1653 27.9999 36.4986" stroke="white"/>
<path d="M50 31.9981H36.5C35 31.3314 31.1 29.6981 27.5 28.4981C23 26.9981 18.5 25.9981 18.5 28.9981C18.5 31.9981 20.5 30.4984 24 32.9984C26.8 34.9984 27.1667 36.165 27 36.4984" stroke="#22AA22"/>
<path d="M45 42.9982H38.5C34 43.4982 25.0335 43.8374 23 43.4984C20.9665 43.1593 16.5 41.9982 13.5 39.4982C10.5 36.9982 3 29.4982 6 27.4982C9 25.4982 8 29.9982 15 32.4982C20.6 34.4982 24.3333 34.3316 25.5 33.9984" stroke="#22AA22"/>
<path d="M21.98 8.91951L21.9819 8.921C24.77 11.0384 25.3974 15.635 23.0867 19.6414C20.7694 23.6474 16.4771 25.3994 13.2477 24.0462C12.4907 23.7265 11.8005 23.393 11.0301 22.9638L15.4821 15.2548L19.9345 7.54484C20.6939 7.99603 21.3328 8.42298 21.98 8.91951Z" fill="white" stroke="#22AA22"/>
<path d="M9.90318 11.7522L9.90289 11.7527C7.46619 15.9693 8.29576 20.7606 11.4237 22.5673C14.5515 24.3739 19.116 22.6977 21.5529 18.4808C23.9896 14.2643 23.16 9.47306 20.0322 7.66632L9.90318 11.7522ZM9.90318 11.7522C12.3328 7.53653 16.897 5.8593 20.0321 7.66627L9.90318 11.7522Z" fill="white" stroke="#22AA22"/>
<path d="M19.5027 7.28609C22.8356 9.21272 23.7399 14.22 21.2338 18.5696C18.7214 22.9182 13.9352 24.6369 10.5954 22.7163C7.26304 20.7895 6.35903 15.7826 8.86486 11.4333C11.3778 7.08353 16.1707 5.35995 19.5027 7.28609Z" fill="white" stroke="#22AA22"/>
<path d="M18.2538 8.94889L18.2546 8.94935C20.6548 10.3311 21.3007 14.0985 19.347 17.4832C17.3935 20.8675 13.8114 22.1908 11.4104 20.8026L11.4096 20.8021C9.00938 19.4204 8.36345 15.6529 10.3172 12.2682C12.2706 8.88395 15.8527 7.56069 18.2538 8.94889Z" fill="white" stroke="#22AA22"/>
<path opacity="0.5" d="M10.9378 13.1598L10.9375 13.1603C9.76294 15.1993 9.44411 17.4976 9.96784 19.3921C8.84234 17.5918 8.83523 14.8177 10.3105 12.2618C12.2636 8.88496 15.8455 7.56055 18.2471 8.94225C18.3679 9.01248 18.4842 9.08844 18.5959 9.16984C15.8711 8.45084 12.6748 10.1522 10.9378 13.1598Z" fill="white" stroke="#22AA22"/>
<path d="M10.3541 12.2905C9.88554 13.0994 9.54556 13.9483 9.33365 14.7993C9.51198 13.9601 9.83558 13.1026 10.3171 12.2684C10.8042 11.4261 11.3927 10.7116 12.0389 10.1348C11.3999 10.7476 10.827 11.4724 10.3541 12.2905Z" fill="white" stroke="#22AA22"/>
</svg>
