<svg width="35" height="28" viewBox="0 0 35 28" fill="none" xmlns="http://www.w3.org/2000/svg">
<path d="M6.78373 21.3225C11.3546 25.9324 21.8514 32.3444 33.7497 21.258C27.024 19.9531 25.8406 11.3227 21.2688 6.71373C16.6979 2.10292 10.3201 1.06049 5.7483 5.67038C1.17742 10.2803 2.21194 16.7117 6.78373 21.3225Z" fill="#B7E1B8" stroke="#B7E1B8" stroke-width="0.463405"/>
<path d="M23.478 22.4837C29.0733 23.9884 33.2096 21.8041 33.5913 21.4192C33.5913 21.4192 30.1343 23.0316 24.1327 20.0599C25.0019 18.9438 27.6517 17.3811 27.6517 17.3811C27.1467 17.0625 23.9281 17.1739 21.7304 18.6971C20.673 18.0221 19.5536 17.208 18.3766 16.2337L19.1436 15.4316C22.1111 12.3154 25.484 13.0521 25.484 13.0521C24.9015 12.4876 20.3717 9.88337 16.734 13.6967L16.1743 14.2842C15.7853 13.9168 15.3927 13.5365 14.9927 13.1331L13.3035 11.4295L14.2751 10.4488C17.3074 7.39149 21.7861 7.27085 21.7861 7.27085C21.2145 6.69346 15.5196 4.83146 11.8116 8.57112L11.1395 9.24797L3.56829 1.61024C2.9967 1.03285 2.02336 1.08074 1.45268 1.65628C0.881097 2.23275 0.83453 3.21348 1.40612 3.78995L8.97829 11.4268L8.92442 11.4811C5.2164 15.2217 6.75585 21.2737 7.32835 21.851C7.32835 21.851 7.75567 17.0238 10.788 13.9665L11.1414 13.6092L14.3381 16.8341C14.3901 16.8866 14.4412 16.9317 14.4933 16.9842C12.2791 21.4017 15.6155 26.5061 16.2811 26.9149C16.2811 26.9149 14.9434 22.5656 16.7194 18.9632C18.1127 20.0636 19.4769 20.8924 20.789 21.5002C20.8648 24.2564 23.2607 26.7492 23.8423 26.9619C23.8423 26.9619 23.0105 24.1965 23.3547 22.8299L23.478 22.4837Z" fill="#22AA22" stroke="#B7E1B8" stroke-width="0.463405" stroke-linejoin="round"/>
</svg>
