<svg width="24" height="25" viewBox="0 0 24 25" fill="none" xmlns="http://www.w3.org/2000/svg">
<path d="M16.374 8.58359L16.3739 8.58364C16.2324 9.02841 16.0934 9.50537 15.9517 9.99165C15.9244 10.0853 15.897 10.1793 15.8695 10.2736C15.698 10.8601 15.5199 11.4584 15.3216 12.0481C14.9232 13.2327 14.4536 14.3501 13.8242 15.2297C13.2003 16.1017 12.4371 16.7166 11.4462 16.9493C10.4775 17.1768 9.21707 17.0566 7.54831 16.3281C6.42459 14.1854 6.52 12.5651 7.19387 11.3127C7.90452 9.99201 9.31237 8.97644 10.9574 8.21111C12.5916 7.45086 14.3916 6.9689 15.7932 6.67703C16.3449 6.56216 16.8318 6.47733 17.2188 6.41678C16.9749 6.93216 16.6671 7.66255 16.374 8.58359Z" stroke="currentColor"/>
<path d="M17.3409 6.34232C17.3409 6.34232 16.4598 6.9731 15.2133 8.00439C13.9617 9.03068 12.3497 10.4675 10.8828 12.0444C10.1469 12.8304 9.45605 13.6515 8.86532 14.4575C8.71513 14.6577 8.56995 14.858 8.43979 15.0582C8.29961 15.2535 8.17445 15.4537 8.0543 15.6489C7.92915 15.8392 7.81901 16.0344 7.71388 16.2197C7.60374 16.4049 7.50862 16.5851 7.42352 16.7653C7.3334 16.9406 7.24829 17.1108 7.18321 17.276C7.11313 17.4412 7.03803 17.5964 6.98797 17.7466C6.9329 17.8968 6.88284 18.0369 6.83778 18.1621C6.79773 18.2923 6.76269 18.4124 6.73265 18.5225C6.66257 18.7378 6.64254 18.913 6.6125 19.0332C6.58747 19.1483 6.57746 19.2134 6.57746 19.2134L5.8916 19.0882C5.8916 19.0882 5.90662 19.0182 5.94166 18.888C5.97671 18.7628 6.00674 18.5626 6.09185 18.3323C6.1319 18.2172 6.17195 18.087 6.22201 17.9468C6.27708 17.8117 6.33716 17.6615 6.40224 17.5063C6.46231 17.3461 6.54742 17.1859 6.62752 17.0157C6.70762 16.8454 6.80274 16.6652 6.90286 16.49C7.00299 16.3098 7.10812 16.1195 7.22827 15.9343C7.34342 15.7441 7.46857 15.5488 7.60374 15.3586C7.7339 15.1633 7.87408 14.9631 8.02426 14.7678C8.16945 14.5676 8.32464 14.3724 8.48484 14.1721C9.12564 13.3761 9.86156 12.5701 10.6325 11.8041C12.1745 10.2772 13.8516 8.90051 15.1482 7.92429C16.4398 6.93806 17.3409 6.34232 17.3409 6.34232Z" fill="currentColor"/>
</svg>
