<svg width="16" height="16" viewBox="0 0 16 16" fill="none" xmlns="http://www.w3.org/2000/svg">
<path d="M14.0056 3.50916C14.7218 1.25927 15.5095 4.57764e-05 15.5095 4.57764e-05C15.5095 4.57764e-05 -3.56383 1.90977 2.4876 13.022C11.1052 16.919 12.4182 8.49831 14.0056 3.50916Z" fill="#22AA22"/>
<path d="M14.5904 0.656616C14.5904 0.656616 13.5401 1.40857 12.0541 2.63795C10.5621 3.86137 8.64046 5.57415 6.89187 7.45403C6.01459 8.39099 5.19102 9.36972 4.48681 10.3306C4.30778 10.5693 4.13471 10.808 3.97954 11.0467C3.81244 11.2794 3.66325 11.5182 3.52002 11.7509C3.37082 11.9777 3.23953 12.2104 3.1142 12.4312C2.98291 12.6521 2.86952 12.8669 2.76806 13.0817C2.66064 13.2906 2.55919 13.4935 2.4816 13.6905C2.39805 13.8874 2.30854 14.0724 2.24886 14.2514C2.18321 14.4305 2.12353 14.5976 2.06982 14.7468C2.02208 14.9019 1.98031 15.0452 1.9445 15.1765C1.86095 15.4331 1.83707 15.642 1.80127 15.7852C1.77143 15.9225 1.75949 16 1.75949 16L0.941895 15.8508C0.941895 15.8508 0.959797 15.7673 1.00157 15.6121C1.04335 15.4629 1.07915 15.2242 1.18061 14.9497C1.22835 14.8124 1.27609 14.6573 1.33577 14.4902C1.40142 14.329 1.47303 14.15 1.55062 13.965C1.62223 13.774 1.72368 13.583 1.81917 13.3801C1.91466 13.1772 2.02805 12.9624 2.1474 12.7535C2.26676 12.5387 2.39209 12.3119 2.53532 12.0911C2.67258 11.8643 2.82178 11.6315 2.98291 11.4048C3.13807 11.172 3.30517 10.9333 3.48421 10.7006C3.65728 10.4618 3.84228 10.2291 4.03326 9.99038C4.79715 9.04149 5.67442 8.08066 6.59347 7.16757C8.43158 5.34737 10.4308 3.7062 11.9765 2.54247C13.5162 1.36679 14.5904 0.656616 14.5904 0.656616Z" fill="#4B8B00"/>
</svg>
