<svg width="35" height="28" viewBox="0 0 35 28" fill="none" xmlns="http://www.w3.org/2000/svg">
<path d="M6.90873 21.1223C11.4796 25.7322 21.9764 32.1442 33.8747 21.0578C27.149 19.7529 25.9656 11.1225 21.3938 6.51354C16.8229 1.90272 10.4451 0.860295 5.8733 5.47019C1.30242 10.0801 2.33694 16.5115 6.90873 21.1223Z" fill="#22AA22" stroke="#22AA22" stroke-width="0.463405"/>
<path d="M23.603 22.2835C29.1983 23.7882 33.3346 21.6039 33.7163 21.219C33.7163 21.219 30.2593 22.8314 24.2577 19.8597C25.1269 18.7437 27.7767 17.1809 27.7767 17.1809C27.2717 16.8623 24.0531 16.9737 21.8554 18.4969C20.798 17.8219 19.6786 17.0078 18.5016 16.0335L19.2686 15.2314C22.2361 12.1152 25.609 12.8519 25.609 12.8519C25.0265 12.2874 20.4967 9.68317 16.859 13.4965L16.2993 14.084C15.9103 13.7166 15.5177 13.3363 15.1177 12.9329L13.4285 11.2293L14.4001 10.2486C17.4324 7.19129 21.9111 7.07066 21.9111 7.07066C21.3395 6.49327 15.6446 4.63126 11.9366 8.37093L11.2645 9.04777L3.69329 1.41005C3.1217 0.832657 2.14836 0.880542 1.57768 1.45609C1.0061 2.03256 0.95953 3.01329 1.53112 3.58975L9.10329 11.2266L9.04942 11.2809C5.3414 15.0215 6.88085 21.0735 7.45335 21.6508C7.45335 21.6508 7.88067 16.8236 10.913 13.7663L11.2664 13.409L14.4631 16.6339C14.5151 16.6864 14.5662 16.7315 14.6183 16.784C12.4041 21.2015 15.7405 26.3059 16.4061 26.7147C16.4061 26.7147 15.0684 22.3654 16.8444 18.763C18.2377 19.8634 19.6019 20.6922 20.914 21.3C20.9898 24.0562 23.3857 26.549 23.9673 26.7617C23.9673 26.7617 23.1355 23.9963 23.4797 22.6297L23.603 22.2835Z" fill="#2E384D" stroke="#22AA22" stroke-width="0.463405" stroke-linejoin="round"/>
</svg>
