<svg width="201" height="194" viewBox="0 0 201 194" fill="none" xmlns="http://www.w3.org/2000/svg">
<path d="M44.614 49.2757C60.4439 54.5421 75.4192 61.5368 88.8617 71.5661C94.0434 75.4309 97.4074 81.0647 102.006 85.5146C102.182 86.4672 102.155 87.5014 102.548 88.3452C106.55 96.9592 108.815 105.805 106.998 115.426C106.184 119.74 105.356 123.985 103.349 127.904C102.603 129.347 101.721 130.789 103.037 132.382C97.0547 135.076 95.4948 140.764 94.3825 146.33C93.433 151.107 95.2506 155.312 100.012 158.877C100.351 149.501 101.626 140.996 103.715 132.613C108.3 131.102 110.986 127.333 113.536 123.7C117.836 117.576 121.417 110.949 125.825 104.92C132.485 95.8297 139.186 86.7938 145.06 77.1591C150.377 68.4498 154.419 59.1553 156.169 49.1805C156.942 44.7714 157.919 40.1854 156.807 35.3C155.857 31.1495 154.067 27.0397 154.487 22.4946C154.853 18.5346 157.607 15.3502 157.58 11.3494C162.11 19.7049 165.013 28.7544 167.93 37.7223C171.172 47.6835 173.613 57.8762 174.807 68.3682C177.886 95.0949 163.887 122.856 135.198 130.626C131.617 131.592 128.104 132.708 124.36 132.722C124.591 132.15 124.699 131.47 125.079 131.021C126.381 129.429 128.416 127.85 126.368 125.7C124.916 124.189 122.99 123.387 120.766 124.883C118.324 126.53 117.836 128.517 119.111 131.062C119.572 131.987 120.901 132.613 120.06 133.974C110.891 136.641 106.835 142.996 106.835 152.345C106.835 156.074 107.662 159.326 110.592 161.884C113.319 164.266 114.77 166.988 111.799 170.186C109.263 172.921 104.217 172.717 101.531 169.26C96.9869 163.409 90.8828 158.823 87.5324 151.991C87.139 151.202 86.1895 150.685 85.5112 150.045C87.3153 145.65 87.3153 140.887 85.9317 136.709C81.2791 122.706 80.1397 107.928 75.9346 93.8293C71.594 79.2684 65.2186 66.5174 51.1115 58.9512C47.5575 57.0188 44.9803 53.712 44.614 49.2757ZM135.741 102.321C136.473 104.24 137.871 105.546 139.607 106.539C141.506 108.594 143.635 110.01 146.24 107.846C148.424 106.036 148.587 99.2862 146.688 96.9864C144.151 93.8973 139.336 93.1761 136.311 95.6528C134.005 97.558 132.445 99.817 135.741 102.321Z" fill="#50B449"/>
<path d="M157.566 11.3357C157.593 15.3366 154.853 18.5209 154.474 22.4809C154.053 27.0261 155.844 31.1358 156.793 35.2864C157.919 40.1853 156.929 44.7713 156.156 49.1668C154.392 59.1417 150.363 68.4362 145.046 77.1455C139.159 86.7802 132.458 95.8161 125.812 104.906C121.403 110.935 117.808 117.562 113.522 123.686C110.972 127.333 108.286 131.089 103.701 132.599C103.43 132.667 103.199 132.586 103.023 132.368C101.707 130.776 102.603 129.347 103.335 127.891C105.343 123.958 106.17 119.726 106.984 115.412C108.788 105.777 106.536 96.9456 102.535 88.3315C102.141 87.4878 102.169 86.4536 101.992 85.501C107.35 76.261 115.191 69.0894 122.298 61.3599C134.005 48.6225 145.046 35.5721 150.608 18.7251C151.489 16.0578 151.286 13.2681 152.371 10.7098C153.104 8.9815 153.131 6.31428 155.627 6.58644C158.326 6.88583 157.485 9.49862 157.566 11.3357ZM129.474 89.148C128.687 87.6103 128.05 86.0862 125.676 86.3855C123.668 86.6441 122.61 87.5695 122.827 89.461C123.044 91.2437 124.333 92.4276 126.178 92.2099C127.819 92.033 129.216 91.1757 129.474 89.148Z" fill="#409B46"/>
<path d="M44.6138 49.2756C44.9801 53.7119 47.5574 57.0324 51.1113 58.9375C65.2049 66.5037 71.5938 79.2547 75.9345 93.8156C80.1259 107.914 81.2789 122.692 85.9316 136.695C87.3152 140.873 87.3152 145.636 85.5111 150.032C79.2714 152.413 70.5765 148.344 65.232 141.676C56.8627 131.225 54.8687 118.977 53.9734 106.254C53.9463 105.873 53.9056 105.492 53.8785 105.097C53.8513 104.553 53.8106 104.008 53.7835 103.464C54.3939 102.334 53.9734 101.3 53.458 100.293C52.8475 83.1875 50.5823 66.5582 40.3817 52.0517C39.4729 50.7589 37.4246 48.9898 39.2965 47.4249C41.5076 45.5333 42.8098 48.6088 44.6138 49.2756Z" fill="#409B46"/>
<path d="M101.463 55.5082C95.4133 55.4946 93.2294 53.222 93.2158 46.8942C93.1887 39.8451 95.3726 36.9737 100.812 36.9193C106.753 36.8649 110.823 40.6207 110.836 46.1593C110.836 52.7594 108.069 55.5218 101.463 55.5082ZM100.527 43.7643C99.1842 43.9956 98.1126 44.8257 98.3432 46.2954C98.7095 48.5952 99.6183 50.6773 102.562 50.5412C104.067 50.4732 105.844 50.201 105.573 48.3367C105.193 45.7239 103.226 44.2814 100.527 43.7643Z" fill="#CFE7C6"/>
<path d="M147.569 172.023C147.501 175.384 142.794 179.453 139.186 179.289C134.737 179.085 131.21 175.275 131.21 170.648C131.21 164.416 133.245 161.721 137.965 161.735C144.124 161.735 147.705 165.572 147.569 172.023Z" fill="#CFE7C6"/>
<path d="M50.5552 151.392C50.5688 147.392 55.0315 143.241 59.2772 143.309C62.3428 143.35 67.8907 148.14 67.9586 150.794C68.0128 152.93 61.6239 160.524 59.7249 160.578C56.0082 160.673 50.5416 155.203 50.5552 151.392Z" fill="#CFE7C6"/>
<path d="M186.364 137.308C186.201 133.062 188.615 132.082 192.278 132.463C196.89 132.94 199.331 135.566 200.647 139.921C201.895 144.03 199.698 146.385 197.025 148.63C196.049 149.446 194.774 149.882 193.648 150.535C189.049 153.189 187.897 152.658 186.432 147.187C186.54 146.221 186.662 145.255 186.771 144.289C188.222 144.275 189.673 144.371 191.111 144.221C194.218 143.908 193.838 142.193 192.563 140.22C191.708 136.655 187.788 139.662 186.364 137.308Z" fill="#CFE7C6"/>
<path d="M40.7886 102.647C40.8293 106.58 37.3703 110.118 33.4773 110.146C28.7297 110.173 25.2165 106.703 25.1622 101.899C25.1215 98.0614 28.8789 94.5777 33.1924 94.4824C36.6107 94.4008 40.7615 98.8643 40.7886 102.647ZM33.4773 100.32C31.9309 100.429 30.1675 100.701 30.2625 102.838C30.3574 104.893 32.0394 105.247 33.7757 105.179C35.6612 105.111 36.8142 104.212 36.7735 102.226C36.7192 100.021 34.9694 100.47 33.4773 100.32Z" fill="#CFE7C6"/>
<path d="M179.799 6.96749C179.826 2.87139 182.417 0.0136414 186.12 3.30486e-05C189.85 -0.0135753 193.621 4.17778 193.458 8.15141C193.322 11.2949 189.958 14.4112 186.662 14.4248C182.43 14.4521 179.771 11.5535 179.799 6.96749Z" fill="#CFE7C6"/>
<path d="M128.131 143.091C132.58 143.173 136.216 146.466 136.012 149.555C135.754 153.502 132.54 156.713 128.836 156.74C125.513 156.754 121.091 151.991 121.484 148.48C121.959 144.126 125.337 143.404 128.131 143.091Z" fill="#CFE7C6"/>
<path d="M66.0459 187.767C66.1001 182.732 67.8771 181.29 73.6556 181.276C77.2774 181.276 79.0679 184.052 78.6202 189.713C78.2811 194.027 74.7408 193.823 71.6887 193.973C67.1175 194.218 65.7068 191.605 66.0459 187.767Z" fill="#CFE7C6"/>
<path d="M62.9804 28.278C62.7498 32.2244 60.8372 34.6603 57.3375 34.6331C54.1091 34.6195 51.5183 32.5919 50.8943 29.217C50.406 26.5906 54.299 23.2702 57.3104 23.2566C60.9728 23.2294 62.2614 25.6516 62.9804 28.278Z" fill="#CFE7C6"/>
<path d="M153.198 151.95C149.916 152.141 146.728 151.801 147.027 147.732C147.23 144.928 148.329 141.635 152.086 141.731C156.006 141.826 158.584 144.806 158.936 148.154C159.289 151.488 156.061 152.223 153.198 151.95Z" fill="#C6E1BC"/>
<path d="M82.5675 21.8685C82.7032 24.8351 81.2382 26.9444 77.6164 27.1077C74.3067 27.2438 71.8244 26.2912 71.9058 22.3176C71.9736 18.6706 73.6692 16.5477 77.4672 16.4252C80.8448 16.3163 82.5811 17.9221 82.5675 21.8685Z" fill="#C6E1BC"/>
<path d="M53.4308 100.28C53.9463 101.3 54.3668 102.321 53.7564 103.45C52.0473 103.831 51.4233 105.505 50.2025 106.458C48.0728 108.118 45.9296 108.73 43.7593 106.58C42.4978 105.328 41.0328 104.049 42.6063 102.062C44.3561 99.8714 46.2687 97.7349 49.4429 98.9868C50.7586 99.5176 51.8438 100.647 53.4308 100.28Z" fill="#C6E1BC"/>
<path d="M120.06 133.947C120.901 132.599 119.572 131.96 119.111 131.034C117.836 128.49 118.31 126.503 120.766 124.856C122.99 123.359 124.916 124.162 126.368 125.673C128.43 127.809 126.395 129.388 125.079 130.994C124.699 131.456 124.591 132.123 124.36 132.695C123.356 134.6 121.81 134.627 120.06 133.947Z" fill="#C6E1BC"/>
<path d="M3.96076 98.4153C6.44308 99.0821 8.47777 100.497 8.57272 103.205C8.65411 105.981 6.63298 107.723 4.06928 107.982C1.32923 108.254 -9.92233e-05 106.213 -9.92233e-05 103.682C-0.0136638 101.123 0.922293 98.9596 3.96076 98.4153Z" fill="#C6E1BC"/>
<path d="M34.0064 133.634C33.9385 136.219 32.6635 137.702 30.0998 137.349C27.5361 136.981 24.7011 136.056 24.8231 132.953C24.9317 130.313 27.1969 128.612 29.8827 128.884C32.3786 129.143 34.4676 130.49 34.0064 133.634Z" fill="#C6E1BC"/>
<path d="M63.6857 165.586C66.0189 165.885 68.1892 166.525 68.0535 169.546C67.945 171.764 66.6157 173.438 64.4318 173.166C62.1123 172.866 59.5621 171.859 59.7656 168.757C59.9148 166.593 61.1763 165.164 63.6857 165.586Z" fill="#C6E1BC"/>
<path d="M186.54 118.569C186.554 115.752 187.164 113.888 189.769 114.119C192.468 114.364 193.648 116.16 193.526 118.841C193.445 120.502 193.404 122.543 191.179 122.311C188.819 122.039 186.079 121.536 186.54 118.569Z" fill="#C6E1BC"/>
<path d="M39.8663 167.736C39.3915 169.804 38.2928 171.587 35.7562 171.369C33.5995 171.179 32.9212 169.287 33.0569 167.45C33.2196 165.041 34.766 163.64 37.2212 163.749C39.5814 163.858 39.9206 165.627 39.8663 167.736Z" fill="#C6E1BC"/>
<path d="M117.089 5.7699C118.392 5.96041 119.45 6.6 119.165 7.9064C118.894 9.14476 117.944 10.3559 116.493 10.1926C115.204 10.0429 113.97 9.0495 114.16 7.66145C114.349 6.20536 115.923 6.05567 117.089 5.7699Z" fill="#EDF6EB"/>
<path d="M186.364 137.308C187.788 139.662 191.708 136.655 192.563 140.22C190.528 140.22 188.412 140.574 186.472 140.152C184.085 139.621 184.166 138.356 186.364 137.308Z" fill="#EDF6EB"/>
<path d="M186.771 144.289C186.662 145.255 186.54 146.221 186.432 147.187C185.455 146.929 184.614 146.548 184.912 145.296C185.143 144.302 185.97 144.302 186.771 144.289Z" fill="#EDF6EB"/>
<path d="M53.8649 105.097C53.892 105.478 53.9327 105.859 53.9598 106.254C53.2952 105.913 53.2545 105.532 53.8649 105.097Z" fill="#C6E1BC"/>
<path d="M135.741 102.321C132.445 99.8169 133.991 97.5579 136.297 95.6664C139.322 93.176 144.137 93.9109 146.674 97C148.573 99.2998 148.41 106.049 146.226 107.859C143.622 110.01 141.492 108.594 139.593 106.553C141.763 105.042 144.49 103.314 142.17 100.429C139.892 97.5715 138.386 101.028 136.623 101.981C136.351 102.103 136.039 102.198 135.741 102.321Z" fill="#C6E1BC"/>
<path d="M135.741 102.321C136.039 102.198 136.351 102.103 136.636 101.953C138.399 101.001 139.905 97.558 142.184 100.402C144.503 103.301 141.777 105.015 139.607 106.526C137.87 105.546 136.473 104.24 135.741 102.321Z" fill="#EDF6EB"/>
<path d="M129.474 89.148C129.216 91.1756 127.819 92.0329 126.178 92.2235C124.333 92.4276 123.044 91.2437 122.827 89.4746C122.597 87.583 123.668 86.6441 125.676 86.3991C128.05 86.0861 128.687 87.6102 129.474 89.148Z" fill="#C6E1BC"/>
</svg>
