<svg width="178" height="213" viewBox="0 0 178 213" fill="none" xmlns="http://www.w3.org/2000/svg">
<path d="M116.647 60.9876C118.024 56.6633 119.538 54.2431 119.538 54.2431C119.538 54.2431 82.8791 57.9136 94.5099 79.2711C111.073 86.7611 113.596 70.5767 116.647 60.9876Z" fill="#22AA22"/>
<path d="M117.771 55.5049C117.771 55.5049 115.753 56.9501 112.897 59.313C110.029 61.6644 106.336 64.9563 102.975 68.5694C101.289 70.3703 99.7058 72.2514 98.3524 74.0981C98.0082 74.5569 97.6756 75.0157 97.3774 75.4745C97.0562 75.9218 96.7695 76.3806 96.4942 76.828C96.2074 77.2638 95.9551 77.7112 95.7142 78.1356C95.4619 78.56 95.2439 78.9729 95.0489 79.3858C94.8425 79.7873 94.6475 80.1773 94.4984 80.5558C94.3378 80.9343 94.1657 81.2899 94.051 81.634C93.9249 81.9781 93.8102 82.2993 93.7069 82.586C93.6152 82.8842 93.5349 83.1595 93.4661 83.4119C93.3055 83.9051 93.2596 84.3065 93.1908 84.5818C93.1334 84.8456 93.1105 84.9948 93.1105 84.9948L91.5391 84.708C91.5391 84.708 91.5735 84.5474 91.6538 84.2492C91.7341 83.9624 91.8029 83.5036 91.9979 82.976C92.0896 82.7122 92.1814 82.414 92.2961 82.0928C92.4223 81.7831 92.5599 81.439 92.709 81.0834C92.8467 80.7164 93.0417 80.3493 93.2252 79.9593C93.4087 79.5694 93.6266 79.1564 93.856 78.755C94.0854 78.342 94.3263 77.9062 94.6016 77.4818C94.8654 77.0459 95.1522 76.5986 95.4619 76.1627C95.7601 75.7154 96.0813 75.2566 96.4254 74.8092C96.758 74.3504 97.1136 73.9031 97.4806 73.4443C98.9488 71.6205 100.635 69.7738 102.401 68.0189C105.934 64.5205 109.777 61.3662 112.747 59.1295C115.707 56.8698 117.771 55.5049 117.771 55.5049Z" fill="#4B8B00"/>
<path d="M162.262 155.187C161.444 156.679 160.028 156.166 158.75 156.328C153.161 157.041 148.005 158.728 144.294 163.347C141.794 162.639 142.597 160.296 141.97 158.666C141.571 158.128 141.054 157.689 140.459 157.383C137.983 156.237 136.724 154.056 135.731 151.68C133.782 147.037 131.454 142.513 130.979 137.381C132.575 133.907 135.213 131.308 138.073 128.889C138.397 128.932 138.758 129.041 138.843 129.364C139.794 132.876 141.267 136.288 140.972 140.052C139.314 143.288 139.314 143.288 143.306 146.995C143.484 147.063 143.678 147.081 143.866 147.046C144.054 147.01 144.229 146.924 144.37 146.795C144.66 146.648 145.054 146.491 145.259 146.724C147.345 149.152 150.386 150.682 151.826 153.709C152.301 153.89 152.61 154.712 153.252 153.98C153.095 153.158 152.501 152.645 151.959 152.079C149.155 148.857 145.857 145.997 144.356 141.805C144.018 141.235 143.586 140.736 143.258 140.161C142.64 138.46 140.858 136.958 142.308 134.886C143.258 133.399 142.54 132.643 141.12 132.196C139.86 130.376 140.611 128.224 140.117 126.275C140.031 125.139 140.806 124.374 141.367 123.552C143.776 119.945 146.062 116.286 147.478 112.147C148.17 110.306 148.481 108.343 148.39 106.378C148.466 104.891 148.39 103.432 147.483 102.158C147.792 100.88 147.592 99.5588 147.825 98.2709C148.594 97.3598 148.993 96.1928 148.942 95.0015C148.97 94.6782 149.069 94.365 149.231 94.0843C149.593 93.6091 150.134 93.6709 150.657 93.6091C151.18 93.5473 151.608 93.2052 152.126 93.3287C152.643 93.4523 153 93.6804 153.551 93.8039C153.333 92.4971 153.38 91.2805 154.654 90.5059C155.514 90.3491 155.324 91.2235 155.68 91.5609C155.547 96.7312 154.307 101.716 153.138 106.715C152.962 107.452 152.406 108.203 153.285 108.859C153.311 109.002 153.306 109.15 153.271 109.291C153.236 109.433 153.172 109.566 153.082 109.681C152.992 109.796 152.879 109.891 152.751 109.96C152.622 110.029 152.48 110.07 152.335 110.08C149.959 113.882 149.35 118.206 148.509 122.469C147.991 122.892 148.119 123.605 147.773 124.108C147.289 124.567 146.998 125.193 146.959 125.858C146.92 126.524 147.136 127.179 147.563 127.691C147.989 128.41 148.309 129.187 148.514 129.996C149.103 137.262 150.524 144.2 156.17 149.48C156.811 152.692 158.75 154.389 162.038 154.56C162.262 154.607 162.338 154.926 162.262 155.187Z" fill="#AEE959"/>
<path d="M126.183 88.6426C124.706 86.6087 123.441 87.6922 122.04 88.9562C121.127 87.2074 121.773 85.9481 123.318 85.0927C124.696 84.3324 126.169 83.7954 127.595 83.0968C129.163 82.3127 130.123 81.196 129.325 79.0338C128.536 80.9346 127.257 81.2435 125.456 80.7445C122.253 79.8606 121.849 80.0555 119.359 82.3413C118.694 81.0297 119.454 80.1885 120.386 79.5993C122.439 78.3019 122.79 76.4153 122.505 74.2389C122.443 73.5309 122.327 72.8288 122.158 72.1384C120.661 67.0489 122.634 63.3802 126.815 60.5955C130.694 58.0176 134.783 55.7699 139.038 53.876C139.936 54.9547 139.252 56.0762 139.138 57.2025C138.311 63.1711 138.32 69.1826 138.301 75.194C138.301 78.4112 138.444 81.6427 138.254 84.8504C137.959 89.7831 136.144 93.8557 131.202 95.8706C129.354 96.1972 127.452 95.8099 125.879 94.7871C125.81 94.7286 125.755 94.6559 125.717 94.5738C125.679 94.4917 125.659 94.4023 125.659 94.3119C125.659 94.2214 125.679 94.132 125.717 94.05C125.755 93.9679 125.81 93.8951 125.879 93.8367C126.497 93.3614 127.338 93.2759 128.037 92.5061C127.657 92.1116 127.029 91.8027 126.811 91.1992C126.356 90.4268 126.138 89.5378 126.183 88.6426Z" fill="#0D5523"/>
<path d="M126.183 88.6426C126.785 89.3212 127.144 90.1803 127.205 91.0852C127.205 92.7817 125.332 93.0573 124.786 94.3356C122.011 97.5623 118.855 100.423 115.866 103.445C115.373 103.962 114.735 104.318 114.037 104.467C112.678 104.643 112.473 105.646 112.416 106.748C112.52 107.048 112.533 107.371 112.454 107.678C112.374 107.985 112.206 108.262 111.969 108.473C108.976 111.595 106.932 115.297 105.426 119.322C105.368 119.511 105.273 119.686 105.147 119.837C105.02 119.988 104.865 120.112 104.689 120.201C104.319 120.482 104.285 119.218 103.805 120.016C102.327 120.9 102.769 121.917 103.582 122.986C103.798 123.585 103.78 124.244 103.53 124.83C102.061 129.582 101.415 134.482 100.626 139.362C99.4856 141.539 97.8271 143.112 95.3988 143.791C93.9732 142.765 92.576 143.967 91.1599 143.934C90.7797 143.877 90.4566 143.629 90.0622 143.634C89.2591 143.634 89.2543 144.684 88.5415 144.818C88.0235 144.722 87.3962 144.818 87.591 143.905C88.4464 139.785 89.2638 135.655 90.0954 131.55L90.3235 131.74C90.6942 132.153 90.4423 132.856 90.9936 133.165C92.3764 132.115 90.8415 131.697 90.5564 131.017C92.9324 122.231 97.5373 114.632 103.273 107.67C107.484 102.631 112.454 98.2782 118.005 94.7681C120.88 92.9147 123.474 90.6907 126.183 88.6426Z" fill="#AEE95A"/>
<path d="M133.714 162.485C132.065 161.625 130.696 162.623 129.28 163.188C126.362 164.357 124.024 166.629 120.969 167.532C120.588 167.435 120.246 167.223 119.991 166.924C119.736 166.626 119.579 166.255 119.543 165.864C118.873 162.1 117.932 158.375 117.775 154.53C118.137 152.915 119.315 151.793 120.379 150.7C122.841 148.184 125.044 145.429 126.956 142.474C127.214 141.985 127.618 141.588 128.111 141.339C128.404 141.319 128.694 141.404 128.931 141.578C129.167 141.752 129.335 142.004 129.404 142.289C129.285 143.767 129.983 145.002 130.601 146.267C131.418 150.372 133.181 154.174 134.479 158.123C134.911 159.449 135.7 160.694 135.505 162.181C135.039 163.003 134.331 162.49 133.714 162.485Z" fill="#AEE95A"/>
<path d="M128.221 141.539C125.574 146.352 121.568 150.092 118.104 154.25C117.586 155.894 116.075 156.721 115.063 157.962C113.637 159.059 112.939 160.927 111.104 161.554C110.244 163.669 109.417 165.793 108.519 167.893C107.806 169.547 104.242 171.514 102.484 171.319C101.719 171.239 101.686 170.683 101.6 170.146C101.31 168.288 101.477 166.653 102.883 165.109C105.174 162.595 108.182 160.832 110.178 158.038C110.838 154.901 113.181 152.634 114.455 149.807C115.657 147.806 116.621 145.682 117.724 143.629C119.429 140.538 121.532 137.683 123.978 135.138C124.591 134.472 125.17 133.365 126.453 134.021C126.891 135.332 126.387 136.568 126.14 137.822C125.527 138.345 125.023 138.911 125.46 139.795C125.518 139.942 125.623 140.066 125.759 140.148C125.895 140.23 126.054 140.264 126.211 140.246C127.342 140.089 126.748 138.887 127.318 138.378C128.164 137.875 129.034 137.509 130.022 137.998C130.673 139.814 129.433 140.669 128.221 141.539Z" fill="#46A224"/>
<path d="M95.4129 143.79C96.962 142.365 98.8058 141.286 100.117 139.599C101.111 137.641 103.092 136.748 104.627 135.351C107.478 132.39 111.104 130.632 114.606 128.617C115.348 128.356 116.032 127.71 116.902 128.223C117.477 129.378 116.83 130.257 116.255 131.155C115.961 131.559 115.481 131.63 115.062 131.825C114.502 132.091 113.808 132.424 114.392 133.179C114.481 133.311 114.598 133.421 114.736 133.5C114.873 133.58 115.026 133.628 115.185 133.639C115.343 133.651 115.502 133.627 115.649 133.569C115.797 133.511 115.929 133.42 116.037 133.303C116.445 132.951 116.54 132.324 117.092 132.086C118.13 131.727 119.261 131.742 120.29 132.129C121.197 133.108 120.233 133.664 119.753 134.267C119.13 134.973 118.41 135.588 117.614 136.092C116.455 136.981 115.238 137.765 114.022 138.606C110.586 140.806 106.613 141.961 103.178 144.166C102.075 144.684 100.992 145.235 99.913 145.786C98.4874 146.547 97.1094 147.497 95.4176 147.687C93.6356 149.469 91.8774 151.275 90.0621 153.024C89.2405 153.873 88.32 154.622 87.3202 155.252C86.6265 155.65 85.8327 155.838 85.0343 155.795C84.2359 155.752 83.467 155.48 82.82 155.01C81.8411 154.288 83.0576 153.019 83.2477 151.988C83.6041 150.006 84.8776 148.932 86.7927 148.324C89.891 147.321 93.1794 146.537 95.4129 143.79Z" fill="#46A224"/>
<path d="M102.879 143.768C106.263 141.344 110.335 140.27 113.861 138.137C115.211 138.36 115.025 139.496 115.04 140.351C115.078 143.583 115.296 146.819 114.84 150.041C113.457 152.804 111.9 155.477 110.178 158.043C107.95 157.292 105.688 157.796 103.445 157.896C101.805 157.972 100.166 158.433 98.5645 157.71C98.6482 157.58 98.7525 157.465 98.8733 157.368C99.7429 156.522 101.587 157.9 101.986 155.985C102.252 154.726 102.043 153.471 101.986 152.217C102.529 150.899 102.578 149.429 102.124 148.078C102.376 146.638 102.295 145.141 102.879 143.768Z" fill="#AEE95A"/>
<path d="M128.223 141.539C128.655 140.303 129.881 139.486 130.033 138.108C130.005 137.157 130.665 137.076 131.368 137.053C132.452 143.311 135.08 149.004 137.869 154.635C138.482 155.871 140.036 156.161 140.963 157.125C138.587 159.05 138.682 159.976 141.4 161.559C142.265 160.57 141.319 159.036 142.374 158.128C143.301 159.763 142.426 162.063 144.275 163.355C143.8 164.177 143.396 165.028 142.883 165.817C140.35 169.694 138.211 169.647 135.826 165.688C135.983 164.538 134.952 163.602 135.241 162.429C134.087 159.021 133.055 155.562 131.73 152.221C130.955 150.264 130.393 148.23 130.052 146.153C130.314 144.808 130.599 143.458 129.135 142.551L128.223 141.539Z" fill="#A0D749"/>
<path d="M138.572 56.9786C138.734 55.9426 138.891 54.9114 139.047 53.8755C141.105 47.1324 144.18 40.7504 146.095 33.9598C146.244 34.0613 146.355 34.2104 146.41 34.3829C146.464 34.5554 146.458 34.7412 146.394 34.9102C146.313 34.568 146.622 33.86 146.209 33.1804C146.408 31.5457 148.51 27.9912 149.418 28.1717C150.326 28.3522 149.352 31.7656 149.418 32.4689C149.527 33.6854 151.167 33.3658 150.373 33.9598C146.69 36.7255 146.689 42.0667 145.852 45.9064C145.524 47.4223 145.753 49.057 145.724 50.6584C146.271 51.8939 145.662 53.0344 145.467 54.2319C145.41 54.8489 145.306 55.4606 145.154 56.0614C144.84 56.874 144.835 57.891 143.728 58.1951C141.989 57.9527 140.045 58.4897 138.572 56.9786Z" fill="#4CB428"/>
<path d="M161.932 57.8911C164.655 53.581 168.076 49.6463 169.25 44.4904C169.421 43.7396 170.434 40.8308 169.949 40.1085C168.647 38.1744 171.094 39.1372 171.735 37.7211C172.282 36.5236 172.512 34.1506 173.291 34.3787C174.47 34.7541 174.919 38.7119 174.463 40.3419C173.879 42.4233 172.334 43.9439 171.735 46.0443C169.892 52.5641 167.934 59.0648 164.793 65.1284C163.053 65.1569 162.046 64.0545 161.162 62.7524C161.559 61.1573 161.816 59.5307 161.932 57.8911Z" fill="#4CB428"/>
<path d="M154.799 90.667C153.849 91.8741 153.065 93.1001 154.99 94.5114C153.431 94.6635 152.576 94.2643 151.848 93.5135C151.292 93.0383 151.292 93.0383 150.898 94.4401L149.51 93.8842C148.878 93.7844 148.65 93.2664 148.365 92.8007C147.912 92.2922 147.648 91.6424 147.619 90.9617C147.771 89.5123 148.878 88.8755 149.995 88.3053C152.01 87.2646 153.322 85.7677 153.388 83.4155C153.583 80.9587 154.006 78.5969 155.978 76.8387C156.543 76.3349 156.928 75.5271 157.879 75.7599C159.076 77.599 160.73 79.1339 161.68 81.1487C163.353 84.6842 162.479 87.8016 159.304 89.5598L160.336 86.8369C160.26 86.7088 160.219 86.5629 160.217 86.414C160.219 86.1395 160.281 85.8688 160.397 85.6204C160.164 85.801 160.188 86.1574 159.922 86.3189C159.295 88.1532 157.366 88.31 156.092 89.308C155.769 89.8544 155.479 90.4484 154.799 90.667Z" fill="#0E5523"/>
<path d="M144.85 54.0992C145.144 52.9397 145.437 51.7818 145.729 50.6255C150.31 47.0329 154.501 48.7959 158.616 51.5759C159.334 53.3912 158.141 53.6763 156.839 53.6288C155.128 53.567 153.513 52.9872 151.925 52.379C154.819 53.3294 157.628 54.755 160.835 54.1182C161.677 55.273 161.258 56.6225 161.406 57.8818C161.406 58.97 160.531 58.8322 159.899 58.9415C159.267 59.0508 158.407 58.856 157.789 59.1506C155.974 60.0107 154.9 59.3027 153.831 57.8153C152.667 56.1948 150.842 55.5771 148.908 55.2539C147.52 55.0068 146.047 55.0211 144.85 54.0992Z" fill="#0F5523"/>
<path d="M157.894 75.7591C155.632 77.7502 153.764 79.9504 153.959 83.234C152.966 82.6495 153.113 81.6373 153.094 80.7345C153.047 78.7909 152.999 76.8426 153.142 74.9037C153.337 73.8345 153.817 72.8033 153.57 71.6676C153.859 70.4986 154.696 69.6337 155.29 68.6311C155.817 67.866 156.335 67.0914 156.829 66.3026C157.271 65.7228 157.519 65.0243 157.951 64.4398C159.011 63.7982 159.804 62.6483 161.235 62.7243L164.765 65.1431C162.869 68.9114 159.942 72.0573 157.894 75.7591Z" fill="#BD6F20"/>
<path d="M114.774 157.624L118.1 154.25C118.742 157.904 119.445 161.549 120.001 165.218C120.131 166.053 120.457 166.846 120.951 167.532C120.304 168.104 119.55 168.541 118.732 168.82C114.417 170.383 112.673 169.342 112.018 164.766C112.749 162.3 114.992 160.437 114.774 157.624Z" fill="#A0D749"/>
<path d="M161.243 62.7335L158.288 64.6011C158.079 64.6129 157.869 64.6129 157.66 64.6011C156.832 64.4443 156.079 64.0183 155.517 63.3893C155.365 63.2562 155.213 63.1184 155.042 62.9949C151.853 63.4701 148.912 63.0899 146.531 60.6474C146.23 60.3275 145.962 59.9772 145.733 59.6019C145.338 59.0752 145.018 58.4962 144.782 57.8817C144.835 57.2449 144.307 56.6367 144.678 55.9809C144.73 55.3536 144.778 54.7264 144.83 54.0801C147.681 54.465 151.008 53.9233 153.003 56.1852C154.999 58.4472 157.009 59.0032 159.723 58.3331C160.288 58.1953 160.982 58.5565 161.386 57.8579L161.913 57.8864C163.144 59.7065 162.36 61.2366 161.243 62.7335Z" fill="#DBFEA2"/>
<path d="M102.879 143.768C103.214 145.197 103.081 146.697 102.498 148.044C102.38 148.229 102.194 148.358 101.98 148.406C99.6329 149.137 99.4476 149.565 100.227 152.478C101.139 152.901 101.557 151.404 102.475 151.908C102.695 152.735 102.835 153.582 102.893 154.436C102.826 157.482 102.783 157.482 98.5637 157.691C95.7885 157.396 95.7125 155.448 95.874 153.329C96.967 150.58 98.2271 147.902 99.6471 145.307L102.879 143.768Z" fill="#9FD749"/>
<path d="M158.059 173.365C156.733 173.065 155.659 172.253 154.566 171.526C152.038 169.839 151.9 168.76 153.711 166.132C153.863 166.066 154.063 165.994 154.153 166.075C156.287 168.057 158.05 170.243 158.059 173.365Z" fill="#3D9A1B"/>
<path d="M162.261 155.186C162.07 155.052 161.858 154.951 161.634 154.886C156.701 154.368 156.644 154.316 156.197 149.512L157.1 149.55C159.543 150.619 161.263 152.62 163.211 154.326L163.544 155.119L162.261 155.186Z" fill="#3B9A17"/>
<path d="M160.835 54.0999C160.407 54.4136 160.203 55.0503 159.528 54.9981C156.131 54.6749 152.971 53.734 150.338 51.3438C152.277 51.9045 154.197 52.5318 156.154 52.9975C157.314 53.2731 158.64 53.4727 158.616 51.5718C159.147 51.8071 159.621 52.1551 160.004 52.5917C160.387 53.0282 160.671 53.5428 160.835 54.0999Z" fill="#45784D"/>
<path d="M73.8477 146.164C74.033 145.095 74.1613 144.011 74.4179 142.956C75.0689 140.233 75.8435 139.758 78.7327 140.153C79.973 141.041 78.9894 141.854 78.5094 142.476C77.2951 144.088 75.9 145.555 74.3514 146.848C73.957 146.786 73.7241 146.611 73.8477 146.164Z" fill="#3B9919"/>
<path d="M74.4316 146.682C75.0304 145.175 76.3324 144.249 77.3399 143.065C78.0384 142.238 79.1789 141.554 78.7322 140.152C80.7186 141.283 80.8944 143.84 79.0459 145.123C77.8151 145.978 76.3752 146.344 74.9591 146.758C74.923 146.795 74.8785 146.824 74.8293 146.841C74.78 146.858 74.7274 146.862 74.6759 146.855C74.6243 146.848 74.5752 146.828 74.5328 146.798C74.4903 146.768 74.4556 146.728 74.4316 146.682Z" fill="#4BB328"/>
<path d="M158.061 173.365C157.161 170.664 155.676 168.194 153.713 166.132C156.512 165.21 157.99 165.966 158.327 168.684C158.44 170.24 158.457 171.802 158.379 173.36C158.379 173.398 158.299 173.479 158.265 173.469C158.192 173.445 158.123 173.41 158.061 173.365Z" fill="#51B62F"/>
<path d="M99.6467 145.326C99.0791 148.273 97.7819 151.031 95.8736 153.348C95.5125 151.471 96.1493 149.508 95.3984 147.645L99.6467 145.326Z" fill="#87B431"/>
<path d="M163.211 154.327C160.744 153.281 158.934 151.381 157.1 149.551C159.804 148.23 160.939 148.577 162.141 151.205C162.593 152.203 162.859 153.281 163.211 154.327Z" fill="#4EB42C"/>
<path d="M114.774 157.625C114.949 158.19 115.809 158.504 115.415 159.274C114.436 161.175 113.614 163.209 112.036 164.767C111.561 163.736 111.789 162.515 111.086 161.555C112.34 160.258 113.281 158.685 114.774 157.625Z" fill="#88B634"/>
<path d="M96.7685 111.054L96.1175 111.206C95.9982 109.695 96.4797 108.197 97.4575 107.038C98.3367 105.874 99.5247 106.359 100.594 106.953C100.542 109.21 98.503 109.714 97.1582 110.831C97.0679 110.926 96.8873 110.949 96.7685 111.054Z" fill="#439F20"/>
<path d="M148.543 130.029C147.972 129.212 147.383 128.404 146.837 127.568C145.886 126.099 145.929 124.807 147.564 123.833C147.724 123.726 147.911 123.667 148.103 123.661C148.295 123.655 148.485 123.703 148.652 123.799L148.623 123.823C149.602 125.79 149.151 127.758 148.623 129.72C148.639 129.774 148.64 129.832 148.626 129.886C148.612 129.94 148.583 129.99 148.543 130.029Z" fill="#3E9B18"/>
<path d="M82.5244 132.852C82.3053 132.879 82.0847 132.893 81.8639 132.895C81.4552 130.267 83.9786 127.872 86.3261 128.641C86.136 131.036 84.3397 131.944 82.5244 132.852Z" fill="#3F9D1C"/>
<path d="M172.787 167.612C172.848 167.655 172.907 167.701 172.963 167.75C171.889 169.489 170.197 168.729 168.848 168.515C167.498 168.301 167.284 166.989 167.574 165.73C167.574 165.668 167.869 165.673 168.021 165.645C169.807 165.82 171.314 166.671 172.787 167.612Z" fill="#3C9B19"/>
<path d="M172.787 167.614C171.055 167.402 169.413 166.723 168.035 165.651C168.986 164.078 170.103 164.358 171.234 165.385C171.93 165.986 172.464 166.752 172.787 167.614Z" fill="#4FB42B"/>
<path d="M148.613 129.739C148.722 127.776 148.19 125.809 148.613 123.842C150.381 124.35 150.804 125.481 150.039 127.078C149.63 127.971 149.098 128.836 148.613 129.739Z" fill="#4FB42D"/>
<path d="M96.7676 111.054C97.7655 109.429 99.7281 108.706 100.598 106.962C100.717 106.748 101.073 106.335 101.073 106.691C101.292 109.937 100.536 110.655 96.7676 111.054Z" fill="#4FB72E"/>
<path d="M82.5254 132.851C83.8369 131.487 85.4004 130.351 86.327 128.641C87.4057 130.841 87.0873 131.81 85.0059 132.442C84.1888 132.632 83.3602 132.768 82.5254 132.851Z" fill="#4CB42A"/>
<path d="M77.7488 155.311C79.2837 156.19 78.9179 157.316 78.0292 158.357C77.378 159.015 76.6757 159.62 75.9288 160.167C75.7416 160.034 75.5969 159.85 75.5125 159.637C75.4281 159.423 75.4077 159.19 75.4536 158.965C75.4881 158.742 75.5471 158.524 75.6295 158.314C76.3375 157.302 75.9621 155.553 77.7488 155.311Z" fill="#4EB42B"/>
<path d="M158.511 104.976C160.659 106.206 160.735 106.986 158.987 109.979C157.979 109.376 158.065 108.254 157.713 107.333C157.621 107.002 157.581 106.659 157.594 106.316C157.588 106.024 157.673 105.738 157.837 105.498C158.002 105.258 158.238 105.075 158.511 104.976Z" fill="#50B52E"/>
<path d="M164.612 162.372C162.712 162.249 161.319 162.577 160.982 160.814C160.849 160.125 161.315 159.778 161.904 159.702C163.786 159.455 163.529 161.18 164.612 162.372Z" fill="#51B22E"/>
<path d="M158.061 106.325V107.276C158.441 109.176 158.441 109.176 157.557 109.652C156.455 108.326 154.901 107.062 156.968 105.303C157.994 104.957 157.638 106.054 158.061 106.325Z" fill="#3E9A1C"/>
<path d="M151.435 132.837C152.927 133.702 152.039 134.871 151.678 136.059C151.088 135.08 148.708 135.194 150.076 133.042C150.452 132.467 150.946 132.657 151.435 132.837Z" fill="#3F9D19"/>
<path d="M170.249 156.651C168.852 156.518 167.569 156.841 167.075 155.334C166.937 154.931 166.923 154.384 167.626 154.289C169.332 154.061 169.627 155.311 170.249 156.651Z" fill="#469F28"/>
<path d="M91.1699 118.719C91.5501 117.474 91.5168 116.01 93.2275 116.015C94.1019 116.015 94.1779 116.884 93.9784 117.44C93.5364 118.738 92.415 118.809 91.1699 118.719Z" fill="#479B27"/>
<path d="M77.7496 155.311C76.4713 156.033 77.0463 157.81 75.8488 158.59C74.4707 157.986 75.136 156.727 74.9316 155.738C75.7157 154.522 76.6566 154.408 77.7496 155.311Z" fill="#409C1E"/>
<path d="M165.7 145.745C166.109 146.31 166.199 146.767 165.282 146.743C164.28 146.714 163.196 146.743 162.878 145.46C162.74 144.894 162.835 144.338 163.557 144.253C163.941 144.246 164.325 144.28 164.703 144.353C164.877 144.912 165.227 145.4 165.7 145.745Z" fill="#5BAD3D"/>
<path d="M135.259 162.419C135.948 163.417 136.775 164.391 135.844 165.679C135.134 164.615 134.424 163.55 133.715 162.486C134.204 161.821 134.746 162.476 135.259 162.419Z" fill="#90BB3B"/>
<path d="M85.3003 139.315C86.2507 138.707 87.2011 139.001 87.3437 139.928C87.5575 141.163 86.6784 141.876 85.3811 141.895C84.9392 141.049 85.1483 140.194 85.3003 139.315Z" fill="#4FB52E"/>
<path d="M74.8403 151.884C74.902 150.843 74.0894 149.627 75.6386 149.099C76.0615 148.957 76.8076 148.814 76.8884 149.679C77.0214 151.086 76.033 151.509 74.8403 151.884Z" fill="#49A126"/>
<path d="M158.506 95.3195C157.997 95.5096 158.221 96.5693 157.513 96.3459C156.805 96.1226 156.676 95.31 156.6 94.6589C156.477 93.5945 157.161 93.3616 158.059 93.4614C158.682 93.9651 159.081 94.5259 158.506 95.3195Z" fill="#3D991E"/>
<path d="M90.5664 131.004C91.4741 130.871 92.1583 131.246 92.2771 132.13C92.4387 133.346 91.4693 133.822 90.5522 134.259C89.9867 133.389 90.8135 132.425 90.3621 131.545L90.2338 131.512H90.1055L90.5664 131.004Z" fill="#59B62D"/>
<path d="M151.74 120.924C152.334 119.893 152.89 120.491 153.327 121.028C154.116 121.979 153.536 122.701 152.79 123.343C151.716 122.858 151.911 121.808 151.74 120.924Z" fill="#5FB841"/>
<path d="M88.5547 144.817C88.7305 143.9 88.7875 142.888 90.1371 142.983C91.5199 144.185 89.6951 144.789 89.6286 145.715C88.1127 146.799 88.7163 145.354 88.5547 144.817Z" fill="#4AA31D"/>
<path d="M74.9173 134.287C73.4917 133.241 74.9791 132.566 75.3925 132.153C76.2146 131.364 76.9084 131.958 77.2553 132.918C76.6327 133.655 75.6824 133.83 74.9173 134.287Z" fill="#459B22"/>
<path d="M150.41 163.355C150.648 163.982 150.619 164.515 149.778 164.177C148.828 163.783 147.331 163.645 148.106 161.915C149.526 161.345 149.726 162.742 150.41 163.355Z" fill="#3C9819"/>
<path d="M152.344 110.113L153.294 108.892C153.603 108.626 153.712 108.892 153.826 109.106C153.955 110.056 154.178 111.007 153.774 111.957C152.192 112.18 152.928 110.641 152.344 110.113Z" fill="#39961E"/>
<path d="M89.6293 145.715C88.7121 144.603 91.0549 144.095 90.1377 142.983C90.8933 142.855 90.9978 143.434 91.1737 143.933C91.1689 144.969 90.5987 145.516 89.6293 145.715Z" fill="#4FB533"/>
<path d="M150.41 163.355C149.27 163.469 149.184 161.891 148.105 161.929C149.769 161.04 150.082 161.235 150.41 163.355Z" fill="#52B530"/>
<path d="M153.769 111.947C153.617 110.997 153.294 110.046 153.821 109.096C155.87 110.089 154.658 111.016 153.769 111.947Z" fill="#4FAE2A"/>
<path d="M157.576 109.656C158.641 109.048 157.514 107.979 158.08 107.28C158.759 108.06 158.603 109.115 158.988 109.994C158.089 111.733 157.928 110.288 157.576 109.656Z" fill="#409F1F"/>
<path d="M151.739 120.924C152.728 121.451 152.181 122.649 152.789 123.343C152.49 123.566 152.21 124.265 151.839 123.471C151.468 122.677 150.537 121.817 151.739 120.924Z" fill="#379511"/>
<path d="M74.9554 155.748C75.768 156.527 75.1408 157.777 75.8726 158.599C75.8121 158.665 75.7386 158.717 75.6568 158.753C75.575 158.789 75.4867 158.808 75.3974 158.808C75.3081 158.808 75.2197 158.789 75.138 158.753C75.0562 158.717 74.9827 158.665 74.9222 158.599C74.561 157.635 74.2569 156.684 74.9554 155.748Z" fill="#289305"/>
<path d="M74.918 134.286C75.4502 133.407 76.1582 132.817 77.294 132.917C77.2797 134.742 75.9444 134.253 74.918 134.286Z" fill="#52B232"/>
<path d="M159.941 86.3187L159.898 84.0234C160.112 84.09 160.402 84.0852 160.516 84.2278C161.148 85.0309 160.797 85.834 160.459 86.6323C160.427 86.7028 160.391 86.7711 160.35 86.8366L159.941 86.3187Z" fill="#DBFEA2"/>
<path d="M74.9223 158.584H75.8727L75.9297 160.162C74.257 160.499 75.1646 159.173 74.9223 158.584Z" fill="#409C1E"/>
<path d="M154.801 90.6677C154.915 90.3635 155.09 90.086 155.316 89.8522C155.541 89.6185 155.812 89.4334 156.112 89.3086C155.97 90.0737 155.822 90.834 155.68 91.5943L154.801 90.6677Z" fill="#A7E15B"/>
<path d="M165.701 145.744C164.784 145.701 164.185 145.426 164.703 144.352C165.449 144.518 165.582 145.126 165.701 145.744Z" fill="#5CB43E"/>
<path d="M146.214 33.167C146.988 33.8988 146.551 34.7304 146.332 35.543C146.256 35.0108 146.18 34.4786 146.1 33.9511L146.214 33.167Z" fill="#3CB014"/>
<path d="M148.651 123.799L147.562 123.833C147.634 123.215 147.591 122.507 148.513 122.502C148.56 122.934 148.608 123.367 148.651 123.799Z" fill="#7ACA3E"/>
<path d="M151.435 132.838L150.076 133.043C150.157 132.762 150.166 132.306 150.338 132.23C150.879 131.993 151.183 132.42 151.435 132.838Z" fill="#C0E2B4"/>
<path d="M74.4322 146.68L74.9597 146.756C74.5462 147.055 74.1518 147.659 73.6006 147.17C73.3202 146.918 73.5008 146.442 73.8477 146.162L74.4322 146.68Z" fill="#90C680"/>
<path d="M158.06 106.325L156.986 105.308C157.381 104.686 157.937 104.833 158.512 104.976C158.369 105.427 158.212 105.874 158.06 106.325Z" fill="#409F1F"/>
<path d="M85.3006 139.314C85.3006 140.175 85.3528 141.035 85.3813 141.895C85.073 141.54 84.8966 141.089 84.8819 140.619C84.8671 140.149 85.015 139.688 85.3006 139.314Z" fill="#5CA941"/>
<path d="M158.507 95.319C158.547 94.6689 158.391 94.0219 158.061 93.4609C159.32 93.8126 159.391 94.4494 158.507 95.319Z" fill="#58B236"/>
<path d="M153.725 74.0205L153.967 83.2394C154.006 85.9861 152.694 87.7776 150.166 88.823C149.182 89.2317 148.099 89.7117 148.061 91.0755C147.88 92.7672 148.422 94.4019 148.379 96.0984C148.379 96.8682 148.607 97.6523 148.118 98.3603C147.894 99.5483 149.301 100.964 147.643 101.953C146.008 103.702 143.76 103.654 141.76 103.464C139.485 103.284 137.278 102.604 135.297 101.471C133.316 100.338 131.611 98.7807 130.302 96.911C130.098 96.1221 130.488 95.6707 131.167 95.3856C135.416 93.2567 137.345 89.6404 137.587 85.0689C137.754 81.8376 137.649 78.5919 137.668 75.351C139.02 73.3345 140.694 71.554 142.624 70.0811C144.221 71.4621 145.292 73.3522 145.656 75.4318C145.59 76.2254 145.114 76.9002 144.991 77.6795C144.715 79.3618 145.499 80.7161 146.892 80.9584C148.626 81.2626 149.962 80.2836 150.275 78.5016C150.422 77.6415 149.962 76.7862 150.275 75.926C151.207 74.9471 151.948 73.5358 153.725 74.0205Z" fill="#DBFEA2"/>
<path d="M131.369 137.052L130.033 138.107L127.424 138.639C127.058 138.801 127.424 137.917 126.826 138.259C126.46 138.478 125.932 138.63 125.742 137.946L126.156 133.83C125.68 132.058 126.631 130.594 127.144 129.031C128.037 127.277 128.793 125.467 129.52 123.637C131.236 119.836 132.804 115.996 135.161 112.541C135.668 111.655 136.335 110.871 137.128 110.227C140.355 108.659 143.729 107.457 147.074 106.188C147.749 105.936 148.424 105.784 149.065 106.288C149.217 112.19 146.261 116.946 143.363 121.713C142.412 123.248 141.391 124.726 140.402 126.232C140.273 126.855 140.001 127.44 139.609 127.941C139.217 128.442 138.714 128.846 138.14 129.121L131.369 137.052Z" fill="#227465"/>
<path d="M149.05 106.287C144.944 107.275 141.233 109.328 137.232 110.607C136.514 110.953 135.873 110.711 135.241 110.359C132.365 106.878 129.77 103.175 127.48 99.2825C128.051 97.9376 128.165 96.0653 130.455 96.7211C133.392 99.5011 136.414 102.086 140.648 102.704C143.062 103.056 145.339 102.609 147.62 101.958C149.815 102.842 148.708 104.8 149.05 106.287Z" fill="#4CB427"/>
<path d="M138.121 129.122C138.708 128.039 139.473 127.062 140.383 126.232C141.671 127.976 140.435 130.167 141.405 131.968C141.485 132.029 141.551 132.106 141.598 132.195C141.646 132.283 141.674 132.381 141.68 132.481C141.621 132.772 141.644 133.074 141.745 133.353C141.847 133.633 142.023 133.878 142.255 134.064C142.526 134.449 143.206 134.639 142.835 135.318C141.514 135.984 142.431 136.896 142.65 137.652C142.961 138.506 143.331 139.338 143.757 140.142C143.196 140.66 142.545 140.617 141.856 140.446C141.49 140.004 140.939 140.275 140.497 140.108C140.265 136.347 139.464 132.643 138.121 129.122Z" fill="#9FD649"/>
<path d="M144.815 141.467C146.217 145.744 149.81 148.467 152.357 151.921C152.341 152.207 152.268 152.486 152.143 152.743C151.915 153.257 151.915 153.874 151.444 154.274C150.019 151.113 146.916 149.488 144.739 147.017C144.706 146.974 144.464 147.117 144.321 147.174C143.818 145.226 143.665 143.287 144.815 141.467Z" fill="#9FD749"/>
<path d="M140.515 140.108C140.843 140.108 141.09 139.509 141.465 139.984C143.228 142.008 143.537 144.56 143.979 147.055C144.05 147.454 143.86 147.815 143.314 147.663C142.544 147.003 141.741 146.38 141.014 145.677C138.695 143.415 138.647 142.759 140.515 140.108Z" fill="#3C9B17"/>
<path d="M142.374 158.12V162.91C140.473 161.827 138.572 161.285 138.572 158.975C138.572 157.488 139.622 157.022 140.977 157.117L142.374 158.12Z" fill="#3D9916"/>
<path d="M143.328 147.664C143.803 145.406 142.239 143.615 141.902 141.538C141.789 141.012 141.643 140.493 141.465 139.984L143.741 140.136C144.093 140.583 144.449 141.025 144.801 141.467C144.768 143.368 144.91 145.321 144.326 147.169C144.183 147.749 144.14 148.514 143.328 147.664Z" fill="#4CB427"/>
<path d="M148.124 98.3747C147.682 95.9512 146.775 93.5276 148.067 91.0898C148.001 91.8312 148.808 92.0735 148.979 92.677C148.143 93.6607 149.455 94.2594 149.421 95.091C149.859 96.5119 149.683 97.7094 148.124 98.3747Z" fill="#185D24"/>
<path d="M141.395 153.375C140.05 152.767 138.915 152.377 139.143 150.871C139.161 150.732 139.213 150.6 139.292 150.485C139.371 150.371 139.476 150.276 139.599 150.209C139.722 150.143 139.858 150.106 139.998 150.102C140.137 150.098 140.276 150.127 140.402 150.186C141.975 150.785 141.215 152.073 141.395 153.375Z" fill="#389813"/>
<path d="M141.419 132.44C141.419 132.282 141.419 132.123 141.419 131.965C143.667 132.202 143.942 132.849 142.845 135.315C142.536 134.992 142.232 134.669 141.923 134.365C141.823 133.695 141.362 133.134 141.419 132.44Z" fill="#4AAD22"/>
<path d="M150.917 94.4407C151.183 93.3525 149.634 92.3878 150.794 91.1143C151.535 91.7795 151.606 92.6967 151.849 93.5235L150.917 94.4407Z" fill="#90CE50"/>
<path d="M151.445 154.288C151.388 153.608 151.098 152.862 151.882 152.387C152.646 152.876 153.294 153.524 153.783 154.288C153.897 154.691 154.22 155.262 153.336 154.996C152.695 154.825 152.077 154.535 151.445 154.288Z" fill="#3B9C16"/>
<path d="M153.788 154.314C152.965 153.862 151.887 153.643 151.887 152.413L152.362 151.938C153.398 152.389 153.954 153.135 153.788 154.314Z" fill="#4BB125"/>
<path d="M149.421 95.0771C148.946 94.331 147.249 93.8131 148.979 92.6631L149.53 93.8844C149.492 94.2835 149.459 94.6779 149.421 95.0771Z" fill="#A1D84A"/>
<path d="M130.464 96.7209C128.825 96.7209 128.602 98.3556 127.613 99.1255C126.342 101.708 124.795 104.146 122.999 106.396C120.808 108.544 120.148 111.476 119.254 114.208C117.829 118.395 116.56 122.638 115.885 127.039C115.703 127.806 115.33 128.516 114.802 129.101C111.328 131.126 107.802 133.069 104.775 135.754C102.874 136.177 103.615 134.718 103.682 134.039C104.081 129.867 104.95 125.755 106.272 121.778C108.001 116.551 110.81 111.927 113.965 107.437C116.878 103.217 120.105 99.2218 123.617 95.4854C124.215 94.8581 124.638 93.7272 125.888 94.3782C127.537 95.2193 129.357 95.1718 131.115 95.3856C130.873 95.8038 130.393 96.1222 130.464 96.7209Z" fill="#AEE95A"/>
<path d="M125.907 94.3787C123.607 94.968 122.771 97.1825 121.426 98.7079C117.752 102.904 114.587 107.514 111.537 112.199C106.998 119.156 105.192 126.978 104.085 135.043C104.004 135.599 104.389 135.684 104.793 135.756L100.117 139.6C100.548 134.627 101.459 129.708 102.84 124.911C103.011 124.317 103.734 123.676 103.002 122.977C102.655 122.654 102.926 122.402 103.102 122.145C103.857 121.67 104.052 120.796 104.451 120.083C106.243 115.597 108.253 111.23 111.831 107.827C112.425 107.267 111.465 107.124 111.579 106.706C111.86 106.568 112.145 106.435 112.43 106.311C112.981 105.993 113.813 106.007 113.856 105.095C113.818 104.729 113.642 104.363 113.827 103.992C114.987 103.902 115.566 102.975 116.27 102.263C118.974 99.5158 121.644 96.7406 124.348 93.9748C124.971 93.7895 125.56 92.5254 126.249 93.913L125.907 94.3787Z" fill="#A0D749"/>
<path d="M142.502 70.3372C141.21 72.3283 139.722 74.1388 137.655 75.3744C137.333 69.2353 137.64 63.0795 138.572 57.0031C140.283 57.559 142.189 56.9698 143.828 57.9059C144.064 58.1211 144.24 58.3932 144.34 58.6961C144.439 58.9991 144.46 59.3227 144.398 59.6357C143.856 62.4251 144.27 65.2906 143.662 68.0705C143.305 68.8166 143.072 69.6529 142.502 70.3372Z" fill="#BD6F20"/>
<path d="M126.221 93.9124C125.565 93.1426 124.967 94.131 124.32 93.9742C124.981 92.7149 126.397 92.2112 127.172 91.085C127.528 91.7883 128.265 91.9973 128.939 92.3252C128.25 93.3469 127.48 94.0692 126.221 93.9124Z" fill="#A4E053"/>
<path d="M95.7258 123.818C97.2702 122.868 97.7834 124.241 98.4725 125.073C98.8495 125.481 99.0589 126.017 99.0589 126.572C99.0589 127.128 98.8495 127.663 98.4725 128.072C97.376 129.495 96.018 130.697 94.4713 131.612C93.9675 130.348 94.514 129.236 94.9465 128.091C95.4312 126.712 96.1155 125.368 95.7258 123.818Z" fill="#4DB428"/>
<path d="M95.7263 123.818C96.8811 124.023 96.7053 124.674 96.4724 125.572C95.9354 127.634 94.6904 129.454 94.4576 131.612C92.1243 128.238 92.6946 124.745 95.7263 123.818Z" fill="#3D9B18"/>
<path d="M103.402 122.45L103.003 122.977C101.634 120.953 101.767 120.468 103.896 119.741C104.443 120.772 103.915 121.614 103.402 122.45Z" fill="#399914"/>
<path d="M95.7741 138.094C94.6336 138.935 94.6193 137.833 94.5481 137.277C94.3817 136.027 94.9995 135.343 96.3016 135.376C97.0334 136.445 96.1495 137.225 95.7741 138.094Z" fill="#47A01A"/>
<path d="M113.827 103.992L114.411 104.89C113.936 105.694 113.047 106.074 112.434 106.739L111.574 106.706C112.273 105.751 111.741 103.788 113.827 103.992Z" fill="#409B17"/>
<path d="M103.4 122.449C103.565 121.547 103.724 120.644 103.876 119.741C104.517 119.118 104.222 120.012 104.432 120.083C105.045 121.29 104.498 121.993 103.4 122.449Z" fill="#58B62A"/>
<path d="M95.7744 138.094C95.2089 137.039 96.6725 136.378 96.3018 135.361C97.4851 136.868 97.4803 136.891 95.7744 138.094Z" fill="#57BA2C"/>
<path d="M90.3604 131.545C90.6978 131.635 91.5246 131.336 91.0922 132.11C90.7508 132.776 90.5655 133.51 90.5504 134.258C89.7378 133.408 90.023 132.476 90.3604 131.545Z" fill="#368F0F"/>
<path d="M128.674 154.858C126.588 155.419 126.73 153.385 126.093 152.458C125.271 151.261 126.146 150.277 127.248 149.607C128.574 149.555 128.336 150.691 128.545 151.413C128.794 152.544 128.838 153.711 128.674 154.858Z" fill="#3C9A17"/>
<path d="M128.674 154.858C127.989 153.908 128.284 152.8 128.07 151.779C127.913 151.047 128.289 150.025 127.248 149.602C127.286 149.018 127.372 148.718 128.037 149.217C128.987 149.921 130.204 150.358 129.99 151.874C129.846 152.974 129.389 154.01 128.674 154.858Z" fill="#4DB326"/>
<path d="M129.153 142.543C131.41 142.909 131.629 143.75 130.065 146.145C129.476 145.014 128.15 144.078 129.153 142.543Z" fill="#429F19"/>
<path d="M131.207 161.232C130.532 159.716 129.111 159.136 130.019 157.71C130.366 157.169 130.874 157.007 131.392 157.463C132.59 158.518 131.758 159.554 131.207 161.232Z" fill="#469E1A"/>
<path d="M127.688 129.14C127.178 130.705 126.667 132.269 126.153 133.831C123.007 136.763 120.308 140.141 118.142 143.857C116.987 144.309 116.692 143.43 116.626 142.679C116.417 140.35 116.013 137.974 117.177 135.746L120.603 132.524C122.675 130.941 124.082 128.822 125.417 126.636C125.802 126.009 126.063 125.168 127.071 125.253C128.358 126.379 127.446 127.838 127.688 129.14Z" fill="#AEE959"/>
<path d="M117.178 135.746C117.178 137.846 117.178 139.947 117.211 142.047C117.211 142.789 116.997 143.687 118.162 143.858C117.259 146.022 116.145 148.091 114.835 150.035C113.804 147.075 114.617 144.015 114.36 141.007C114.27 140.056 114.745 138.963 113.885 138.122L117.178 135.746Z" fill="#A0D749"/>
<path d="M125.741 137.947C126.188 138.455 127.514 136.84 127.423 138.641C128.778 140.024 127.129 140.698 126.535 141.117C125.808 141.625 125.242 140.237 124.387 140.123C125.423 139.762 123.764 137.724 125.741 137.947Z" fill="#46A224"/>
<path d="M126.839 125.39C125.698 127.144 124.61 128.935 123.398 130.641C122.733 131.591 121.925 132.48 120.604 132.542L116.707 132.589C116.184 132.257 116.127 131.639 115.861 131.164C116.089 130.171 116.845 129.344 116.812 128.256C116.508 125.523 117.368 122.938 117.909 120.329C118.763 116.149 119.994 112.055 121.588 108.097C121.872 107.27 122.331 106.514 122.932 105.878C124.458 103.607 125.498 100.993 127.637 99.1494C130.422 102.709 132.988 106.415 135.416 110.226C135.456 110.579 135.426 110.935 135.326 111.276C135.227 111.616 135.06 111.933 134.836 112.208C132.869 115.245 131.324 118.514 129.5 121.626C128.606 122.862 128.35 124.563 126.839 125.39Z" fill="#227465"/>
<path d="M122.928 105.855C119.996 113.073 118.546 120.691 116.807 128.232L114.821 129.087C115.722 124.013 116.992 119.012 118.622 114.123C119.379 111.577 120.417 109.123 121.716 106.805C122.001 106.316 122.253 105.841 122.928 105.855Z" fill="#A0D74A"/>
<path d="M115.861 131.166C117.286 130.961 116.336 132.168 116.707 132.591C117.814 134.44 115.234 133.542 115.234 134.587C114.441 134.201 113.76 133.62 113.252 132.9C114.321 132.843 113.304 130.572 115.029 131.223C115.333 131.318 115.599 131.427 115.861 131.166Z" fill="#46A224"/>
<path d="M102.047 148.078C102.197 148.088 102.348 148.088 102.498 148.078C103.401 149.371 103.506 150.663 102.498 151.942C101.391 152.065 101.306 154.208 99.709 153.343C100.569 151.623 100.103 149.309 102.047 148.078Z" fill="#50B62B"/>
<path d="M105.792 147.674C105.449 146.177 104.147 145.16 105.601 143.986C105.939 143.715 106.414 143.473 106.823 144.02C107.878 145.421 106.832 146.324 105.792 147.674Z" fill="#48A31B"/>
<path d="M143.253 68.1751C143.063 64.7252 143.671 61.3132 143.828 57.8823L144.698 55.9814C144.855 56.5897 145.011 57.2027 145.173 57.811C145.254 59.5265 145.572 61.0376 146.765 62.4965C148.666 64.8392 148.3 67.0299 146.085 69.097C144.959 69.3251 143.957 69.2111 143.253 68.1751Z" fill="#0F5622"/>
<path d="M143.252 68.1748L146.151 68.9161C147.852 69.6764 149.372 71.2921 151.497 70.0281C152.609 70.1469 153.549 70.5033 153.73 71.7911C154.956 72.5372 154.357 73.2785 153.73 74.0198C152.404 74.2336 151.725 75.5119 150.537 75.9539C148.835 75.3361 147.106 74.9654 145.309 75.3789C144.677 73.5303 143.523 71.9669 142.525 70.318C142.211 69.4198 142.211 68.6072 143.252 68.1748Z" fill="#ADE95A"/>
<path d="M153.731 71.7917C153.099 71.1216 152.453 70.4754 151.502 70.271L151.246 70.0477C151.146 69.7768 151.154 69.4778 151.268 69.2125C151.382 68.9471 151.593 68.7358 151.859 68.6221C153.056 68.6839 154.149 68.0946 155.333 68.0613C155.66 68.2039 155.922 68.375 155.703 68.7932L153.731 71.7917Z" fill="#195821"/>
<path d="M155.704 68.8069L155.195 68.3032C155.091 67.0629 155.827 66.5355 156.901 66.2979L157.206 66.5069C156.923 67.3956 156.404 68.1906 155.704 68.8069Z" fill="#305C1C"/>
<path d="M158.289 64.5919C158.09 65.3237 157.928 66.0745 157.206 66.4927C157.148 66.4285 157.079 66.3753 157.002 66.3359C156.66 65.3855 156.935 64.7345 157.914 64.4351C157.984 64.4318 158.054 64.4442 158.119 64.4713C158.184 64.4984 158.242 64.5396 158.289 64.5919Z" fill="#24561A"/>
<path d="M157.893 64.4306C157.594 65.0721 157.29 65.7089 156.981 66.3314L155.175 68.2845C154.163 68.8024 153.208 69.6673 151.967 68.8309C150.846 69.4012 150.067 68.5933 148.945 67.9471C150.057 68.6836 150.908 69.2254 151.421 70.1377L151.478 70.2518C148.936 71.7582 148.446 71.6346 146.132 68.8975C147.947 66.2458 147.581 63.9554 145.272 61.6934C144.212 60.6575 144.321 59.1273 145.143 57.792C145.448 58.3005 145.752 58.8042 146.051 59.3126C145.999 59.7878 146.051 60.206 146.702 60.1015C149.192 62.0023 151.673 63.8698 155.032 62.0023C155.242 61.8835 155.546 62.2731 155.56 62.6343C155.394 62.9242 155.474 63.3091 155.204 63.5609C155.498 63.4992 155.46 63.1285 155.679 63.0192L157.893 64.4306Z" fill="#BE6E20"/>
<path d="M151.076 60.6858C149.621 60.5527 148.552 59.8922 148.072 58.4476C148.391 57.4972 149.36 57.3974 150.063 56.9459C150.254 56.9179 150.449 56.942 150.627 57.0156C150.805 57.0892 150.96 57.2096 151.076 57.3641C151.337 58.0009 151.964 58.0579 152.501 58.2575C153.357 59.4265 154.426 60.662 151.746 60.757C151.627 60.5907 151.651 60.2533 151.332 60.3246C151.242 60.3579 151.156 60.5575 151.076 60.6858Z" fill="#B76C22"/>
<path d="M158.593 62.2918C157.999 63.1662 157.504 62.5531 156.991 62.1872C156.963 61.6645 158.084 60.8709 156.635 60.6856C157.333 59.835 158.132 59.4881 159.144 60.1724C159.624 61.0515 159.049 61.655 158.593 62.2918Z" fill="#B6712E"/>
<path d="M150.063 56.9461C149.865 57.3312 149.584 57.6669 149.239 57.9285C148.895 58.1901 148.496 58.3708 148.072 58.4572C147.777 56.9651 148.005 56.794 150.063 56.9461Z" fill="#20602D"/>
<path d="M156.635 60.6855C156.991 60.7616 157.585 60.7426 157.661 60.9279C157.875 61.4886 157.509 61.9163 156.996 62.1872C156.336 61.8118 155.922 61.3841 156.635 60.6855Z" fill="#694525"/>
<path d="M151.073 60.6865C151.012 60.0783 150.845 59.1944 151.781 59.4225C152.556 59.6173 151.734 60.2921 151.743 60.7578L151.073 60.6865Z" fill="#3C3129"/>
<path d="M158.592 62.2923C158.777 61.589 158.958 60.8666 159.143 60.1729C159.994 61.0757 159.861 61.5794 158.592 62.2923Z" fill="#51784A"/>
<path d="M155.722 63.0194C155.627 63.9033 155.119 64.1552 154.221 63.9318L155.58 62.6345C155.631 62.6839 155.67 62.7442 155.695 62.8108C155.719 62.8774 155.729 62.9487 155.722 63.0194Z" fill="#A55A1B"/>
<path d="M146.723 60.1199C146.49 60.4145 146.395 61.1558 145.867 60.6996C145.487 60.3717 145.653 59.7492 146.072 59.3311L146.723 60.1199Z" fill="#A75211"/>
<path d="M152.5 58.2575C152.025 57.9867 150.599 59.1509 151.074 57.3642C151.375 57.3491 151.673 57.4266 151.928 57.5864C152.183 57.7462 152.382 57.9805 152.5 58.2575Z" fill="#683A1F"/>
<path d="M102.048 148.078C101.045 149.732 101.23 151.923 99.6718 153.329C99.4249 152.365 99.2534 151.383 99.1586 150.393C99.1349 148.478 100.119 147.641 102.048 148.078Z" fill="#3F9C18"/>
<path d="M145.287 75.3798C147.226 73.8402 148.956 74.2013 150.514 75.95C150.694 76.6319 150.811 77.3285 150.866 78.0314C150.866 79.5426 150.248 80.8256 148.837 81.5099C148.31 81.7957 147.708 81.9121 147.113 81.8432C146.518 81.7743 145.958 81.5235 145.51 81.125C144.294 80.1033 144.018 78.749 144.351 77.2711C144.587 76.6057 144.901 75.9707 145.287 75.3798Z" fill="#50B52B"/>
<path d="M129.068 121.508C130.932 117.605 133.051 113.828 135.412 110.203C136.047 110.119 136.692 110.262 137.232 110.607C134.063 114.618 132.133 119.303 129.971 123.865C128.55 123.509 129.111 122.392 129.068 121.508Z" fill="#ABE858"/>
<path d="M129.067 121.509C129.383 122.298 129.684 123.09 129.969 123.885L127.688 129.16C126.534 128.109 127.75 126.517 126.838 125.41C127.582 124.105 128.325 122.805 129.067 121.509Z" fill="#9CD44B"/>
<path d="M141.418 132.438C141.922 132.989 142.706 133.464 141.893 134.338C141.176 133.863 140.648 133.317 141.418 132.438Z" fill="#38920C"/>
<path d="M112.436 106.738C112.486 106.243 112.714 105.783 113.077 105.443C113.441 105.103 113.915 104.907 114.412 104.89C114.964 106.805 113.357 106.406 112.436 106.738Z" fill="#4AB225"/>
<path d="M151.44 70.1563C150.129 69.2962 148.484 68.764 148.023 66.4688C149.539 67.4192 150.437 68.745 151.987 68.8448C151.801 69.2867 151.621 69.7191 151.44 70.1563Z" fill="#AD5511"/>
<path d="M155.257 65.453C154.891 66.7503 154.255 67.0449 153.356 66.8786C152.325 66.6648 151.489 66.0185 151.641 64.9778C151.793 63.9371 152.81 64.5026 153.342 64.6832C154.017 64.8923 155.096 64.6357 155.257 65.453Z" fill="#F2E2D5"/>
<path d="M149.981 78.1407C149.767 79.7326 148.983 80.7068 147.381 80.6688C145.78 80.6308 145.195 79.6376 145.243 78.1692C145.29 76.62 146.108 75.5176 147.619 75.5176C149.13 75.5176 149.886 76.6913 149.981 78.1407Z" fill="#99DE4F"/>
<path d="M148.252 76.4299C148.685 77.5371 149.431 78.5493 148.124 79.4331C148.015 79.5244 147.884 79.5855 147.744 79.6104C147.605 79.6353 147.461 79.6231 147.327 79.575C147.193 79.5269 147.075 79.4447 146.983 79.3364C146.891 79.2281 146.829 79.0976 146.803 78.9579C146.352 77.6559 147.102 76.9906 148.252 76.4299Z" fill="#469F1A"/>
<path d="M4.46836 156.201C3.47052 157.597 2.19356 158.922 1.53066 160.478C0.225786 163.584 -1.51869 163.702 -4.05168 162.007C-14.6023 155.043 -23.1502 146.837 -21.8733 132.797C-21.1755 124.849 -17.5749 117.906 -13.2276 111.368C-2.13973 94.6836 11.7882 80.5952 26.9024 67.5883C27.0775 67.5845 27.2516 67.6162 27.4142 67.6815C27.5768 67.7468 27.7245 67.8443 27.8483 67.9682C27.9722 68.092 28.0697 68.2397 28.135 68.4023C28.2003 68.5649 28.232 68.739 28.2282 68.9141C28.7515 73.2614 29.6238 77.5319 28.5771 82.0117C26.6512 90.2456 24.8578 98.5494 26.4349 107.132C25.2905 110.621 25.8696 114.299 25.7371 117.885C25.6394 123.795 28.5282 128.631 31.6125 133.278C34.6967 137.926 37.8926 142.517 41.7514 146.537C42.6516 147.472 43.9913 148.469 42.7841 150.095C38.6672 149.558 35.0037 151.972 30.9635 151.916C28.7794 151.219 27.8514 149.216 26.4697 147.695C20.4408 141.038 15.947 133.53 14.6073 124.507C13.7897 119.18 13.8841 113.753 14.8864 108.458C11.9068 123.607 17.1054 136.565 24.6136 148.567C26.5465 151.658 26.086 152.67 22.5202 152.872C21.013 152.963 19.4988 152.789 18.0265 153.242C17.4898 153.37 16.9368 153.414 16.3867 153.375C15.7963 153.373 15.23 153.14 14.8096 152.726C9.62505 146.195 3.08673 140.863 -1.28842 133.579C-2.62885 131.401 -3.51192 128.973 -3.88381 126.443C-4.2557 123.913 -4.10863 121.333 -3.45158 118.862C-1.44194 110.426 3.17047 103.343 8.41089 96.6025C8.90014 95.8269 9.46585 95.1022 10.0995 94.4394C9.45694 95.0432 8.90467 95.7365 8.45973 96.4978C4.13342 101.969 0.246721 107.732 -2.41884 114.187C-5.77522 122.316 -6.6056 130.543 -2.19555 138.61C-0.309256 142.224 2.48508 145.285 5.91279 147.492C7.44794 148.462 9.28313 149.118 10.2461 150.849C9.05286 153.417 6.75014 154.798 4.46836 156.201Z" fill="#4CB327"/>
<path d="M26.1484 107.174C25.6911 106.738 25.3306 106.211 25.0902 105.626C24.8497 105.042 24.7348 104.414 24.7528 103.782C24.6729 96.4918 25.5956 89.2249 27.4952 82.1857C28.8907 77.1616 27.6626 72.4166 26.895 67.5879C27.9766 64.6781 27.2788 61.6636 27.3626 58.698C27.5231 53.2971 26.9997 47.8822 27.6347 42.4883C31.9203 43.6499 36.4037 43.8877 40.7881 43.1861C42.6233 49.5988 44.5143 55.9975 46.2518 62.4382C46.517 63.422 47.152 63.9803 47.6474 64.7199C47.131 67.1273 47.8149 69.1788 49.2244 71.1745C50.8712 73.4912 52.525 75.8986 52.0156 79.0247C50.0408 80.7761 47.6404 82.1927 47.3683 85.2281C47.1386 86.8456 47.4269 88.4944 48.1917 89.9381C48.715 90.8523 49.9431 91.6757 48.9802 93.0015C47.0264 93.8458 45.2191 92.52 43.3141 92.6386C39.9856 91.6268 36.2385 91.7175 34.3265 89.6869C36.2589 91.1375 38.5896 91.9607 41.0044 92.0455C45.7215 92.6805 49.8803 94.2645 52.4831 98.6117C52.9506 99.3932 53.6554 100.007 53.6135 101.047C51.4224 103.761 51.248 107.46 49.1197 110.209C46.1332 112.302 42.707 111.891 39.3506 111.793C35.8811 111.586 32.4595 110.881 29.1908 109.7C27.8929 109.26 26.4903 108.827 26.1484 107.174Z" fill="#AEE95A"/>
<path d="M49.0781 109.254C50.055 106.281 50.3621 102.974 53.2649 100.992C55.5885 99.087 56.391 99.2684 56.9492 101.815C55.8956 115.171 61.457 124.145 73.9195 128.966C81.3929 131.876 89.2012 133.739 96.8769 135.993C103.373 137.898 109.639 140.34 115.019 144.576C118.062 146.969 120.658 149.74 121.6 153.989C115.271 153.989 113.08 158.811 110.554 163.235C100.261 161.707 90.1641 159.411 80.4509 155.629C79.6009 155.013 78.9175 154.195 78.4621 153.25C70.6957 140.131 61.6035 127.948 52.2112 115.967C51.1924 113.727 49.6643 111.71 49.0781 109.254Z" fill="#4CB327"/>
<path d="M96.6262 183.436C99.3127 190.498 103.192 196.966 106.674 203.63C108.07 206.289 109.41 208.968 110.903 211.892C108.663 212.359 107.233 211.292 105.823 210.426C100.436 207.133 96.054 202.667 91.4905 198.348C89.9763 196.903 89.6413 195.368 91.337 193.889C93.0326 192.409 92.5302 190.909 91.5393 189.283C88.6925 184.622 85.4223 180.233 81.7702 176.172C76.1879 172.418 71.6104 167.798 69.21 161.421C68.7215 160.123 68.3168 158.748 69.2449 157.429C72.357 156.292 74.7435 158.581 77.4509 159.271C79.8094 159.871 80.9399 159.536 81.0445 156.99C84.1986 156.724 84.1148 160.06 85.8872 161.337C87.2828 163.43 88.8459 165.363 89.8367 167.68C91.2951 170.429 92.4813 173.311 93.7792 176.137C94.491 178.649 96.5634 180.652 96.6262 183.436Z" fill="#134239"/>
<path d="M60.3399 98.9187L58.9443 99.0164C54.4088 99.5049 52.1829 98.3815 50.6408 94.8298C50.3687 94.2018 50.0616 93.5389 50.8152 92.9876C56.551 92.6388 58.7141 88.473 60.5073 83.9166C63.3961 82.7513 66.7455 84.0631 69.5226 82.2559C70.025 83.77 70.4995 85.2423 71.7276 86.4425C73.4232 88.1102 74.0651 90.3919 74.5885 92.6597C75.4397 96.3649 76.2631 100.077 77.1005 103.782C77.4773 104.961 76.4445 105.387 75.8654 106.029C72.0834 110.216 71.7555 112.944 74.3582 117.996C74.9094 119.071 76.1794 119.88 75.7537 121.373C73.779 122.852 72.4463 121.422 71.3787 120.159C69.0202 117.368 66.8571 114.402 64.6103 111.514C63.5496 107.09 63.0473 102.68 64.4637 98.221C65.0708 96.3091 66.25 94.7321 67.1432 92.9946C67.7909 91.8281 68.1677 90.5307 68.2457 89.1987C67.52 93.9994 64.708 97.0836 60.3399 98.9187Z" fill="#AEE959"/>
<path d="M40.8019 43.1654C36.2663 45.8659 31.912 45.0983 27.6485 42.4676C27.5439 40.5557 28.8418 39.2508 29.7838 37.8482C34.2557 31.0632 39.1916 24.5955 44.556 18.4915C46.3842 16.3981 47.082 14.4792 46.5866 11.6392C45.9865 8.3107 44.8631 4.80081 46.9425 1.46536C47.2914 0.900152 47.3612 0.174448 48.1566 0C48.2264 1.0746 49.4266 0.788505 49.9849 1.62586C50.824 2.86976 51.3699 4.28788 51.5814 5.77339C51.793 7.25889 51.6646 8.77303 51.206 10.2017C53.0133 10.4599 53.2226 8.65262 54.4019 9.09921C54.032 14.2559 52.7132 18.9869 49.4545 23.2225C47.3612 25.9788 46.8099 29.6143 45.7353 32.9218C44.5491 36.5573 43.2232 40.123 40.8019 43.1654Z" fill="#134239"/>
<path d="M31.0328 151.344C34.9544 150.855 38.5481 147.966 42.7767 149.718C43.0404 149.583 43.3314 149.51 43.6276 149.504C43.9239 149.498 44.2175 149.56 44.4864 149.684C44.7553 149.809 44.9924 149.992 45.1797 150.222C45.3671 150.451 45.4998 150.721 45.5678 151.009C47.5635 156.814 51.5758 160.666 56.9419 163.311C56.8897 163.588 56.7626 163.844 56.5743 164.054C56.386 164.263 56.1438 164.416 55.8742 164.497C53.0137 165.044 50.0632 164.886 47.2774 164.037C46.1959 163.758 45.1352 163.339 44.0536 163.081C40.1739 161.985 36.2035 161.336 32.2609 160.569C29.5605 160.073 26.9577 159.04 24.4317 159.138C26.56 164.379 28.2905 169.696 28.0184 175.48C26.881 176.534 26.881 176.534 24.6131 174.35C23.7967 173.722 22.8617 173.227 22.3663 172.257C19.5329 166.81 17.028 161.199 14.865 155.454C14.7737 154.894 14.8734 154.32 15.1481 153.824C15.4227 153.328 15.8564 152.938 16.3792 152.718L17.7748 152.6C22.2616 152.83 26.5739 151.183 31.0328 151.344Z" fill="#134239"/>
<path d="M75.6924 121.353C75.1342 120.606 74.5341 119.894 74.0387 119.113C70.0823 112.895 70.8219 109.169 77.06 103.762C81.9217 102.047 85.9549 98.5575 88.3501 93.9927C90.0317 90.9365 93.5834 91.2923 95.7604 89.2758C95.8651 89.1851 96.3884 89.3804 96.5698 89.5758C98.2934 91.411 98.2934 91.4319 100.275 89.9666C102.257 88.5012 103.883 89.9666 105.613 90.5946C106.381 90.9225 107.783 90.2666 107.706 91.9343C105.02 95.5278 100.938 96.1628 96.9536 96.8187C95.8228 96.9512 94.7462 97.3769 93.8307 98.0538C92.9151 98.7307 92.1924 99.6351 91.7343 100.677C88.3849 107.174 84.6449 113.475 79.6697 118.917C78.6091 120.11 77.702 121.667 75.6924 121.353Z" fill="#0D5523"/>
<path d="M56.0898 163.931L56.948 163.129C58.7902 157.833 58.218 152.816 55.5525 147.869C54.2686 145.475 52.5241 143.242 52.1055 140.43C52.1317 140.171 52.228 139.923 52.3841 139.714C52.5402 139.505 52.7502 139.343 52.9916 139.244C53.4056 139.262 53.8099 139.375 54.1729 139.575C54.536 139.775 54.8481 140.055 55.085 140.395C59.3484 145.587 64.4352 150.032 68.5451 155.349C68.8287 155.641 69.045 155.991 69.1788 156.376C69.3126 156.761 69.3607 157.17 69.3196 157.575C69.5778 161.978 71.692 165.508 74.6018 168.634C76.9742 171.174 79.4025 173.665 81.7958 176.17L79.1513 178.473C71.8874 176.491 65.2446 173.093 58.7413 169.402C56.5154 168.132 54.1081 167.044 52.3706 164.978C53.5568 163.631 55.0431 164.699 56.0898 163.931Z" fill="#4BB327"/>
<path d="M96.6247 183.436C94.978 181.343 94.1406 178.775 93.0242 176.374C92.0613 173.534 94.1406 171.671 95.2082 169.473C96.0456 167.729 97.3016 165.901 94.6361 164.547C91.524 163.745 88.2933 163.333 85.3975 161.812C84.0345 160.165 82.6715 158.521 81.3085 156.878C80.3317 156.439 79.8293 155.832 80.5689 154.785C89.4446 157.848 98.3901 160.639 107.782 161.763C108.996 161.902 110.078 162.007 110.622 163.27C107.845 171.308 103.868 178.51 96.6247 183.436Z" fill="#46A224"/>
<path d="M15.6326 155.495C18.626 161.775 20.8729 168.425 24.6339 174.335C18.0336 176.307 12.274 180.413 8.2571 186.009C7.44768 187.146 6.98714 189.274 5.20084 188.8C3.54711 188.367 3.24707 186.427 3.02378 184.802C2.03294 177.538 6.06608 171.983 9.30376 166.171C11.111 162.961 13.4346 160.017 14.3277 156.332C14.3477 156.186 14.399 156.046 14.4783 155.922C14.5576 155.798 14.6629 155.692 14.787 155.613C14.911 155.533 15.0509 155.481 15.1969 155.461C15.3429 155.441 15.4915 155.452 15.6326 155.495Z" fill="#4CB327"/>
<path d="M15.6322 155.496C14.125 161.295 10.5104 166.012 7.50293 171.015C5.32582 174.643 3.13475 178.139 3.76974 182.633C3.87455 183.031 3.85962 183.452 3.72682 183.841C3.59402 184.231 3.34924 184.573 3.0231 184.824C1.46005 181.217 2.61838 177.846 4.01397 174.546C5.75845 170.45 7.75413 166.458 9.64515 162.418C9.64515 160.981 10.4127 159.76 10.8802 158.462C11.7943 155.901 11.8502 153.493 10.0568 151.267C4.13957 147.723 -1.26832 143.71 -4.05949 137.019C-6.33429 131.59 -6.50874 126.077 -5.33644 120.397C-3.66872 112.366 0.81808 105.792 5.42351 99.275C6.26849 98.0076 7.3898 96.9483 8.70313 96.1768C8.00534 99.2261 5.65378 101.278 4.14655 103.852C0.497097 110.063 -2.74764 116.357 -3.20818 123.788C-3.51521 128.582 -1.19854 132.204 1.27862 135.853C4.2105 140.162 7.68369 144.076 11.6129 147.499C13.4272 149.09 13.8528 151.895 16.4207 152.733C15.8202 153.522 15.5387 154.509 15.6322 155.496Z" fill="#46A224"/>
<path d="M32.4297 159.668C36.4419 160.456 40.5448 160.847 44.3896 162.396C48.0808 167.539 53.6839 170.532 58.2544 174.684C60.1105 176.373 62.441 177.587 63.3272 180.162C61.7921 182.004 59.5871 182.325 57.424 182.736C54.3259 182.911 51.9535 185.074 49.0507 185.821C46.148 186.567 43.0568 187.419 41.3752 183.602C40.7542 182.339 41.3752 181.39 42.1637 180.49C42.7865 179.812 43.4507 179.173 44.1523 178.578C48.339 174.956 48.339 174.391 44.1174 171.3C44.1872 170.86 44.2081 170.693 43.6429 170.323C39.2609 167.455 34.8231 164.608 32.4297 159.668Z" fill="#46A224"/>
<path d="M56.0901 163.931C55.3365 164.922 54.1293 164.322 52.9082 164.831C60.3046 170.092 68.4756 173.358 76.4372 177.014C77.3722 177.44 78.4398 177.594 79.1236 178.473C75.849 183.288 71.1714 186.979 65.7264 189.044C63.6958 189.798 61.6165 190.265 60.4442 187.614C60.7373 185.932 62.2793 185.346 63.3539 184.369C64.6029 183.232 65.6356 182.066 64.9588 180.182C64.0238 177.928 61.9305 176.805 60.1511 175.451C56.8227 172.911 53.6618 170.176 50.3823 167.601C48.9448 166.478 47.0329 165.417 47.0608 163.094C50.0246 163.744 53.0573 164.025 56.0901 163.931Z" fill="#46A224"/>
<path d="M69.5159 82.2343C69.4392 83.7694 68.7275 84.3695 67.1295 84.2858C64.8688 84.1602 62.594 84.2858 60.3193 84.2858C58.2957 81.2993 56.0419 78.6547 52.0018 78.6198C50.7614 75.3197 49.1085 72.1898 47.0824 69.3045C46.0358 67.909 45.8125 66.025 47.6546 64.6992C48.2619 65.5194 49.0627 66.1767 49.9855 66.6125C50.9083 67.0483 51.9245 67.2492 52.9438 67.1973C54.1021 68.858 54.1579 71.3839 56.5792 72.0817C58.1771 73.1981 60.2355 73.3447 61.7846 74.5518C65.6363 75.0612 68.3855 77.8035 69.5159 82.2343Z" fill="#4CB427"/>
<path d="M32.4296 159.669C36.3511 163.458 39.9865 167.582 44.8848 170.219C44.9546 170.261 44.9965 170.359 45.0593 170.428L44.2289 170.868C40.8866 172.41 37.2512 172.264 33.7135 172.759C30.1269 171.957 28.4522 172.759 28.0754 175.487C27.0595 170.293 25.7171 165.168 24.0562 160.143C23.5259 158.573 23.9934 157.931 25.6123 158.252C27.8801 158.699 30.1339 159.201 32.4296 159.669Z" fill="#4BB427"/>
<path d="M53.9763 66.1295C52.3016 64.6154 50.0408 63.464 50.5362 60.6031C51.6248 59.9054 52.1969 60.5403 52.6993 61.3707C52.504 60.2194 51.3038 60.4496 50.606 59.9751C50.606 59.5007 50.606 59.0262 50.606 58.5796C52.6993 57.8818 53.8507 59.4518 55.2532 60.4287C55.5463 60.5613 55.8184 60.7148 56.0975 60.8753C58.5676 62.7523 61.1494 63.0872 63.6963 61.1544C66.2432 59.2215 68.7203 61.6638 71.2392 61.3149C71.3472 62.5818 71.3822 63.8538 71.3439 65.1247C70.8764 70.8535 68.3784 72.8003 62.6078 71.9211C62.296 72.0938 61.9718 72.2431 61.6379 72.3676C57.7094 71.9629 54.8834 70.2394 53.9763 66.1295Z" fill="#F2BA81"/>
<path d="M33.6777 172.758C35.6176 170.469 38.4575 171.607 40.8299 170.923C41.8696 170.623 43.0698 170.867 44.1932 170.867C45.5888 171.872 48.1705 171.446 48.3799 173.889C48.5892 176.331 46.9076 177.552 45.1701 178.857C43.4326 180.162 41.6812 181.278 41.3672 183.602L33.6777 172.758Z" fill="#2D541C"/>
<path d="M71.2456 61.2521C70.6246 61.5312 69.7245 62.229 69.4454 62.0266C66.3891 59.9333 64.0516 62.4453 61.4209 63.0803C59.1462 63.6315 57.1226 63.164 55.5875 61.2451C54.5199 60.4357 54.5548 59.2634 54.5548 58.1051C54.9665 55.0628 57.3459 54.4558 59.7533 53.9185C60.0885 53.8523 60.4311 53.8312 60.772 53.8557C62.5792 54.0162 64.4632 56.0048 66.1658 53.6115C70.1082 52.5229 71.455 53.3812 71.4898 56.9747C71.4061 58.4122 71.3247 59.838 71.2456 61.2521Z" fill="#4CB328"/>
<path d="M49.4414 48.7549C50.8439 47.1051 52.6476 45.8442 54.6788 45.0938C56.71 44.3434 58.9002 44.1288 61.0384 44.4706C62.8722 44.6138 64.7125 44.6558 66.5509 44.5962C67.451 47.457 66.5509 49.048 63.5086 50.2202C61.164 51.1134 58.4567 50.8133 56.3215 52.3833C56.0186 52.5291 55.6877 52.6077 55.3516 52.6136C53.321 51.4134 50.5299 51.3925 49.4414 48.7549Z" fill="#F5E768"/>
<path d="M55.4067 52.2288H56.1673C56.3667 52.0229 56.6052 51.8589 56.8688 51.7463C57.1323 51.6336 57.4157 51.5747 57.7024 51.5729C63.0403 51.5729 67.9946 50.4146 72.1045 46.7373C73.4442 50.2262 74.3583 53.7639 71.4904 57.0295C70.8833 53.7918 68.9366 53.2824 66.1803 54.4198C64.4289 55.299 62.6915 54.8036 60.9191 54.4198L60.647 54.4756L60.3748 54.4128C58.5188 54.8315 56.7115 55.0339 55.3439 53.2685C55.2509 53.1082 55.2073 52.9241 55.2185 52.7392C55.2297 52.5542 55.2951 52.3767 55.4067 52.2288Z" fill="#F3E568"/>
<path d="M10.0579 151.268C12.4513 151.561 12.7304 153.57 12.5001 155.154C12.1303 157.729 11.7047 160.443 9.64625 162.418L4.46875 156.201C5.82814 154.061 7.76608 152.351 10.0579 151.268Z" fill="#2C541C"/>
<path d="M60.3418 98.9185C60.3417 98.6292 60.4219 98.3456 60.5734 98.0992C60.725 97.8528 60.9419 97.6533 61.2001 97.5229C64.8704 95.8134 66.9497 92.7501 68.422 88.1797C68.7763 90.2868 68.3415 92.4505 67.2009 94.2573C65.8532 96.5501 64.9742 99.0877 64.6148 101.723C64.2555 104.358 64.423 107.038 65.1076 109.608C65.229 109.938 65.2445 110.298 65.1519 110.636C65.0593 110.975 64.8634 111.277 64.5912 111.499C61.7373 107.808 62.3444 102.924 60.3418 98.9185Z" fill="#9ED646"/>
<path d="M72.104 46.7101C70.0665 50.8968 66.0473 51.5946 62.07 52.1667C60.1372 52.4389 58.1346 52.2086 56.1668 52.1667C55.8738 51.5178 55.4691 50.9317 56.7041 50.7224C58.7486 50.3804 60.7722 49.8711 62.8027 49.4594C65.4891 48.9151 66.8707 47.366 66.5428 44.5749C68.5105 45.0076 71.3574 43.0887 72.104 46.7101Z" fill="#FAF1AB"/>
<path d="M50.571 93.344C52.0643 97.1469 55.0089 98.8215 58.9444 99.0169C57.6744 99.5193 57.5488 100.817 56.9697 101.808C56.2719 99.3309 54.66 100.601 53.2854 100.985C50.2501 96.5049 46.503 93.1068 40.7812 92.6811C40.9696 90.9437 42.0163 91.7531 42.8746 91.9833C45.0377 91.6554 47.0612 92.5625 49.1546 92.6811C49.957 92.2485 50.5152 92.2694 50.571 93.344Z" fill="#9DD646"/>
<path d="M65.0782 179.967C66.7738 180.979 66.9412 182.172 65.4271 183.456C63.7943 184.852 62.1126 186.247 60.4449 187.594C59.4262 185.968 58.4144 184.342 57.3887 182.709C58.8749 180.888 61.3172 181.028 63.1383 179.918C63.256 179.772 63.4059 179.655 63.5762 179.576C63.7465 179.497 63.9327 179.459 64.1203 179.463C64.308 179.468 64.492 179.516 64.6581 179.603C64.8242 179.691 64.968 179.815 65.0782 179.967Z" fill="#2E561D"/>
<path d="M55.4053 52.2293V52.927C54.9447 53.4504 54.0516 53.2341 53.7167 53.9458C53.5841 56.4648 55.81 58.6627 54.6517 61.2934C53.7794 59.6675 52.1118 59.2 50.5906 58.5023C49.537 55.3274 48.5392 52.1455 49.4114 48.7334C51.107 50.4639 53.8632 50.2964 55.4053 52.2293Z" fill="#E4BB5A"/>
<path d="M53.9763 66.1299C55.958 68.8442 58.0164 71.44 61.7356 71.754C62.3217 74.0985 60.661 73.8473 59.3632 73.6449C58.0653 73.4426 57.0605 72.8146 55.8743 72.5145C53.4321 71.5516 52.3854 69.8141 52.9436 67.1975C53.2855 66.8416 53.6274 66.4857 53.9763 66.1299Z" fill="#E29064"/>
<path d="M104.363 84.2375C103.358 83.9095 102.346 83.4002 102.563 82.2209C102.702 81.4743 102.458 80.0648 104.293 80.3579C105.591 80.5602 105.87 80.9021 106.1 82.1442C106.393 83.7979 105.172 83.6932 104.363 84.2375Z" fill="#CCE8C3"/>
<path d="M95.6215 52.6416C97.1566 52.8928 98.0846 53.2487 98.0148 54.8536C98.0213 55.1145 97.9757 55.3742 97.8805 55.6173C97.7853 55.8604 97.6425 56.082 97.4606 56.2692C97.2786 56.4564 97.061 56.6053 96.8207 56.7073C96.5804 56.8093 96.3221 56.8623 96.0611 56.8631C95.8027 56.8883 95.5419 56.8595 95.2952 56.7787C95.0485 56.6979 94.8212 56.5668 94.6277 56.3936C94.4343 56.2205 94.2789 56.0091 94.1713 55.7729C94.0637 55.5366 94.0062 55.2806 94.0026 55.021C93.9817 53.9813 94.4422 52.7532 95.6215 52.6416Z" fill="#CBE6C3"/>
<path d="M116.408 46.0052C116.425 46.4072 116.283 46.7996 116.012 47.0974C115.742 47.3953 115.365 47.5745 114.963 47.5962C114.761 47.6124 114.557 47.5869 114.365 47.5213C114.172 47.4557 113.995 47.3513 113.845 47.2146C113.694 47.0779 113.574 46.9119 113.49 46.7266C113.406 46.5414 113.362 46.341 113.358 46.1378C113.313 45.9375 113.316 45.7292 113.367 45.5302C113.418 45.3313 113.516 45.1474 113.652 44.9938C113.789 44.8403 113.96 44.7215 114.151 44.6474C114.343 44.5733 114.55 44.546 114.754 44.5678C115.71 44.519 116.115 45.1749 116.408 46.0052Z" fill="#CEE6C1"/>
<path d="M87.5542 78.7598C87.3169 80.5391 86.354 79.9949 85.4608 79.3948C85.2589 79.2873 85.0852 79.1336 84.954 78.9462C84.8227 78.7588 84.7376 78.543 84.7057 78.3164C84.6737 78.0899 84.6957 77.859 84.77 77.6426C84.8442 77.4262 84.9686 77.2304 85.1329 77.0712C85.6562 76.5269 86.7238 75.8571 87.4495 76.7432C87.7705 77.134 89.5917 78.0062 87.5821 78.7668L87.5542 78.7598Z" fill="#CADDC2"/>
<path d="M114.691 75.3056C114.782 72.7447 117.078 74.1961 117.322 74.4124C117.518 74.5884 117.674 74.8036 117.781 75.0441C117.888 75.2845 117.944 75.5447 117.944 75.808C117.944 76.0712 117.888 76.3314 117.781 76.5719C117.674 76.8123 117.518 77.0275 117.322 77.2035C116.799 77.5943 114.929 79.1712 114.691 76.5476C115.264 76.1429 115.236 75.7103 114.691 75.3056Z" fill="#C8E4BF"/>
<path d="M55.8613 72.5145C56.9638 72.7029 58.0593 72.9401 59.1618 73.0727C60.2643 73.2053 61.5133 73.4216 61.7366 71.7539L62.6158 71.8586L61.7785 74.5311C59.427 74.9707 57.6616 73.7007 55.8613 72.5145Z" fill="#EFBE86"/>
<path d="M90.4792 59.7039C90.6606 60.4505 90.0745 60.7227 89.5791 60.8552C88.7417 61.0855 88.3929 60.4575 88.2673 59.7667C88.2228 59.6333 88.2099 59.4914 88.2297 59.3523C88.2495 59.2131 88.3014 59.0804 88.3812 58.9647C88.4611 58.8489 88.5667 58.7534 88.6898 58.6855C88.8129 58.6176 88.9502 58.5793 89.0906 58.5735C89.928 58.4688 90.2908 58.9643 90.4792 59.7039Z" fill="#C2DDB1"/>
<path d="M89.5836 73.3033C89.4441 73.8964 89.2277 74.4476 88.4602 74.1825C88.1818 74.0937 87.9432 73.9106 87.7852 73.6648C87.6273 73.419 87.56 73.1258 87.5949 72.8358C87.5898 72.6909 87.6202 72.5471 87.6836 72.4167C87.7469 72.2864 87.8413 72.1736 87.9583 72.0882C88.0754 72.0028 88.2116 71.9474 88.3551 71.9269C88.4985 71.9064 88.6448 71.9214 88.7812 71.9705C89.4789 72.131 89.5766 72.7032 89.5836 73.3033Z" fill="#C6E3BB"/>
<path d="M106.828 76.0523C108.16 75.9337 108.502 76.5268 108.6 77.2385C108.718 78.0828 108.042 78.0758 107.49 78.041C106.939 78.0061 106.22 78.2433 106.158 77.4339C106.111 77.1625 106.151 76.8833 106.271 76.6356C106.391 76.3878 106.586 76.1838 106.828 76.0523Z" fill="#BDDDAD"/>
<path d="M89.3334 49.418C89.5567 48.7691 89.7311 48.0713 90.6313 48.1132C90.7745 48.0987 90.9191 48.1172 91.054 48.1673C91.1889 48.2174 91.3106 48.2977 91.4096 48.4022C91.5087 48.5066 91.5825 48.6323 91.6253 48.7697C91.6682 48.9071 91.6791 49.0525 91.657 49.1947C91.657 49.9344 91.3011 50.5903 90.4359 50.4438C89.9335 50.36 89.2985 50.1926 89.3334 49.418Z" fill="#C1DFB6"/>
<path d="M50.6274 59.9402C53.0487 59.689 53.3697 61.28 53.6139 63.2337C51.6601 63.1709 52.7138 60.0449 50.5367 60.6031C50.4961 60.3781 50.5279 60.1461 50.6274 59.9402Z" fill="#E59869"/>
<path d="M85.0711 67.0928C84.8269 67.8604 84.4571 68.2511 83.8081 68.2372C83.3406 68.2372 82.8591 68.1046 82.8522 67.5394C82.8335 67.3702 82.8555 67.1989 82.9164 67.04C82.9774 66.881 83.0754 66.7389 83.2024 66.6256C83.3294 66.5122 83.4817 66.4309 83.6466 66.3884C83.8114 66.3458 83.984 66.3433 84.15 66.3811C84.4989 66.409 84.799 66.8695 85.0711 67.0928Z" fill="#C0DFB7"/>
<path d="M116.122 71.6361C114.921 71.4338 114.768 71.036 114.796 70.5615C114.79 70.4485 114.812 70.3358 114.86 70.2331C114.908 70.1304 114.979 70.0409 115.069 69.9722C115.159 69.9036 115.265 69.8578 115.376 69.8389C115.488 69.82 115.602 69.8285 115.71 69.8638C115.817 69.8774 115.921 69.9124 116.015 69.9668C116.108 70.0212 116.19 70.0938 116.255 70.1803C116.32 70.2668 116.367 70.3655 116.393 70.4706C116.42 70.5756 116.424 70.6848 116.408 70.7918C116.359 71.087 116.263 71.3722 116.122 71.6361Z" fill="#BFE0B4"/>
<path d="M107.701 91.9476C107.415 90.887 105.733 91.9476 105.607 90.6079C106.703 89.3519 107.477 90.6916 108.315 91.0335C108.566 91.1242 108.154 91.7592 107.701 91.9476Z" fill="#6E9278"/>
<path d="M114.693 75.3056C115.39 75.3824 116.549 74.866 116.423 76.122C116.353 76.8826 115.328 76.5895 114.686 76.5616C114.686 76.1429 114.693 75.7103 114.693 75.3056Z" fill="#F6FBF6"/>
<path d="M99.9687 46.2209L99.1593 46.8419C99.0198 46.6047 98.7476 46.3395 98.7895 46.1442C98.8314 45.9488 99.1663 45.7395 99.3756 45.5371L99.9687 46.2209Z" fill="#EBF8E3"/>
<path d="M52.5472 140.2C54.1591 143.361 55.7291 146.55 57.3899 149.683C59.2041 153.109 59.0506 156.773 58.8413 160.45C58.7968 161.026 58.5976 161.579 58.2647 162.05C57.9319 162.522 57.4777 162.895 56.9503 163.13C50.9213 162.432 47.879 158.308 45.7088 153.221C45.0808 151.728 44.7459 150.095 42.806 149.732C39.1915 144.547 34.7047 140.012 31.3832 134.611C28.2989 129.615 24.8937 124.737 24.8867 118.499C27.6151 117.166 30.3016 118.206 32.8415 118.938C36.507 119.933 39.9294 121.669 42.8967 124.039C44.404 125.609 45.4018 127.528 46.6718 129.287C47.0137 129.824 47.2928 130.396 47.5789 130.961C48.3627 132.605 49.2971 134.172 50.3701 135.644C51.354 137.025 52.0906 138.567 52.5472 140.2Z" fill="#227464"/>
<path d="M42.8955 124.842C37.4249 121.199 31.5287 118.778 24.8789 118.485C24.8789 115.505 24.8231 112.526 24.8092 109.546C24.8092 108.507 24.7394 107.404 26.1628 107.174C32.0381 110.342 38.3739 111.158 44.926 110.816C46.4407 110.759 47.8957 110.211 49.0708 109.253C51.1641 110.893 51.8131 113.377 52.769 115.673C49.9151 118.771 46.8798 121.702 44.3259 125.079C44.0863 125.16 43.8305 125.18 43.5811 125.139C43.3317 125.097 43.0962 124.995 42.8955 124.842Z" fill="#134239"/>
<path d="M31.0332 151.343C26.7138 152.997 22.2131 152.62 17.7402 152.599C19.4219 151.385 21.3478 152.244 23.1411 151.985C23.7971 151.888 24.6484 152.216 24.9903 151.413C25.3322 150.611 24.5088 150.227 24.139 149.676C16.8959 138.832 12.5487 127.102 13.5884 113.837C13.7907 111.388 13.8675 108.799 15.3608 106.482C11.9067 124.555 18.3543 139.041 31.0332 151.343Z" fill="#46A323"/>
<path d="M8.70312 96.1759C8.8985 94.257 10.4615 93.4894 11.8292 92.5684C11.3128 94.2221 10.0708 95.2548 8.70312 96.1759Z" fill="#46A224"/>
<path d="M50.5727 93.3426L49.1772 92.6448C44.4532 87.0138 45.5697 81.4804 51.9683 78.6265C56.6573 77.7124 58.8204 79.1847 60.2858 84.2924C60.1113 90.5375 57.0551 93.3635 50.5727 93.3426Z" fill="#D6FA9B"/>
<path d="M30.2934 85.0256C29.6445 82.2345 28.856 79.4923 31.5145 77.1198C32.1076 76.5965 31.6261 75.3754 31.3261 74.4753C30.74 72.7378 29.9305 71.0283 30.4329 69.1094C33.9776 74.8032 34.0335 75.4382 31.6889 83.6161C31.0679 83.9371 31.661 85.4792 30.2934 85.0256Z" fill="#9ED746"/>
<path d="M48.3102 99.2114C42.414 94.9759 37.4737 98.0392 35.4083 106.887C34.5012 105.191 34.8989 102.17 36.427 100.258C38.7716 97.3553 41.6185 95.1853 45.5819 95.6458C47.1658 95.8202 48.7009 96.6924 48.3102 99.2114Z" fill="#A0DB4A"/>
<path d="M42.8963 91.9899C42.1357 91.9899 41.3053 91.8713 40.803 92.6877C37.4257 91.8085 33.3926 91.9341 32.5762 87.1055C35.1789 90.5315 39.205 90.8595 42.8963 91.9899Z" fill="#A4DE4E"/>
<path d="M30.293 85.0264L31.6885 83.6309C31.6467 84.4752 31.8839 85.4869 30.907 85.8916C30.4325 86.08 30.3348 85.4311 30.293 85.0264Z" fill="#A4DE4E"/>
<path d="M44.2913 124.723C46.072 120.859 49.0563 117.677 52.7974 115.651C58.4216 121.631 62.8247 128.547 67.6534 135.134C72.2867 141.456 76.5572 148.022 80.5625 154.763L81.3022 156.856C82.3279 161.329 82.2442 161.392 77.8132 160.226C74.9383 159.48 72.3356 157.889 69.3351 157.554L53.3417 139.411C51.3809 138.713 51.2483 136.376 49.7131 135.273C48.9177 133.794 47.9617 132.419 47.0546 131.01C46.8184 130.875 46.6267 130.675 46.5027 130.433C46.3788 130.192 46.328 129.919 46.3568 129.649C45.6869 128.044 43.8936 126.823 44.2913 124.723Z" fill="#227465"/>
<path d="M94.4337 163.766C97.9226 163.877 97.6365 165.992 96.7713 168.315C95.7386 171.106 93.1777 173.2 92.9963 176.374L88.9492 167.896C90.1564 165.678 91.6985 163.94 94.4337 163.766Z" fill="#2C541C"/>
<path d="M94.4338 163.764L88.9493 167.895L85.3418 161.81C88.5446 161.761 91.4194 163.08 94.4338 163.764Z" fill="#4BB128"/>
<path d="M65.078 179.966H63.1382C56.935 174.383 49.9921 169.701 44.0401 163.833C43.1609 162.968 43.0423 162.633 44.3471 162.438L47.0405 163.17C51.0806 167.81 56.2442 171.139 60.9332 175.032C62.6478 176.4 64.292 177.853 65.8595 179.386C66.327 179.819 65.399 179.798 65.078 179.966Z" fill="#4BB228"/>
<path d="M49.8735 135.154C51.5342 136.173 52.2668 137.945 53.3135 139.453L52.5599 140.199C51.0667 139.167 50.7457 137.408 49.8176 135.971C49.7338 135.908 49.6727 135.819 49.6437 135.719C49.6148 135.618 49.6195 135.51 49.6572 135.412C49.713 135.238 49.7897 135.154 49.8735 135.154Z" fill="#3E9D33"/>
<path d="M64.8892 68.3768C63.4449 68.3 62.0144 67.5045 62.2726 66.1927C62.6494 64.3017 64.659 65.0065 66.0406 64.8809C66.9337 64.7902 67.8339 64.6716 67.7152 66.2765C67.5687 68.2721 66.3755 68.4116 64.8892 68.3768Z" fill="#FAF3E8"/>
<path d="M54.6742 61.2932C54.7231 59.5069 53.9765 57.9509 53.2787 56.3669C52.7902 55.2086 52.0506 54.0643 53.2787 52.9199C54.6742 54.2387 54.8905 56.0111 55.1906 57.7625C55.3092 58.9208 55.4348 60.0791 55.5534 61.2514L54.6742 61.2932Z" fill="#F7E76A"/>
<path d="M55.2262 57.7627C54.2353 56.2904 53.2654 54.8041 53.3143 52.9201C54.012 52.1247 54.7098 53.1713 55.4076 52.9201C56.9427 53.7854 58.5267 54.5111 60.3548 54.4064C58.5127 55.3065 55.9379 55.0972 55.2262 57.7627Z" fill="#EEBE78"/>
<path d="M60.2278 61.7966C58.909 61.5524 58.0578 60.9034 58.0508 59.5358C58.0508 58.0495 58.7904 57.1075 60.3116 57.1424C60.5996 57.1249 60.888 57.169 61.1576 57.2717C61.4272 57.3744 61.6719 57.5334 61.8752 57.7381C62.0786 57.9427 62.236 58.1884 62.3369 58.4587C62.4379 58.729 62.4801 59.0176 62.4607 59.3055C62.4817 60.8127 61.5536 61.5244 60.2278 61.7966Z" fill="#E7B87F"/>
<path d="M70.4093 58.824C70.1791 59.9683 69.8162 61.1196 68.5463 61.0289C68.2544 61.0096 67.9698 60.9292 67.7109 60.7931C67.4519 60.657 67.2244 60.4681 67.0429 60.2387C66.8615 60.0092 66.7301 59.7443 66.6574 59.461C66.5846 59.1776 66.572 58.8822 66.6204 58.5937C66.6972 57.568 66.8995 56.3887 68.3509 56.5004C69.8023 56.612 70.2209 57.6657 70.4093 58.824Z" fill="#D4B06E"/>
<path d="M60.9199 54.4209H66.1742C64.4437 57.4562 62.6713 54.6791 60.9199 54.4209Z" fill="#EEBE78"/>
<path d="M97.0081 55.2652C96.5615 55.4396 96.3103 55.635 96.0452 55.6211C95.9359 55.6202 95.8278 55.5975 95.7273 55.5544C95.6269 55.5113 95.536 55.4487 95.46 55.3701C95.384 55.2915 95.3244 55.1985 95.2847 55.0967C95.245 54.9948 95.226 54.886 95.2288 54.7768C95.2288 54.2046 95.5079 53.9604 96.0033 54.2534C96.3801 54.5463 96.7178 54.8864 97.0081 55.2652Z" fill="#F3F9F1"/>
<path d="M87.5548 78.76C86.9268 78.6344 86.1104 79.0112 85.7754 78.139C85.774 78.0399 85.7984 77.9422 85.8461 77.8554C85.8938 77.7685 85.9632 77.6955 86.0476 77.6436C86.9407 77.4691 87.1989 78.1948 87.5548 78.767V78.76Z" fill="#E6FCDB"/>
<path d="M44.2912 124.724L46.3845 129.692C44.6819 128.464 43.8865 126.601 42.9375 124.807L44.2912 124.724Z" fill="#3E9D3C"/>
<path d="M49.8743 135.156C49.8743 135.428 49.8743 135.7 49.8184 135.972C48.5973 134.5 47.3274 133.048 47.0273 131.053C48.4267 132.046 49.434 133.497 49.8743 135.156Z" fill="#369248"/>
<path d="M56.0352 81.6002C58.5681 83.9657 58.8891 86.359 56.8585 88.7803C55.1001 90.8737 52.8882 91.718 50.439 90.0852C47.9898 88.4524 47.8921 86.073 49.1621 83.6307C50.6832 80.7001 52.6998 80.1419 56.0491 81.6142C55.7393 82.166 55.33 82.6557 54.842 83.0586C53.6906 84.4541 50.1808 84.7472 52.5602 87.8314C54.5489 88.3477 54.9257 86.9591 55.149 85.5566C55.3723 84.1541 55.1978 82.8004 56.0352 81.6002Z" fill="#ACE858"/>
<path d="M60.8564 59.9544C60.7098 60.0381 60.4237 60.3242 60.1586 60.2963C59.6283 60.2335 59.5027 59.766 59.5445 59.2845C59.5864 58.8031 60.0121 58.4542 60.4726 58.6426C60.9331 58.831 61.1076 59.2845 60.8564 59.9544Z" fill="#5D4222"/>
<path d="M69.2777 59.5074C68.8311 59.5842 68.3846 59.7726 68.2799 59.654C68.1807 59.5241 68.1087 59.3757 68.0679 59.2175C68.0271 59.0593 68.0186 58.8945 68.0426 58.7329C68.1194 58.2863 68.5101 58.3003 68.7753 58.5585C68.9828 58.8519 69.1517 59.1709 69.2777 59.5074Z" fill="#31270F"/>
<path d="M54.7577 82.3325L56.0626 81.6348C56.1393 83.0991 56.1393 84.5664 56.0626 86.0307C55.8253 88.6962 54.6042 90.0081 51.8131 88.6753C51.7015 86.0377 53.6832 84.398 54.7577 82.3325Z" fill="#419E1A"/>
<path d="M54.7584 82.332C54.6677 84.851 53.0838 86.6722 51.8208 88.612C49.7414 85.6674 49.9647 85.1859 54.7584 82.332Z" fill="#4DB528"/>
<path d="M103.439 122.3L103.04 122.828C101.671 120.804 101.804 120.319 103.933 119.592C104.48 120.623 103.952 121.464 103.439 122.3Z" fill="#399914"/>
<path d="M103.44 122.3C103.604 121.397 103.763 120.494 103.915 119.592C104.556 118.969 104.262 119.862 104.471 119.934C105.084 121.141 104.537 121.844 103.44 122.3Z" fill="#58B62A"/>
<path d="M76.1028 105.902C76.6819 105.26 77.7146 104.835 77.3378 103.655L64.8477 111.387C67.0945 114.275 69.2576 117.241 71.6161 120.032C72.6837 121.295 74.0164 122.725 75.9911 121.246C76.4168 119.753 75.1468 118.944 74.5956 117.869C71.9929 112.817 72.3208 110.089 76.1028 105.902Z" fill="#AEE959"/>
<path d="M75.9287 121.225C75.3705 120.478 74.7704 119.766 74.275 118.985C70.3186 112.768 71.0583 109.041 77.2964 103.634C82.158 101.919 86.1912 98.4296 88.5864 93.8648C90.268 90.8086 93.8197 91.1644 95.9968 89.1479C96.1014 89.0572 96.6248 89.2525 96.8062 89.4479C98.5297 91.2831 98.5297 91.304 100.511 89.8387C102.493 88.3733 104.119 89.8387 105.849 90.4667C106.617 90.7946 108.019 90.1387 107.943 91.8064C105.256 95.3999 101.174 96.0349 97.19 96.6908C96.0591 96.8233 94.9825 97.249 94.067 97.9259C93.1514 98.6028 92.4288 99.5072 91.9706 100.55C88.6213 107.046 84.8812 113.347 79.906 118.789C78.8454 119.983 77.9383 121.539 75.9287 121.225Z" fill="#134239"/>
<path fill-rule="evenodd" clip-rule="evenodd" d="M173.165 16.0591C178 19.7309 178.926 27.5051 175.125 34.0949C171.313 40.6847 164.12 43.7642 158.521 41.4169C157.067 40.8031 155.764 40.157 154.225 39.2633L161.687 26.3422L169.149 13.421C170.688 14.304 171.916 15.1008 173.165 16.0591Z" fill="url(#paint0_linear_2810_21970)"/>
<path fill-rule="evenodd" clip-rule="evenodd" d="M169.988 14.0133C175.469 17.179 176.686 25.3409 172.691 32.2537C168.696 39.1665 161.019 42.1922 155.538 39.0265C150.058 35.8609 148.841 27.699 152.836 20.7862C156.82 13.8734 164.497 10.8477 169.988 14.0133Z" fill="#FCCE3A"/>
<path fill-rule="evenodd" clip-rule="evenodd" d="M169.149 13.4102C174.942 16.7589 176.299 25.2546 172.185 32.3935C168.061 39.5325 160.029 42.6012 154.225 39.2633C148.432 35.9145 147.075 27.4189 151.188 20.2799C155.312 13.141 163.356 10.0615 169.149 13.4102Z" fill="url(#paint1_radial_2810_21970)"/>
<path fill-rule="evenodd" clip-rule="evenodd" d="M167.168 16.0478C171.507 18.5458 172.411 25.0926 169.192 30.6702C165.972 36.2478 159.856 38.7351 155.517 36.2263C151.178 33.7282 150.273 27.1815 153.493 21.6039C156.712 16.0262 162.828 13.5389 167.168 16.0478Z" fill="url(#paint2_radial_2810_21970)"/>
<path opacity="0.5" fill-rule="evenodd" clip-rule="evenodd" d="M155.85 23.8118C158.897 18.5357 164.69 16.1776 168.792 18.5464C169.385 18.891 169.902 19.3002 170.354 19.7847C169.697 18.2019 168.62 16.8882 167.156 16.0376C162.816 13.5395 156.7 16.0268 153.481 21.5937C150.261 27.1713 151.166 33.718 155.505 36.2161C155.817 36.3992 156.141 36.5499 156.474 36.6791C153.524 33.8688 153.158 28.4849 155.85 23.8118Z" fill="url(#paint3_radial_2810_21970)"/>
<path fill-rule="evenodd" clip-rule="evenodd" d="M154.925 22.4335C157.875 17.3297 163.248 14.81 167.458 16.339C167.587 16.3929 167.727 16.4359 167.857 16.5006C167.738 16.4144 167.631 16.339 167.512 16.2529C167.404 16.1775 167.286 16.1129 167.168 16.0483C162.828 13.5502 156.712 16.0375 153.493 21.6044C150.273 27.182 151.178 33.7288 155.517 36.2268C155.635 36.2914 155.754 36.3561 155.872 36.4207C156.001 36.4853 156.131 36.5499 156.26 36.6037C156.141 36.5176 156.034 36.4314 155.926 36.3345C152.48 33.4488 151.974 27.5266 154.925 22.4335Z" fill="url(#paint4_linear_2810_21970)"/>
<defs>
<linearGradient id="paint0_linear_2810_21970" x1="160.942" y1="43.1401" x2="175.867" y2="17.2894" gradientUnits="userSpaceOnUse">
<stop stop-color="#E86F0C"/>
<stop offset="0.6877" stop-color="#FC940D"/>
<stop offset="1" stop-color="#E86F0C"/>
</linearGradient>
<radialGradient id="paint1_radial_2810_21970" cx="0" cy="0" r="1" gradientUnits="userSpaceOnUse" gradientTransform="translate(156.337 12.8808) scale(26.0827 26.0827)">
<stop stop-color="#FCF80D"/>
<stop offset="1" stop-color="#FC9C0D"/>
</radialGradient>
<radialGradient id="paint2_radial_2810_21970" cx="0" cy="0" r="1" gradientUnits="userSpaceOnUse" gradientTransform="translate(148.834 10.2947) scale(31.8706 31.8706)">
<stop stop-color="#FCF80D"/>
<stop offset="1" stop-color="#F78A0C"/>
</radialGradient>
<radialGradient id="paint3_radial_2810_21970" cx="0" cy="0" r="1" gradientUnits="userSpaceOnUse" gradientTransform="translate(166.604 28.5644) scale(18.4126 18.4126)">
<stop offset="0.5149" stop-color="white"/>
<stop offset="0.6851" stop-color="#FFE2C3"/>
<stop offset="1" stop-color="#FFA84B"/>
</radialGradient>
<linearGradient id="paint4_linear_2810_21970" x1="151.947" y1="34.1695" x2="163.424" y2="14.2899" gradientUnits="userSpaceOnUse">
<stop stop-color="#FC940D"/>
<stop offset="1" stop-color="#E86F0C"/>
</linearGradient>
</defs>
</svg>
