<svg width="24" height="24" viewBox="0 0 24 24" fill="none" xmlns="http://www.w3.org/2000/svg">
<g clip-path="url(#clip0_1647_26020)">
<path d="M4 5C3.44772 5 3 5.44772 3 6C3 6.55228 3.44772 7 4 7H22C22.5523 7 23 6.55228 23 6C23 5.44772 22.5523 5 22 5H4Z" fill="#95A198" fill-opacity="0.01"/>
<path d="M21.8889 19H4.11111C3.49746 19 3 18.5523 3 18C3 17.4477 3.49746 17 4.11111 17H21.8889C22.5025 17 23 17.4477 23 18C23 18.5523 22.5025 19 21.8889 19Z" fill="#95A198" fill-opacity="0.01"/>
<path d="M21.8889 13H4.11111C3.49746 13 3 12.5523 3 12C3 11.4477 3.49746 11 4.11111 11H21.8889C22.5025 11 23 11.4477 23 12C23 12.5523 22.5025 13 21.8889 13Z" fill="#95A198" fill-opacity="0.01"/>
<path d="M3 4C2.44772 4 2 4.44772 2 5C2 5.55228 2.44772 6 3 6H21C21.5523 6 22 5.55228 22 5C22 4.44772 21.5523 4 21 4H3Z" fill="#C4D4C8"/>
<path d="M20.8889 18H3.11111C2.49746 18 2 17.5523 2 17C2 16.4477 2.49746 16 3.11111 16H20.8889C21.5025 16 22 16.4477 22 17C22 17.5523 21.5025 18 20.8889 18Z" fill="#C4D4C8"/>
<path d="M20.8889 12H3.11111C2.49746 12 2 11.5523 2 11C2 10.4477 2.49746 10 3.11111 10H20.8889C21.5025 10 22 10.4477 22 11C22 11.5523 21.5025 12 20.8889 12Z" fill="#C4D4C8"/>
</g>
<defs>
<clipPath id="clip0_1647_26020">
<rect width="24" height="24" fill="white"/>
</clipPath>
</defs>
</svg>
