<svg width="25" height="24" viewBox="0 0 25 24" fill="none" xmlns="http://www.w3.org/2000/svg">
<g clip-path="url(#clip0_1647_26085)">
<path d="M4.5 5C3.94772 5 3.5 5.44772 3.5 6C3.5 6.55228 3.94772 7 4.5 7H22.5C23.0523 7 23.5 6.55228 23.5 6C23.5 5.44772 23.0523 5 22.5 5H4.5Z" fill="#95A198" fill-opacity="0.01"/>
<path d="M22.3889 19H4.61111C3.99746 19 3.5 18.5523 3.5 18C3.5 17.4477 3.99746 17 4.61111 17H22.3889C23.0025 17 23.5 17.4477 23.5 18C23.5 18.5523 23.0025 19 22.3889 19Z" fill="#95A198" fill-opacity="0.01"/>
<path d="M22.3889 13H4.61111C3.99746 13 3.5 12.5523 3.5 12C3.5 11.4477 3.99746 11 4.61111 11H22.3889C23.0025 11 23.5 11.4477 23.5 12C23.5 12.5523 23.0025 13 22.3889 13Z" fill="#95A198" fill-opacity="0.01"/>
<path d="M3.5 3.5C2.67157 3.5 2 4.17157 2 5C2 5.82843 2.67157 6.5 3.5 6.5H21.5C22.3284 6.5 23 5.82843 23 5C23 4.17157 22.3284 3.5 21.5 3.5H3.5ZM3.61111 18.5H21.3889C22.2278 18.5 23 17.8767 23 17C23 16.1233 22.2278 15.5 21.3889 15.5H3.61111C2.77218 15.5 2 16.1233 2 17C2 17.8767 2.77217 18.5 3.61111 18.5ZM3.61111 12.5H21.3889C22.2278 12.5 23 11.8767 23 11C23 10.1233 22.2278 9.5 21.3889 9.5H3.61111C2.77218 9.5 2 10.1233 2 11C2 11.8767 2.77218 12.5 3.61111 12.5Z" fill="#22AA22" stroke="#086008"/>
</g>
<defs>
<clipPath id="clip0_1647_26085">
<rect width="24" height="24" fill="white" transform="translate(0.5)"/>
</clipPath>
</defs>
</svg>
