<svg width="56" height="56" viewBox="0 0 56 56" fill="none" xmlns="http://www.w3.org/2000/svg">
<rect x="4.5" y="4.5" width="47" height="47" rx="23.5" fill="#868886" stroke="#868886"/>
<path d="M18.5648 15C16.0648 15 13.5648 18 14.0648 23.5C14.5648 29 21.5648 33 21.5648 35.5L21.5648 49C21.5648 49 23.4999 50.4997 29.0648 50.5C35.0098 50.5003 36.5648 48 36.5648 48L36.5649 36C36.5649 34 39.0648 31.5001 40.0648 29.5C41.2764 27.0768 41.0784 22.3049 40.1548 17.9161C40.1023 17.6667 39.8951 17.4803 39.6419 17.4508L18.5648 15Z" fill="white"/>
<path d="M35.0471 13.9195L35.0491 13.9209C37.8371 16.0384 38.4646 20.6349 36.1539 24.6413C33.8366 28.6473 29.5442 30.3993 26.3149 29.0461C25.5578 28.7264 24.8677 28.393 24.0972 27.9637L28.5492 20.2547L33.0017 12.5448C33.761 12.996 34.4 13.4229 35.0471 13.9195Z" fill="white" stroke="#868886"/>
<path d="M22.9703 16.7522L22.97 16.7527C20.5333 20.9693 21.3628 25.7606 24.4908 27.5673C27.6186 29.3739 32.1831 27.6977 34.62 23.4808C37.0566 19.2643 36.2271 14.4731 33.0993 12.6663L22.9703 16.7522ZM22.9703 16.7522C25.3998 12.5365 29.9641 10.8593 33.0992 12.6663L22.9703 16.7522Z" fill="white" stroke="#868886"/>
<path d="M32.5699 12.2861C35.9028 14.2127 36.807 19.22 34.3009 23.5696C31.7885 27.9182 27.0023 29.6369 23.6625 27.7163C20.3302 25.7895 19.4262 20.7826 21.932 16.4333C24.4449 12.0835 29.2379 10.36 32.5699 12.2861Z" fill="white" stroke="#868886"/>
<path d="M31.3208 13.9489L31.3216 13.9494C33.7219 15.3311 34.3678 19.0985 32.4141 22.4832C30.4606 25.8675 26.8785 27.1908 24.4775 25.8026L24.4767 25.8021C22.0765 24.4204 21.4305 20.6529 23.3842 17.2682C25.3377 13.884 28.9198 12.5607 31.3208 13.9489Z" fill="white" stroke="#868886"/>
<path opacity="0.5" d="M24.0048 18.1598L24.0045 18.1603C22.83 20.1993 22.5111 22.4975 23.0349 24.3921C21.9094 22.5918 21.9022 19.8176 23.3775 17.2617C25.3306 13.8849 28.9125 12.5605 31.3141 13.9422C31.4349 14.0124 31.5512 14.0884 31.6629 14.1698C28.9382 13.4508 25.7418 15.1521 24.0048 18.1598Z" fill="white" stroke="#868886"/>
<path d="M23.4212 17.2904C22.9526 18.0993 22.6126 18.9483 22.4007 19.7993C22.5791 18.96 22.9027 18.1025 23.3842 17.2683C23.8713 16.4261 24.4598 15.7115 25.106 15.1348C24.467 15.7475 23.8941 16.4724 23.4212 17.2904Z" fill="white" stroke="#868886"/>
<rect x="40.0233" y="19.0854" width="4.64824" height="9.29648" rx="2" transform="rotate(-180 40.0233 19.0854)" fill="white" stroke="#868886"/>
<rect x="35.3768" y="20.0151" width="5.57789" height="12.0854" rx="2" transform="rotate(-180 35.3768 20.0151)" fill="white" stroke="#868886"/>
<rect x="29.7987" y="20.0151" width="6.50754" height="13.0151" rx="2" transform="rotate(-180 29.7987 20.0151)" fill="white" stroke="#868886"/>
<rect x="23.2909" y="20.0151" width="6.50754" height="11.1558" rx="2" transform="rotate(-180 23.2909 20.0151)" fill="white" stroke="#868886"/>
<path d="M18.5643 15C16.1399 15 13.7155 17.8214 14.0271 23.0081C14.0443 23.294 14.2699 23.5211 14.5548 23.5502L17.9047 23.8934C18.2576 23.9295 18.5615 23.6483 18.5862 23.2945C18.9791 17.6552 24.537 23.3047 24.537 17.9749C24.537 15.1957 22.0643 15 18.5643 15Z" fill="white"/>
<path d="M18.5644 23.9608C18.5644 17.2263 24.5371 23.4999 24.5371 17.9748C24.5371 15.1955 22.0644 14.9998 18.5644 14.9998C16.0644 14.9998 13.5644 17.9998 14.0644 23.4999C14.5644 28.9999 21.5644 32.9999 21.5644 35.4999C21.5644 37.9999 21.5644 48.5 21.5644 49M40.0644 17.4999C41.0644 20.9999 41.3142 26.9999 40.0644 29.4999C38.5646 32.5 36.5645 33.9999 36.5645 35.9999C36.5645 37.2388 36.5645 47.4998 36.5645 48.1665" stroke="#868886"/>
</svg>
