<svg width="56" height="56" viewBox="0 0 56 56" fill="none" xmlns="http://www.w3.org/2000/svg">
<rect x="4.5" y="4.5" width="47" height="47" rx="23.5" fill="#868886" stroke="#868886"/>
<path d="M18.5649 14.9999C16.0649 14.9999 13.5649 17.9999 14.0649 23.4999C14.565 28.9999 21.565 32.9999 21.565 35.4999L21.565 48.9999C21.565 48.9999 23.5 50.4996 29.0649 50.4999C35.0099 50.5003 36.5649 47.9999 36.5649 47.9999L36.565 35.9999C36.565 33.9999 39.0649 31.5 40.0649 29.4999C41.2765 27.0768 41.0785 22.3048 40.1549 17.9161C40.1024 17.6666 39.8952 17.4802 39.642 17.4508L18.5649 14.9999Z" fill="white"/>
<path d="M35.0471 13.9195L35.0491 13.921C37.8371 16.0384 38.4646 20.635 36.1539 24.6414C33.8366 28.6474 29.5442 30.3994 26.3149 29.0462C25.5578 28.7265 24.8677 28.393 24.0972 27.9638L28.5492 20.2548L33.0017 12.5448C33.761 12.996 34.4 13.423 35.0471 13.9195Z" fill="white" stroke="#868886"/>
<path d="M22.9703 16.7522L22.97 16.7527C20.5333 20.9693 21.3629 25.7606 24.4908 27.5673C27.6187 29.3739 32.1832 27.6977 34.62 23.4808C37.0567 19.2643 36.2272 14.4731 33.0993 12.6663L22.9703 16.7522ZM22.9703 16.7522C25.3999 12.5365 29.9641 10.8593 33.0992 12.6663L22.9703 16.7522Z" fill="white" stroke="#868886"/>
<path d="M32.5699 12.2861C35.9028 14.2127 36.807 19.22 34.3009 23.5696C31.7885 27.9182 27.0023 29.6369 23.6625 27.7163C20.3302 25.7895 19.4262 20.7826 21.932 16.4333C24.4449 12.0835 29.2379 10.36 32.5699 12.2861Z" fill="white" stroke="#868886"/>
<path d="M31.3209 13.9489L31.3217 13.9494C33.7219 15.3311 34.3678 19.0985 32.4141 22.4832C30.4607 25.8675 26.8786 27.1908 24.4775 25.8026L24.4767 25.8021C22.0765 24.4204 21.4306 20.6529 23.3843 17.2682C25.3378 13.884 28.9198 12.5607 31.3209 13.9489Z" fill="white" stroke="#868886"/>
<path opacity="0.5" d="M24.0049 18.1598L24.0046 18.1603C22.8301 20.1993 22.5112 22.4976 23.035 24.3921C21.9095 22.5918 21.9024 19.8177 23.3776 17.2618C25.3307 13.885 28.9126 12.5605 31.3142 13.9423C31.435 14.0125 31.5513 14.0884 31.663 14.1698C28.9383 13.4508 25.742 15.1522 24.0049 18.1598Z" fill="white" stroke="#868886"/>
<path d="M23.4212 17.2905C22.9527 18.0994 22.6127 18.9483 22.4008 19.7993C22.5791 18.9601 22.9027 18.1026 23.3842 17.2684C23.8714 16.4261 24.4598 15.7116 25.106 15.1348C24.467 15.7476 23.8941 16.4724 23.4212 17.2905Z" fill="white" stroke="#868886"/>
<rect x="40.0234" y="19.0854" width="4.64824" height="9.29648" rx="2" transform="rotate(-180 40.0234 19.0854)" fill="white" stroke="#868886"/>
<rect x="35.377" y="20.0151" width="5.57789" height="12.0854" rx="2" transform="rotate(-180 35.377 20.0151)" fill="white" stroke="#868886"/>
<rect x="29.7988" y="20.0151" width="6.50754" height="13.0151" rx="2" transform="rotate(-180 29.7988 20.0151)" fill="white" stroke="#868886"/>
<rect x="23.291" y="20.0151" width="6.50754" height="11.1558" rx="2" transform="rotate(-180 23.291 20.0151)" fill="white" stroke="#868886"/>
<path d="M18.5645 14.9999C16.14 14.9999 13.7156 17.8213 14.0272 23.008C14.0444 23.2939 14.2701 23.521 14.555 23.5502L17.9049 23.8933C18.2577 23.9295 18.5617 23.6483 18.5863 23.2944C18.9792 17.6551 24.5371 23.3046 24.5371 17.9749C24.5371 15.1956 22.0645 14.9999 18.5645 14.9999Z" fill="white"/>
<path d="M18.5644 23.9609C18.5644 17.2264 24.5371 23.5 24.5371 17.9749C24.5371 15.1957 22.0644 15 18.5644 15C16.0644 15 13.5644 18 14.0644 23.5C14.5644 29 21.5644 33 21.5644 35.5C21.5644 38 21.5644 48.5001 21.5644 49.0001M40.0644 17.5C41.0644 21 41.3142 27 40.0644 29.5C38.5646 32.5001 36.5645 34 36.5645 36C36.5645 37.2389 36.5645 47.5 36.5645 48.1666" stroke="#868886"/>
</svg>
