<svg width="56" height="56" viewBox="0 0 56 56" fill="none" xmlns="http://www.w3.org/2000/svg">
<rect x="56" y="56" width="56" height="56" rx="28" transform="rotate(-180 56 56)" fill="white"/>
<path d="M10 17.5786C10 16.463 10.7385 15.4835 11.8226 15.2204C13.8878 14.7192 17.3035 14 19.9 14C22.4965 14 25.9122 14.7192 27.9774 15.2204C29.0615 15.4835 29.8 16.463 29.8 17.5786V39.4834C29.8 41.1451 28.2055 42.3591 26.5822 42.0044C24.5689 41.5644 21.9733 41.1059 19.9 41.1059C17.8267 41.1059 15.2311 41.5644 13.2178 42.0044C11.5945 42.3591 10 41.1451 10 39.4834V17.5786Z" fill="#22AA22"/>
<path d="M26.1992 17.5786C26.1992 16.463 26.9377 15.4835 28.0219 15.2204C30.087 14.7192 33.5027 14 36.0992 14C38.6957 14 42.1114 14.7192 44.1766 15.2204C45.2607 15.4835 45.9992 16.463 45.9992 17.5786V39.4834C45.9992 41.1451 44.4047 42.3591 42.7814 42.0044C40.7681 41.5644 38.1725 41.1059 36.0992 41.1059C34.0259 41.1059 31.4303 41.5644 29.4171 42.0044C27.7937 42.3591 26.1992 41.1451 26.1992 39.4834V17.5786Z" fill="#22AA22"/>
<path d="M11.8008 17.399C11.8008 16.3186 12.4944 15.3605 13.5368 15.0768C15.2423 14.6125 17.876 14 19.9008 14C21.9256 14 24.5593 14.6125 26.2648 15.0768C27.3072 15.3605 28.0008 16.3186 28.0008 17.399V37.5483C28.0008 39.2498 26.3314 40.4717 24.674 40.0865C23.1528 39.733 21.3671 39.4118 19.9008 39.4118C18.4344 39.4118 16.6487 39.733 15.1275 40.0865C13.4702 40.4717 11.8008 39.2499 11.8008 37.5483V17.399Z" fill="white" stroke="#22AA22" stroke-width="1.25"/>
<path d="M28 17.399C28 16.3186 28.6936 15.3605 29.736 15.0768C31.4415 14.6125 34.0752 14 36.1 14C38.1248 14 40.7585 14.6125 42.464 15.0768C43.5064 15.3605 44.2 16.3186 44.2 17.399V37.5483C44.2 39.2498 42.5306 40.4717 40.8732 40.0865C39.352 39.733 37.5664 39.4118 36.1 39.4118C34.6336 39.4118 32.848 39.733 31.3268 40.0865C29.6694 40.4717 28 39.2499 28 37.5483V17.399Z" fill="white" stroke="#22AA22" stroke-width="1.25"/>
<line x1="40.5996" y1="18.8496" x2="35.1996" y2="18.8496" stroke="#93D193" stroke-width="2.5"/>
<line x1="24.3984" y1="18.8496" x2="18.9984" y2="18.8496" stroke="#93D193" stroke-width="2.5"/>
<line x1="40.5996" y1="23.6249" x2="33.3996" y2="23.6249" stroke="#93D193" stroke-width="1.25"/>
<line x1="24.3984" y1="23.6249" x2="17.1984" y2="23.6249" stroke="#93D193" stroke-width="1.25"/>
<line x1="40.5996" y1="27.2245" x2="33.3996" y2="27.2245" stroke="#93D193" stroke-width="1.25"/>
<line x1="24.3984" y1="27.2245" x2="17.1984" y2="27.2245" stroke="#93D193" stroke-width="1.25"/>
<line x1="40.5996" y1="30.8242" x2="35.1996" y2="30.8242" stroke="#93D193" stroke-width="1.25"/>
<line x1="24.3984" y1="30.8242" x2="18.9984" y2="30.8242" stroke="#93D193" stroke-width="1.25"/>
<line x1="40.6016" y1="34.4248" x2="33.4016" y2="34.4248" stroke="#93D193" stroke-width="1.25"/>
<line x1="24.3984" y1="34.4248" x2="17.1984" y2="34.4248" stroke="#93D193" stroke-width="1.25"/>
</svg>
