<svg width="56" height="56" viewBox="0 0 56 56" fill="none" xmlns="http://www.w3.org/2000/svg">
<rect x="4.5" y="4.5" width="47" height="47" rx="23.5" fill="#EC7B29" stroke="#EC7B29"/>
<path d="M12.9975 12.9551C12.4795 11.9559 12.5742 10.4887 13.5 10.0728C13.8688 9.9072 14.4232 10.0775 14.4405 10.0726C14.4576 10.0679 15.0902 10.2613 15.8464 10.5024C19.7024 11.732 22 15.6823 21.5 20.0728C21.5 20.0728 25.8478 23.0728 28.1358 22.5948C29.5 22.5948 45.5151 18.8063 48 17.9663C48 17.9663 49.8942 20.8904 50.5 23C51.1606 25.3005 51 29.1084 51 29.1084C50.8464 29.0555 36.4381 32.9017 35.529 33.0488C32.8622 33.4806 32.9029 33.4616 32.9029 34.2742C32.9029 35.5329 32.0786 38.3819 31.235 40.0386C30.3778 41.7225 28.3597 44.1369 27.2053 44.8602C26.0611 45.577 25.2244 45.6536 24.189 45.1364C23.0629 44.5736 22.52 43.6824 22.5219 42.3998C22.5234 41.3296 22.7962 40.8362 24.2303 39.3088C24.749 38.7563 25.4768 37.6512 25.8478 36.8531C26.4638 35.5271 26.522 35.2096 26.522 33.1696C26.522 31.2256 26.4491 30.7784 25.9574 29.7093C24.7745 27.1365 22.5481 25.3623 19.7608 24.7716C16.2524 24.028 12.1825 26.0912 10.5336 29.4495L9.97493 30.8057C8.5 33.5725 5.66556 31.3254 6.47864 29.1084C6.82666 27.7604 8.37127 25.186 9.52719 24.0271C11.0251 22.5256 10.65 22.3564 8.7604 23.6813C7.27527 24.7225 6.58246 24.7931 5.66556 23.9968C5.12329 23.5259 5 23.2507 5 22.5113C5 21.7364 5.12848 21.4817 5.87948 20.766C6.62529 20.0554 9.21701 18.5601 10.732 17.9663C11.0508 17.8413 10.859 17.7609 10.0031 17.6609C8.6728 17.5055 7.81192 16.7279 7.81192 15.6823C7.81192 14.2883 8.70698 13.7668 11.5375 13.5117C13.065 13.3742 13.19 13.3264 12.9975 12.9551Z" fill="white"/>
<path d="M9.9751 29.8056L10.5338 28.4494C12.1827 25.0912 16.9916 23.7563 20.5 24.4999C23.2873 25.0906 25.317 26.4269 26.5 28.9998C26.9917 30.0689 27.2055 30.5558 27.2055 32.4998C27.2055 34.5398 27.116 35.1737 26.5 36.4998C26.129 37.2979 25.5187 38.486 25 39.0385C23.5659 40.566 23.0015 40.9295 23 41.9998C22.9981 43.2823 23.0631 43.5735 24.1891 44.1363C25.2246 44.6536 26.0612 44.577 27.2055 43.8602C28.3599 43.1368 30.1428 40.7225 31 39.0385C31.8436 37.3819 32.5 34.7584 32.5 33.4998C32.5 32.6871 32.8624 32.4805 35.5292 32.0488C36.4383 31.9017 50.8466 28.0554 51.0002 28.1083" stroke="white"/>
<path d="M51 29.1084C50.8464 29.0554 36.4381 32.9017 35.529 33.0488C32.8622 33.4806 32.9029 33.4616 32.9029 34.2742C32.9029 35.5329 32.0786 38.3819 31.235 40.0386C30.3778 41.7225 28.3597 44.1369 27.2053 44.8602C26.0611 45.577 25.2244 45.6536 24.189 45.1363C23.0629 44.5736 22.52 43.6824 22.5219 42.3998C22.5234 41.3296 22.7962 40.8362 24.2303 39.3088C24.749 38.7563 25.4768 37.6512 25.8478 36.8531C26.4638 35.5271 26.522 35.2096 26.522 33.1696C26.522 31.2256 26.4491 30.7784 25.9574 29.7093C24.7745 27.1364 22.5481 25.3623 19.7608 24.7716C16.2524 24.028 12.1825 26.0912 10.5336 29.4495L9.97493 30.8057C8.5 33.5725 5.66556 31.3254 6.47864 29.1084C6.82666 27.7604 8.37127 25.186 9.52719 24.0271C11.0251 22.5256 10.65 22.3564 8.7604 23.6813C7.27527 24.7225 6.58246 24.7931 5.66556 23.9967C5.12329 23.5259 5 23.2507 5 22.5113C5 21.7364 5.12848 21.4817 5.87948 20.766C6.62529 20.0554 9.21701 18.5601 10.732 17.9663C11.0508 17.8413 10.859 17.7609 10.0031 17.6609C8.6728 17.5055 7.81192 16.7279 7.81192 15.6823C7.81192 14.2883 8.70698 13.7668 11.5375 13.5117C13.065 13.3742 13.19 13.3264 12.9975 12.9551C12.4795 11.9559 12.5742 10.4887 13.5 10.0728C13.8688 9.90719 14.4232 10.0775 14.4405 10.0726C14.4576 10.0679 15.0902 10.2612 15.8464 10.5023C19.7024 11.732 22 15.6823 21.5 20.0728C21.5 20.0728 25.8478 23.0728 28.1358 22.5948C29.5 22.5948 45.5151 18.8063 48 17.9663" stroke="#EC7B29"/>
<path d="M10.5 23.0726C11.1667 22.2393 18.5 18.0726 26.5 22.5728M10.5 18.0726C11.5 17.7393 17.5 16.0728 21 20.6732C20.5 14.5728 14 13.0728 13 13.0728" stroke="#EC7B29" stroke-linecap="round" stroke-linejoin="round"/>
<path d="M20.0466 32.919L20.0486 32.9205C22.8366 35.0379 23.4641 39.6344 21.1534 43.6409C18.8361 47.6469 14.5437 49.3989 11.3144 48.0456C10.5573 47.726 9.86718 47.3925 9.09673 46.9633L13.5487 39.2542L18.0012 31.5443C18.7605 31.9955 19.3995 32.4224 20.0466 32.919Z" fill="white" stroke="#EC7B29"/>
<path d="M7.97105 35.7517L7.97076 35.7522C5.53406 39.9688 6.36363 44.7601 9.49155 46.5668C12.6194 48.3734 17.1839 46.6972 19.6207 42.4804C22.0574 38.2638 21.2279 33.4726 18.1001 31.6658L7.97105 35.7517ZM7.97105 35.7517C10.4006 31.536 14.9648 29.8588 18.1 31.6658L7.97105 35.7517Z" fill="white" stroke="#EC7B29"/>
<path d="M17.5699 31.2861C20.9028 33.2127 21.807 38.22 19.3009 42.5696C16.7885 46.9182 12.0023 48.6369 8.66253 46.7163C5.33018 44.7895 4.42617 39.7826 6.932 35.4333C9.44495 31.0835 14.2379 29.36 17.5699 31.2861Z" fill="white" stroke="#EC7B29"/>
<path d="M16.3214 32.9494L16.3222 32.9498C18.7224 34.3316 19.3683 38.099 17.4146 41.4837C15.4611 44.868 11.8791 46.1913 9.47803 44.8031L9.47723 44.8026C7.07701 43.4209 6.43107 39.6534 8.38479 36.2687C10.3383 32.8844 13.9203 31.5612 16.3214 32.9494Z" fill="white" stroke="#EC7B29"/>
<path opacity="0.5" d="M9.00418 37.161L9.00389 37.1615C7.82935 39.2005 7.51051 41.4987 8.03424 43.3933C6.90875 41.593 6.90164 38.8189 8.37691 36.2629C10.33 32.8861 13.9119 31.5617 16.3135 32.9434C16.4343 33.0136 16.5506 33.0896 16.6623 33.171C13.9375 32.452 10.7412 34.1534 9.00418 37.161Z" fill="white" stroke="#EC7B29"/>
<path d="M8.4217 36.2909C7.95316 37.0998 7.61318 37.9488 7.40128 38.7998C7.57961 37.9605 7.9032 37.103 8.38472 36.2688C8.87185 35.4266 9.46031 34.712 10.1065 34.1353C9.46753 34.748 8.8946 35.4729 8.4217 36.2909Z" fill="white" stroke="#EC7B29"/>
</svg>
