<svg width="56" height="56" viewBox="0 0 56 56" fill="none" xmlns="http://www.w3.org/2000/svg">
<rect x="56" y="56" width="56" height="56" rx="28" transform="rotate(-180 56 56)" fill="white"/>
<rect x="40" y="31" width="5.9999" height="9.99984" rx="2.99995" fill="#93D193"/>
<rect x="10" y="31" width="5.9999" height="9.99984" rx="2.99995" fill="#93D193"/>
<path fill-rule="evenodd" clip-rule="evenodd" d="M27.9998 13C20.2679 13 14 19.2679 14 26.9998V32.9997H15.75V28.2498C15.75 21.4844 21.2344 16 27.9998 16C34.7652 16 40.2496 21.4844 40.2496 28.2498V32.9997H41.9995V26.9998C41.9995 19.2679 35.7316 13 27.9998 13Z" fill="#93D193"/>
<path d="M39.9977 19.5014C39.9977 19.1457 39.875 18.7995 39.6398 18.5327C36.6202 15.1062 32.5175 12.9998 27.9979 12.9998C23.4782 12.9998 19.3755 15.1062 16.3559 18.5327C16.1207 18.7995 15.998 19.1457 15.998 19.5014C15.998 21.0472 18.3535 21.8176 19.5422 20.8294C21.9337 18.8411 24.8502 17.6735 27.9979 17.6735C31.1455 17.6735 34.062 18.8411 36.4535 20.8294C37.6422 21.8176 39.9977 21.0472 39.9977 19.5014Z" fill="#22AA22"/>
<rect x="12" y="29" width="5.9999" height="13.9998" rx="2.99995" fill="#22AA22"/>
<rect x="38" y="29" width="5.9999" height="13.9998" rx="2.99995" fill="#22AA22"/>
</svg>
