<svg width="54" height="57" viewBox="0 0 54 57" fill="none" xmlns="http://www.w3.org/2000/svg">
<path fill-rule="evenodd" clip-rule="evenodd" d="M6.74945 43.8647C11.8479 38.2972 19.0356 34.8289 27 34.8289C34.9644 34.8289 42.1521 38.2972 47.2506 43.8647C50.2383 39.5683 52 34.2841 52 28.5707C52 14.1696 40.8071 2.49512 27 2.49512C13.1929 2.49512 2 14.1696 2 28.5707C2 34.2841 3.76171 39.5683 6.74945 43.8647ZM36 23.3556C36 28.54 31.9706 32.7428 27 32.7428C22.0294 32.7428 18 28.54 18 23.3556C18 18.1712 22.0294 13.9684 27 13.9684C31.9706 13.9684 36 18.1712 36 23.3556Z" fill="#2E2F45"/>
<path d="M27 55.6464C41.3987 55.6464 53 43.4841 53 28.5707C53 13.6574 41.3987 1.49512 27 1.49512C12.6013 1.49512 1 13.6574 1 28.5707C1 43.4841 12.6013 55.6464 27 55.6464Z" stroke="#2E2F45" stroke-width="2"/>
</svg>
