<svg width="56" height="56" viewBox="0 0 56 56" fill="none" xmlns="http://www.w3.org/2000/svg">
<rect x="56" y="56" width="56" height="56" rx="28" transform="rotate(-180 56 56)" fill="white"/>
<rect x="14.585" y="22.8988" width="28.3457" height="24.2963" rx="2.33333" fill="#22AA22"/>
<rect x="13.1631" y="15.7368" width="28.3457" height="6.47901" rx="2" transform="rotate(-15 13.1631 15.7368)" fill="#22AA22"/>
<path fill-rule="evenodd" clip-rule="evenodd" d="M38.6124 22.8992H34.878L38.3849 28.9733H42.1192L38.6124 22.8992ZM42.934 26.3352V24.8992C42.934 23.8001 42.0474 22.908 40.9503 22.8993L42.934 26.3352ZM28.8024 22.8992H32.5401L36.047 28.9733H32.3092L28.8024 22.8992ZM26.4645 22.8992H22.7301L26.237 28.9733H29.9713L26.4645 22.8992ZM16.6545 22.8992H20.3922L23.8991 28.9733H20.1613L16.6545 22.8992ZM14.8751 23.8668C14.6931 24.1681 14.5884 24.5215 14.5884 24.8992V28.9733H17.8234L14.8751 23.8668Z" fill="#D3EAD3"/>
<path fill-rule="evenodd" clip-rule="evenodd" d="M36.2742 9.54448L32.6646 10.5117L37.624 15.4711L41.0524 14.5525C41.1112 14.5368 41.1675 14.516 41.2207 14.491L36.2742 9.54448ZM41.3344 11.7413L40.705 9.39253C40.5621 8.85906 40.0138 8.54248 39.4803 8.68542L38.5325 8.93938L41.3344 11.7413ZM26.7983 12.0836L30.4063 11.1168L35.3658 16.0762L31.7577 17.043L26.7983 12.0836ZM24.54 12.6887L20.9318 13.6555L25.8912 18.6149L29.4995 17.6481L24.54 12.6887ZM15.0642 15.2277L18.6735 14.2606L23.633 19.22L20.0237 20.1872L15.0642 15.2277ZM13.3011 16.3279C13.2823 16.458 13.2891 16.5939 13.3252 16.7289L14.3797 20.6642C14.5226 21.1976 15.071 21.5142 15.6044 21.3713L17.7654 20.7922L13.3011 16.3279Z" fill="#D3EAD3"/>
<path d="M33.0986 37.0494L27.0246 40.5562L27.0246 33.5425L33.0986 37.0494Z" fill="white"/>
</svg>
