<svg width="262" height="282" viewBox="0 0 262 282" fill="none" xmlns="http://www.w3.org/2000/svg">
<path d="M245.096 206.423C244.009 208.408 242.126 207.725 240.425 207.94C232.992 208.889 226.133 211.133 221.196 217.277C217.872 216.335 218.94 213.218 218.105 211.05C217.575 210.335 216.887 209.752 216.095 209.344C212.802 207.82 211.127 204.919 209.806 201.758C207.214 195.583 204.117 189.565 203.485 182.738C205.609 178.118 209.117 174.66 212.922 171.442C213.352 171.499 213.832 171.645 213.946 172.075C215.21 176.746 217.17 181.284 216.778 186.291C214.572 190.595 214.572 190.595 219.882 195.526C220.119 195.617 220.377 195.641 220.627 195.594C220.877 195.547 221.109 195.432 221.298 195.26C221.683 195.064 222.208 194.856 222.48 195.165C225.255 198.396 229.3 200.431 231.215 204.457C231.847 204.698 232.258 205.791 233.112 204.818C232.903 203.724 232.113 203.042 231.392 202.289C227.663 198.004 223.276 194.198 221.279 188.623C220.83 187.865 220.255 187.201 219.818 186.436C218.997 184.173 216.626 182.176 218.554 179.42C219.818 177.441 218.864 176.436 216.974 175.842C215.299 173.421 216.298 170.558 215.64 167.966C215.526 166.455 216.557 165.437 217.303 164.344C220.507 159.546 223.548 154.679 225.432 149.173C226.352 146.724 226.765 144.113 226.645 141.5C226.746 139.521 226.645 137.58 225.438 135.886C225.849 134.186 225.583 132.429 225.893 130.716C226.916 129.504 227.446 127.952 227.378 126.367C227.416 125.937 227.547 125.52 227.764 125.147C228.244 124.515 228.965 124.597 229.66 124.515C230.356 124.433 230.925 123.977 231.614 124.142C232.303 124.306 232.777 124.61 233.51 124.774C233.219 123.036 233.282 121.417 234.976 120.387C236.12 120.179 235.868 121.342 236.342 121.79C236.165 128.668 234.515 135.299 232.96 141.948C232.726 142.928 231.986 143.927 233.156 144.799C233.19 144.99 233.184 145.186 233.137 145.375C233.091 145.563 233.005 145.74 232.886 145.893C232.766 146.046 232.616 146.173 232.445 146.264C232.274 146.355 232.085 146.41 231.892 146.424C228.731 151.48 227.922 157.233 226.803 162.903C226.114 163.465 226.285 164.413 225.823 165.083C225.18 165.694 224.793 166.526 224.742 167.411C224.69 168.297 224.977 169.169 225.545 169.85C226.111 170.806 226.536 171.838 226.81 172.915C227.593 182.58 229.483 191.809 236.993 198.832C237.846 203.105 240.425 205.361 244.799 205.589C245.096 205.652 245.198 206.076 245.096 206.423Z" fill="#AEE959"/>
<path d="M197.107 117.909C195.141 115.204 193.459 116.645 191.595 118.326C190.381 116 191.241 114.325 193.295 113.187C195.128 112.176 197.088 111.461 198.984 110.532C201.07 109.489 202.347 108.004 201.285 105.128C200.236 107.656 198.535 108.067 196.14 107.403C191.879 106.228 191.342 106.487 188.03 109.527C187.145 107.783 188.156 106.664 189.395 105.88C192.126 104.154 192.593 101.645 192.214 98.7498C192.131 97.8081 191.977 96.8741 191.753 95.9559C189.762 89.186 192.385 84.3061 197.947 80.6019C203.107 77.173 208.545 74.1831 214.205 71.6639C215.4 73.0988 214.49 74.5906 214.338 76.0887C213.238 84.028 213.251 92.0241 213.225 100.02C213.225 104.3 213.415 108.598 213.162 112.865C212.77 119.426 210.356 124.843 203.782 127.523C201.324 127.958 198.794 127.443 196.702 126.082C196.61 126.004 196.536 125.908 196.486 125.798C196.435 125.689 196.409 125.57 196.409 125.45C196.409 125.33 196.435 125.211 196.486 125.102C196.536 124.992 196.61 124.896 196.702 124.818C197.524 124.186 198.643 124.072 199.572 123.048C199.066 122.523 198.232 122.112 197.941 121.31C197.336 120.282 197.046 119.1 197.107 117.909Z" fill="#0D5523"/>
<path d="M197.107 117.909C197.907 118.812 198.385 119.954 198.466 121.158C198.466 123.414 195.975 123.781 195.248 125.481C191.557 129.773 187.36 133.579 183.384 137.599C182.727 138.286 181.879 138.76 180.95 138.958C179.142 139.192 178.87 140.526 178.795 141.992C178.933 142.391 178.951 142.821 178.845 143.229C178.739 143.638 178.515 144.006 178.2 144.287C174.218 148.44 171.5 153.364 169.496 158.718C169.42 158.968 169.294 159.201 169.125 159.402C168.957 159.603 168.75 159.768 168.516 159.887C168.023 160.26 167.979 158.579 167.341 159.641C165.375 160.816 165.963 162.169 167.044 163.591C167.331 164.388 167.307 165.265 166.974 166.044C165.021 172.365 164.161 178.882 163.112 185.374C161.595 188.269 159.389 190.361 156.159 191.265C154.262 189.9 152.404 191.499 150.52 191.455C150.015 191.379 149.585 191.05 149.06 191.056C147.992 191.056 147.986 192.453 147.037 192.63C146.348 192.504 145.514 192.63 145.773 191.417C146.911 185.936 147.998 180.443 149.104 174.982L149.408 175.235C149.901 175.785 149.566 176.72 150.299 177.131C152.139 175.734 150.097 175.178 149.718 174.274C152.878 162.586 159.003 152.479 166.633 143.218C172.234 136.516 178.845 130.726 186.228 126.057C190.052 123.591 193.504 120.633 197.107 117.909Z" fill="#AEE95A"/>
<path d="M207.126 216.132C204.932 214.988 203.112 216.316 201.228 217.068C197.347 218.623 194.237 221.644 190.173 222.845C189.666 222.717 189.212 222.435 188.872 222.037C188.533 221.64 188.324 221.147 188.276 220.627C187.385 215.62 186.134 210.665 185.925 205.551C186.405 203.402 187.973 201.91 189.389 200.456C192.663 197.11 195.593 193.444 198.137 189.514C198.48 188.864 199.017 188.336 199.673 188.004C200.063 187.978 200.449 188.091 200.764 188.322C201.078 188.553 201.301 188.888 201.393 189.268C201.235 191.234 202.164 192.877 202.986 194.559C204.073 200.02 206.418 205.077 208.144 210.33C208.719 212.093 209.768 213.749 209.509 215.728C208.889 216.821 207.948 216.139 207.126 216.132Z" fill="#AEE95A"/>
<path d="M199.819 188.269C196.298 194.672 190.969 199.647 186.361 205.178C185.672 207.365 183.662 208.465 182.315 210.115C180.419 211.575 179.49 214.059 177.05 214.893C175.906 217.706 174.806 220.532 173.611 223.326C172.663 225.526 167.922 228.142 165.584 227.883C164.566 227.776 164.522 227.036 164.408 226.322C164.022 223.85 164.243 221.676 166.115 219.622C169.161 216.278 173.163 213.933 175.817 210.216C176.696 206.044 179.812 203.029 181.506 199.268C183.106 196.607 184.389 193.781 185.855 191.05C188.124 186.938 190.92 183.141 194.174 179.755C194.989 178.87 195.76 177.397 197.467 178.269C198.049 180.014 197.379 181.657 197.05 183.326C196.234 184.021 195.564 184.774 196.146 185.949C196.223 186.146 196.362 186.311 196.543 186.42C196.724 186.528 196.935 186.574 197.145 186.55C198.649 186.341 197.859 184.742 198.617 184.066C199.743 183.396 200.899 182.909 202.214 183.56C203.08 185.975 201.43 187.112 199.819 188.269Z" fill="#46A224"/>
<path d="M156.177 191.265C158.238 189.369 160.691 187.934 162.435 185.69C163.756 183.086 166.392 181.897 168.434 180.039C172.227 176.101 177.05 173.762 181.708 171.082C182.694 170.734 183.605 169.875 184.761 170.557C185.526 172.093 184.667 173.263 183.902 174.457C183.51 174.995 182.871 175.09 182.315 175.349C181.569 175.703 180.646 176.145 181.424 177.15C181.542 177.325 181.698 177.471 181.88 177.577C182.063 177.683 182.267 177.747 182.478 177.763C182.688 177.778 182.899 177.746 183.096 177.669C183.292 177.591 183.468 177.47 183.611 177.315C184.155 176.847 184.281 176.012 185.014 175.696C186.395 175.218 187.9 175.239 189.268 175.753C190.476 177.055 189.192 177.795 188.554 178.598C187.725 179.537 186.767 180.354 185.71 181.025C184.167 182.207 182.549 183.25 180.931 184.369C176.361 187.296 171.076 188.832 166.506 191.765C165.04 192.454 163.598 193.187 162.163 193.92C160.267 194.931 158.434 196.196 156.184 196.448C153.813 198.819 151.475 201.221 149.06 203.547C147.967 204.678 146.743 205.673 145.413 206.512C144.49 207.04 143.434 207.291 142.372 207.234C141.31 207.177 140.287 206.814 139.427 206.189C138.124 205.228 139.743 203.541 139.995 202.169C140.47 199.533 142.164 198.105 144.711 197.296C148.832 195.962 153.207 194.919 156.177 191.265Z" fill="#46A224"/>
<path d="M166.108 191.234C170.609 188.01 176.026 186.581 180.716 183.743C182.512 184.04 182.265 185.551 182.284 186.689C182.335 190.987 182.625 195.292 182.019 199.577C180.179 203.253 178.108 206.809 175.818 210.222C172.853 209.223 169.844 209.893 166.861 210.026C164.68 210.127 162.499 210.74 160.369 209.78C160.48 209.607 160.619 209.453 160.78 209.325C161.936 208.199 164.389 210.033 164.92 207.485C165.274 205.81 164.996 204.141 164.92 202.473C165.643 200.719 165.708 198.764 165.103 196.967C165.438 195.052 165.331 193.06 166.108 191.234Z" fill="#AEE95A"/>
<path d="M199.819 188.269C200.394 186.626 202.025 185.539 202.227 183.706C202.189 182.441 203.068 182.334 204.003 182.302C205.444 190.627 208.94 198.2 212.65 205.69C213.466 207.334 215.533 207.719 216.765 209.003C213.605 211.563 213.731 212.795 217.347 214.9C218.497 213.585 217.239 211.544 218.643 210.336C219.875 212.511 218.712 215.57 221.171 217.29C220.539 218.383 220.002 219.515 219.319 220.564C215.95 225.722 213.105 225.659 209.932 220.393C210.141 218.863 208.769 217.618 209.155 216.057C207.619 211.525 206.247 206.923 204.484 202.479C203.454 199.876 202.705 197.17 202.252 194.407C202.6 192.618 202.979 190.823 201.032 189.616L199.819 188.269Z" fill="#A0D749"/>
<path d="M213.586 75.7916C213.801 74.4136 214.01 73.042 214.218 71.664C216.955 62.6944 221.045 54.2051 223.592 45.1723C223.791 45.3074 223.939 45.5058 224.011 45.7352C224.084 45.9646 224.076 46.2118 223.991 46.4365C223.883 45.9814 224.294 45.0396 223.744 44.1357C224.01 41.9612 226.806 37.233 228.013 37.473C229.22 37.7132 227.925 42.2536 228.013 43.1891C228.158 44.8073 230.339 44.3822 229.283 45.1723C224.385 48.8512 224.382 55.9561 223.27 61.0635C222.834 63.0799 223.137 65.2544 223.099 67.3846C223.826 69.0281 223.017 70.5451 222.758 72.138C222.682 72.9588 222.543 73.7725 222.341 74.5717C221.924 75.6526 221.917 77.0053 220.444 77.4098C218.131 77.0874 215.546 77.8017 213.586 75.7916Z" fill="#4CB428"/>
<path d="M244.66 77.0057C248.282 71.2725 252.833 66.0387 254.394 59.1803C254.622 58.1816 255.969 54.3124 255.324 53.3516C253.592 50.7789 256.847 52.0596 257.7 50.1759C258.427 48.583 258.733 45.4264 259.77 45.7298C261.338 46.2292 261.936 51.4939 261.329 53.662C260.551 56.4306 258.497 58.4534 257.7 61.2473C255.248 69.9198 252.644 78.567 248.465 86.6327C246.152 86.6707 244.812 85.2042 243.636 83.4722C244.164 81.3504 244.506 79.1868 244.66 77.0057Z" fill="#4CB428"/>
<path d="M235.172 120.602C233.908 122.207 232.865 123.838 235.425 125.716C233.352 125.918 232.214 125.387 231.247 124.388C230.507 123.756 230.507 123.756 229.983 125.621L228.137 124.881C227.296 124.749 226.993 124.06 226.613 123.44C226.01 122.764 225.66 121.899 225.621 120.994C225.823 119.066 227.296 118.219 228.782 117.46C231.462 116.076 233.206 114.085 233.295 110.956C233.554 107.688 234.117 104.546 236.74 102.208C237.492 101.538 238.004 100.463 239.268 100.773C240.861 103.219 243.061 105.261 244.325 107.941C246.55 112.644 245.387 116.79 241.165 119.129L242.536 115.507C242.435 115.337 242.381 115.143 242.378 114.945C242.381 114.579 242.463 114.219 242.618 113.889C242.309 114.129 242.34 114.603 241.986 114.818C241.152 117.258 238.586 117.467 236.892 118.794C236.462 119.521 236.076 120.311 235.172 120.602Z" fill="#0E5523"/>
<path d="M221.936 71.9613C222.328 70.419 222.718 68.8788 223.105 67.3406C229.199 62.5619 234.774 64.907 240.248 68.6049C241.203 71.0195 239.616 71.3988 237.884 71.3356C235.608 71.2534 233.459 70.4822 231.348 69.6731C235.198 70.9373 238.933 72.8337 243.2 71.9866C244.319 73.5227 243.763 75.3178 243.959 76.9929C243.959 78.4405 242.795 78.2571 241.955 78.4025C241.114 78.5479 239.97 78.2887 239.148 78.6807C236.734 79.8248 235.305 78.8829 233.883 76.9044C232.334 74.7489 229.907 73.9272 227.334 73.4974C225.488 73.1687 223.529 73.1876 221.936 71.9613Z" fill="#0F5523"/>
<path d="M239.287 100.773C236.279 103.421 233.794 106.348 234.054 110.716C232.732 109.938 232.928 108.592 232.903 107.391C232.84 104.806 232.777 102.214 232.966 99.635C233.226 98.2128 233.864 96.8411 233.535 95.3304C233.921 93.7754 235.033 92.6249 235.824 91.2912C236.525 90.2735 237.214 89.2432 237.872 88.1939C238.459 87.4227 238.788 86.4935 239.363 85.716C240.773 84.8627 241.829 83.333 243.731 83.4341L248.428 86.6515C245.906 91.6641 242.012 95.8487 239.287 100.773Z" fill="#BD6F21"/>
<path d="M181.93 209.666L186.355 205.178C187.208 210.039 188.144 214.887 188.883 219.767C189.056 220.878 189.49 221.933 190.147 222.845C189.286 223.606 188.283 224.188 187.195 224.558C181.456 226.638 179.136 225.253 178.264 219.166C179.237 215.886 182.221 213.408 181.93 209.666Z" fill="#A0D749"/>
<path d="M243.743 83.4464L239.812 85.9305C239.534 85.9463 239.255 85.9463 238.977 85.9305C237.875 85.7221 236.873 85.1554 236.127 84.3187C235.924 84.1417 235.722 83.9584 235.494 83.794C231.253 84.4261 227.34 83.9204 224.173 80.6714C223.772 80.2459 223.416 79.7799 223.111 79.2808C222.586 78.5801 222.161 77.81 221.847 76.9925C221.917 76.1455 221.215 75.3364 221.708 74.4641C221.778 73.6297 221.841 72.7953 221.91 71.9357C225.703 72.4477 230.128 71.7271 232.783 74.7359C235.438 77.7447 238.111 78.4843 241.721 77.593C242.473 77.4097 243.396 77.8901 243.933 76.9609L244.635 76.9989C246.272 79.4198 245.229 81.4552 243.743 83.4464Z" fill="#DBFEA2"/>
<path d="M166.108 191.234C166.555 193.135 166.378 195.13 165.603 196.923C165.446 197.168 165.198 197.34 164.914 197.403C161.791 198.376 161.545 198.945 162.581 202.82C163.795 203.383 164.351 201.392 165.571 202.062C165.864 203.162 166.05 204.288 166.127 205.424C166.039 209.476 165.982 209.476 160.369 209.754C156.677 209.363 156.576 206.771 156.791 203.952C158.245 200.296 159.921 196.733 161.81 193.282L166.108 191.234Z" fill="#9FD749"/>
<path d="M239.508 230.602C237.745 230.204 236.316 229.123 234.862 228.156C231.499 225.912 231.316 224.477 233.724 220.981C233.927 220.893 234.192 220.798 234.312 220.905C237.15 223.541 239.495 226.449 239.508 230.602Z" fill="#3D9A1B"/>
<path d="M245.097 206.423C244.843 206.245 244.561 206.11 244.263 206.025C237.701 205.336 237.625 205.266 237.031 198.876L238.232 198.926C241.481 200.349 243.769 203.01 246.361 205.279L246.804 206.335L245.097 206.423Z" fill="#3B9A17"/>
<path d="M243.2 71.9615C242.631 72.3787 242.36 73.2257 241.462 73.1562C236.942 72.7264 232.739 71.4748 229.237 68.2953C231.816 69.0412 234.37 69.8756 236.974 70.495C238.516 70.8616 240.28 71.1271 240.248 68.5987C240.955 68.9117 241.585 69.3746 242.094 69.9552C242.604 70.5359 242.981 71.2205 243.2 71.9615Z" fill="#45784D"/>
<path d="M127.493 194.42C127.739 192.997 127.91 191.556 128.251 190.153C129.117 186.531 130.148 185.899 133.991 186.423C135.641 187.605 134.332 188.686 133.694 189.514C132.078 191.658 130.223 193.609 128.163 195.33C127.638 195.248 127.328 195.014 127.493 194.42Z" fill="#3B9919"/>
<path d="M128.27 195.108C129.067 193.105 130.799 191.872 132.139 190.298C133.068 189.198 134.585 188.288 133.991 186.423C136.633 187.928 136.867 191.328 134.408 193.035C132.771 194.173 130.856 194.66 128.972 195.21C128.924 195.26 128.865 195.297 128.799 195.32C128.734 195.342 128.664 195.349 128.595 195.339C128.527 195.329 128.462 195.303 128.405 195.263C128.349 195.223 128.302 195.17 128.27 195.108Z" fill="#4BB328"/>
<path d="M239.509 230.601C238.312 227.008 236.337 223.723 233.725 220.981C237.448 219.754 239.414 220.759 239.863 224.375C240.013 226.445 240.036 228.522 239.932 230.595C239.932 230.645 239.825 230.753 239.781 230.74C239.684 230.708 239.592 230.661 239.509 230.601Z" fill="#51B62F"/>
<path d="M161.81 193.307C161.055 197.227 159.33 200.895 156.791 203.977C156.311 201.48 157.158 198.869 156.159 196.391L161.81 193.307Z" fill="#87B431"/>
<path d="M246.361 205.279C243.08 203.889 240.672 201.36 238.232 198.927C241.829 197.169 243.339 197.631 244.939 201.126C245.539 202.454 245.893 203.889 246.361 205.279Z" fill="#4EB42C"/>
<path d="M181.93 209.666C182.164 210.418 183.308 210.835 182.784 211.859C181.481 214.387 180.388 217.093 178.289 219.166C177.657 217.794 177.961 216.17 177.025 214.893C178.694 213.167 179.945 211.075 181.93 209.666Z" fill="#88B634"/>
<path d="M157.98 147.719L157.114 147.922C156.955 145.911 157.596 143.919 158.897 142.378C160.066 140.829 161.646 141.474 163.068 142.264C162.999 145.267 160.287 145.937 158.498 147.422C158.378 147.549 158.138 147.58 157.98 147.719Z" fill="#439F20"/>
<path d="M226.848 172.96C226.089 171.872 225.305 170.798 224.578 169.685C223.314 167.732 223.371 166.013 225.546 164.717C225.759 164.575 226.007 164.496 226.263 164.488C226.519 164.48 226.772 164.544 226.993 164.673L226.955 164.704C228.257 167.321 227.657 169.938 226.955 172.549C226.976 172.621 226.978 172.697 226.959 172.769C226.94 172.842 226.901 172.907 226.848 172.96Z" fill="#3E9B18"/>
<path d="M139.035 176.714C138.743 176.75 138.45 176.769 138.156 176.771C137.612 173.275 140.969 170.09 144.092 171.114C143.839 174.3 141.449 175.507 139.035 176.714Z" fill="#3F9D1C"/>
<path d="M259.098 222.952C259.179 223.009 259.257 223.07 259.332 223.136C257.903 225.449 255.653 224.438 253.858 224.153C252.062 223.869 251.778 222.124 252.164 220.449C252.164 220.367 252.556 220.373 252.758 220.335C255.135 220.569 257.138 221.701 259.098 222.952Z" fill="#3C9B19"/>
<path d="M259.098 222.953C256.794 222.671 254.609 221.768 252.777 220.342C254.042 218.25 255.527 218.623 257.031 219.988C257.958 220.788 258.669 221.807 259.098 222.953Z" fill="#4FB42B"/>
<path d="M226.943 172.574C227.088 169.963 226.38 167.346 226.943 164.729C229.294 165.406 229.857 166.91 228.839 169.034C228.295 170.223 227.587 171.373 226.943 172.574Z" fill="#4FB42D"/>
<path d="M157.979 147.72C159.306 145.558 161.917 144.597 163.074 142.277C163.232 141.993 163.706 141.443 163.706 141.917C163.997 146.234 162.992 147.189 157.979 147.72Z" fill="#4FB72E"/>
<path d="M139.035 176.714C140.779 174.9 142.859 173.389 144.092 171.113C145.527 174.04 145.103 175.329 142.334 176.17C141.247 176.422 140.145 176.604 139.035 176.714Z" fill="#4CB42A"/>
<path d="M132.683 206.588C134.724 207.757 134.238 209.255 133.056 210.639C132.189 211.515 131.255 212.32 130.262 213.048C130.013 212.871 129.82 212.626 129.708 212.342C129.596 212.058 129.569 211.748 129.63 211.448C129.676 211.152 129.754 210.862 129.864 210.582C130.805 209.236 130.306 206.91 132.683 206.588Z" fill="#4EB42B"/>
<path d="M240.109 139.635C242.966 141.272 243.068 142.309 240.741 146.291C239.401 145.488 239.515 143.996 239.047 142.77C238.925 142.33 238.872 141.874 238.889 141.417C238.881 141.03 238.994 140.65 239.213 140.33C239.431 140.01 239.745 139.767 240.109 139.635Z" fill="#50B52E"/>
<path d="M248.226 215.981C245.697 215.816 243.845 216.253 243.397 213.907C243.22 212.991 243.839 212.529 244.623 212.428C247.126 212.1 246.785 214.394 248.226 215.981Z" fill="#51B22E"/>
<path d="M239.508 141.43V142.694C240.014 145.222 240.014 145.222 238.838 145.854C237.372 144.091 235.305 142.41 238.055 140.071C239.42 139.609 238.946 141.069 239.508 141.43Z" fill="#3E9A1C"/>
<path d="M230.697 176.695C232.682 177.845 231.5 179.4 231.019 180.981C230.235 179.679 227.069 179.83 228.889 176.967C229.388 176.202 230.046 176.455 230.697 176.695Z" fill="#3F9D19"/>
<path d="M255.723 208.37C253.864 208.193 252.157 208.623 251.5 206.62C251.317 206.082 251.298 205.355 252.233 205.229C254.503 204.925 254.894 206.588 255.723 208.37Z" fill="#469F28"/>
<path d="M150.534 157.915C151.039 156.259 150.995 154.312 153.271 154.319C154.434 154.319 154.535 155.475 154.269 156.215C153.682 157.941 152.19 158.035 150.534 157.915Z" fill="#479B27"/>
<path d="M132.683 206.588C130.982 207.549 131.747 209.913 130.154 210.949C128.321 210.147 129.206 208.471 128.934 207.157C129.977 205.538 131.229 205.387 132.683 206.588Z" fill="#409C1E"/>
<path d="M249.673 193.863C250.216 194.616 250.336 195.222 249.116 195.191C247.783 195.153 246.341 195.191 245.918 193.484C245.735 192.732 245.861 191.992 246.822 191.878C247.333 191.87 247.843 191.914 248.345 192.011C248.577 192.755 249.043 193.405 249.673 193.863Z" fill="#5BAD3D"/>
<path d="M209.181 216.044C210.097 217.371 211.197 218.667 209.958 220.38C209.014 218.964 208.07 217.548 207.126 216.132C207.778 215.247 208.498 216.119 209.181 216.044Z" fill="#90BB3B"/>
<path d="M142.727 185.311C143.991 184.502 145.255 184.894 145.445 186.126C145.729 187.77 144.56 188.718 142.834 188.743C142.246 187.618 142.524 186.48 142.727 185.311Z" fill="#4FB52E"/>
<path d="M128.814 202.03C128.896 200.646 127.815 199.028 129.876 198.326C130.438 198.136 131.431 197.947 131.538 199.097C131.715 200.968 130.401 201.531 128.814 202.03Z" fill="#49A126"/>
<path d="M240.103 126.79C239.427 127.043 239.724 128.452 238.782 128.155C237.84 127.858 237.669 126.777 237.568 125.911C237.404 124.495 238.314 124.186 239.509 124.318C240.337 124.988 240.868 125.734 240.103 126.79Z" fill="#3D991E"/>
<path d="M149.731 174.256C150.938 174.079 151.848 174.578 152.006 175.754C152.221 177.372 150.932 178.004 149.712 178.585C148.96 177.429 150.059 176.146 149.459 174.976L149.288 174.932H149.118L149.731 174.256Z" fill="#59B62D"/>
<path d="M231.102 160.848C231.892 159.476 232.632 160.273 233.213 160.987C234.263 162.251 233.491 163.212 232.499 164.066C231.071 163.421 231.33 162.024 231.102 160.848Z" fill="#5FB841"/>
<path d="M147.056 192.631C147.29 191.411 147.366 190.064 149.161 190.191C151.001 191.79 148.573 192.593 148.485 193.826C146.469 195.267 147.271 193.345 147.056 192.631Z" fill="#4AA31D"/>
<path d="M128.915 178.623C127.019 177.232 128.998 176.334 129.547 175.784C130.641 174.735 131.564 175.525 132.025 176.802C131.197 177.782 129.933 178.016 128.915 178.623Z" fill="#459B22"/>
<path d="M229.332 217.289C229.648 218.124 229.61 218.832 228.492 218.383C227.227 217.858 225.236 217.675 226.267 215.374C228.157 214.615 228.422 216.474 229.332 217.289Z" fill="#3C9819"/>
<path d="M231.905 146.468L233.169 144.843C233.58 144.489 233.725 144.843 233.877 145.128C234.048 146.392 234.345 147.656 233.807 148.92C231.703 149.217 232.682 147.169 231.905 146.468Z" fill="#39961E"/>
<path d="M148.485 193.826C147.265 192.346 150.382 191.67 149.162 190.191C150.167 190.02 150.306 190.791 150.54 191.455C150.533 192.833 149.775 193.56 148.485 193.826Z" fill="#4FB533"/>
<path d="M229.332 217.289C227.815 217.441 227.701 215.342 226.266 215.393C228.479 214.211 228.896 214.47 229.332 217.289Z" fill="#52B530"/>
<path d="M233.801 148.908C233.599 147.643 233.169 146.379 233.87 145.115C236.595 146.436 234.983 147.669 233.801 148.908Z" fill="#4FAE2A"/>
<path d="M238.864 145.861C240.28 145.052 238.782 143.63 239.534 142.7C240.438 143.737 240.229 145.14 240.741 146.31C239.547 148.623 239.332 146.702 238.864 145.861Z" fill="#409F1F"/>
<path d="M231.102 160.848C232.416 161.55 231.69 163.142 232.499 164.065C232.1 164.362 231.727 165.292 231.234 164.236C230.741 163.18 229.502 162.036 231.102 160.848Z" fill="#379511"/>
<path d="M128.966 207.169C130.047 208.206 129.212 209.869 130.186 210.962C130.105 211.049 130.008 211.119 129.899 211.167C129.79 211.214 129.673 211.239 129.554 211.239C129.435 211.239 129.317 211.214 129.209 211.167C129.1 211.119 129.002 211.049 128.922 210.962C128.441 209.679 128.037 208.415 128.966 207.169Z" fill="#289305"/>
<path d="M128.915 178.623C129.623 177.453 130.565 176.67 132.075 176.802C132.056 179.23 130.28 178.579 128.915 178.623Z" fill="#52B232"/>
<path d="M242.012 114.818L241.955 111.765C242.24 111.853 242.625 111.847 242.777 112.037C243.618 113.105 243.15 114.173 242.701 115.235C242.659 115.329 242.61 115.42 242.556 115.507L242.012 114.818Z" fill="#DBFEA2"/>
<path d="M128.922 210.942H130.186L130.262 213.041C128.037 213.49 129.244 211.726 128.922 210.942Z" fill="#409C1E"/>
<path d="M235.173 120.602C235.325 120.198 235.558 119.829 235.858 119.518C236.158 119.207 236.519 118.961 236.918 118.795C236.728 119.812 236.532 120.824 236.342 121.835L235.173 120.602Z" fill="#A7E15B"/>
<path d="M249.673 193.863C248.453 193.806 247.657 193.44 248.346 192.011C249.338 192.232 249.515 193.041 249.673 193.863Z" fill="#5CB43E"/>
<path d="M223.75 44.1169C224.78 45.0904 224.199 46.1966 223.908 47.2775C223.807 46.5695 223.706 45.8616 223.598 45.1599L223.75 44.1169Z" fill="#3CB014"/>
<path d="M226.993 164.673L225.545 164.717C225.64 163.895 225.583 162.954 226.81 162.947C226.873 163.522 226.936 164.098 226.993 164.673Z" fill="#7ACA3E"/>
<path d="M230.697 176.695L228.889 176.967C228.996 176.594 229.009 175.987 229.237 175.886C229.957 175.57 230.362 176.139 230.697 176.695Z" fill="#C0E2B4"/>
<path d="M128.27 195.109L128.972 195.21C128.422 195.608 127.897 196.411 127.164 195.76C126.791 195.425 127.031 194.792 127.493 194.42L128.27 195.109Z" fill="#90C680"/>
<path d="M239.509 141.43L238.081 140.077C238.605 139.249 239.345 139.445 240.11 139.635C239.92 140.235 239.711 140.829 239.509 141.43Z" fill="#409F1F"/>
<path d="M142.727 185.311C142.727 186.455 142.796 187.599 142.834 188.743C142.424 188.271 142.189 187.671 142.17 187.046C142.15 186.421 142.347 185.808 142.727 185.311Z" fill="#5CA941"/>
<path d="M240.103 126.79C240.156 125.925 239.949 125.065 239.509 124.319C241.184 124.786 241.279 125.633 240.103 126.79Z" fill="#58B236"/>
<path d="M233.744 98.4593L234.067 110.722C234.117 114.376 232.373 116.759 229.01 118.149C227.701 118.693 226.26 119.331 226.21 121.146C225.969 123.396 226.69 125.57 226.633 127.827C226.633 128.851 226.936 129.894 226.285 130.836C225.988 132.416 227.859 134.3 225.653 135.615C223.479 137.941 220.489 137.878 217.828 137.625C214.802 137.386 211.866 136.48 209.231 134.973C206.596 133.466 204.328 131.395 202.588 128.908C202.316 127.859 202.834 127.258 203.738 126.879C209.389 124.047 211.956 119.237 212.278 113.156C212.499 108.857 212.36 104.54 212.385 100.229C214.184 97.5468 216.411 95.1784 218.978 93.2191C221.102 95.0561 222.527 97.5703 223.011 100.337C222.923 101.392 222.29 102.29 222.126 103.327C221.759 105.564 222.802 107.366 224.655 107.688C226.962 108.093 228.738 106.79 229.155 104.42C229.351 103.276 228.738 102.138 229.155 100.994C230.394 99.6919 231.38 97.8145 233.744 98.4593Z" fill="#DBFEA2"/>
<path d="M204.004 182.302L202.227 183.705L198.757 184.413C198.27 184.628 198.757 183.452 197.961 183.907C197.474 184.198 196.772 184.4 196.519 183.49L197.069 178.016C196.437 175.658 197.701 173.711 198.384 171.632C199.572 169.299 200.577 166.891 201.545 164.457C203.827 159.401 205.912 154.293 209.048 149.698C209.723 148.519 210.61 147.475 211.665 146.619C215.957 144.533 220.445 142.934 224.895 141.246C225.792 140.911 226.69 140.709 227.543 141.379C227.745 149.23 223.814 155.557 219.958 161.897C218.694 163.939 217.335 165.905 216.02 167.909C215.848 168.738 215.486 169.515 214.965 170.182C214.443 170.849 213.774 171.386 213.011 171.752L204.004 182.302Z" fill="#227465"/>
<path d="M227.524 141.379C222.062 142.694 217.126 145.425 211.803 147.125C210.849 147.587 209.995 147.264 209.155 146.797C205.329 142.166 201.878 137.239 198.832 132.062C199.591 130.273 199.743 127.783 202.789 128.655C206.696 132.353 210.716 135.792 216.348 136.613C219.559 137.081 222.587 136.487 225.621 135.621C228.542 136.797 227.069 139.401 227.524 141.379Z" fill="#4CB427"/>
<path d="M212.986 171.752C213.767 170.312 214.784 169.013 215.995 167.909C217.708 170.229 216.064 173.143 217.354 175.538C217.46 175.619 217.548 175.722 217.611 175.84C217.674 175.958 217.711 176.088 217.72 176.221C217.642 176.608 217.672 177.01 217.807 177.381C217.942 177.752 218.176 178.079 218.485 178.326C218.845 178.838 219.749 179.091 219.256 179.995C217.499 180.88 218.719 182.093 219.01 183.098C219.423 184.235 219.915 185.342 220.483 186.411C219.737 187.1 218.871 187.043 217.954 186.815C217.467 186.227 216.734 186.588 216.146 186.366C215.837 181.363 214.772 176.436 212.986 171.752Z" fill="#9FD649"/>
<path d="M221.892 188.175C223.756 193.864 228.535 197.486 231.923 202.081C231.902 202.461 231.805 202.832 231.639 203.174C231.335 203.857 231.335 204.679 230.709 205.21C228.813 201.006 224.686 198.845 221.79 195.558C221.746 195.501 221.424 195.69 221.234 195.766C220.564 193.175 220.362 190.596 221.892 188.175Z" fill="#9FD749"/>
<path d="M216.171 186.366C216.608 186.366 216.936 185.57 217.436 186.202C219.781 188.895 220.192 192.289 220.78 195.608C220.874 196.139 220.622 196.619 219.895 196.417C218.871 195.538 217.802 194.71 216.835 193.775C213.75 190.766 213.687 189.894 216.171 186.366Z" fill="#3C9B17"/>
<path d="M218.643 210.323V216.695C216.115 215.254 213.586 214.533 213.586 211.461C213.586 209.483 214.983 208.863 216.785 208.99L218.643 210.323Z" fill="#3D9916"/>
<path d="M219.913 196.417C220.545 193.415 218.466 191.032 218.017 188.269C217.866 187.569 217.672 186.879 217.435 186.202L220.463 186.405C220.931 186.999 221.405 187.587 221.873 188.174C221.829 190.703 222.018 193.301 221.241 195.76C221.051 196.531 220.994 197.549 219.913 196.417Z" fill="#4CB427"/>
<path d="M226.291 130.855C225.704 127.631 224.496 124.407 226.216 121.165C226.127 122.151 227.202 122.473 227.429 123.276C226.317 124.584 228.061 125.381 228.017 126.487C228.599 128.377 228.365 129.97 226.291 130.855Z" fill="#185D24"/>
<path d="M217.34 204.015C215.552 203.206 214.041 202.687 214.344 200.684C214.369 200.5 214.437 200.324 214.543 200.171C214.648 200.019 214.788 199.893 214.951 199.804C215.114 199.715 215.296 199.666 215.482 199.661C215.667 199.656 215.851 199.694 216.019 199.773C218.112 200.57 217.1 202.283 217.34 204.015Z" fill="#389813"/>
<path d="M217.373 176.164C217.373 175.954 217.373 175.743 217.373 175.532C220.363 175.848 220.729 176.708 219.269 179.989C218.858 179.559 218.454 179.129 218.043 178.724C217.91 177.833 217.297 177.087 217.373 176.164Z" fill="#4AAD22"/>
<path d="M230.008 125.621C230.362 124.174 228.302 122.89 229.844 121.196C230.83 122.081 230.925 123.301 231.247 124.401L230.008 125.621Z" fill="#90CE50"/>
<path d="M230.71 205.229C230.634 204.325 230.249 203.332 231.292 202.7C232.307 203.351 233.17 204.213 233.82 205.229C233.972 205.766 234.402 206.524 233.226 206.17C232.373 205.943 231.551 205.557 230.71 205.229Z" fill="#3B9C16"/>
<path d="M233.826 205.26C232.732 204.66 231.298 204.369 231.298 202.732L231.93 202.1C233.308 202.7 234.047 203.693 233.826 205.26Z" fill="#4BB125"/>
<path d="M228.016 126.468C227.384 125.475 225.128 124.786 227.429 123.257L228.162 124.881C228.111 125.412 228.067 125.937 228.016 126.468Z" fill="#A1D84A"/>
<path d="M202.802 128.655C200.621 128.655 200.324 130.829 199.01 131.853C197.318 135.289 195.261 138.532 192.872 141.525C189.958 144.382 189.079 148.282 187.891 151.917C185.994 157.485 184.307 163.13 183.409 168.983C183.167 170.005 182.671 170.948 181.968 171.727C177.347 174.42 172.657 177.005 168.63 180.576C166.102 181.139 167.088 179.198 167.177 178.294C167.708 172.746 168.864 167.275 170.622 161.986C172.922 155.033 176.658 148.882 180.855 142.909C184.731 137.296 189.022 131.982 193.694 127.012C194.49 126.177 195.053 124.673 196.715 125.539C198.908 126.658 201.329 126.594 203.668 126.879C203.346 127.435 202.707 127.859 202.802 128.655Z" fill="#AEE95A"/>
<path d="M196.74 125.539C193.681 126.322 192.568 129.268 190.78 131.297C185.893 136.879 181.684 143.01 177.625 149.243C171.589 158.497 169.187 168.901 167.714 179.628C167.607 180.368 168.119 180.481 168.656 180.576L162.436 185.69C163.008 179.075 164.221 172.532 166.058 166.152C166.285 165.361 167.246 164.508 166.273 163.579C165.811 163.149 166.172 162.814 166.406 162.473C167.411 161.841 167.67 160.677 168.201 159.729C170.584 153.762 173.258 147.953 178.017 143.427C178.807 142.681 177.531 142.492 177.682 141.935C178.055 141.752 178.435 141.575 178.814 141.411C179.547 140.987 180.653 141.006 180.71 139.793C180.66 139.306 180.426 138.819 180.672 138.326C182.215 138.206 182.986 136.973 183.921 136.025C187.518 132.372 191.07 128.68 194.667 125.001C195.495 124.755 196.279 123.073 197.195 124.919L196.74 125.539Z" fill="#A0D749"/>
<path d="M218.814 93.5602C217.095 96.2087 215.116 98.6171 212.367 100.261C211.938 92.0945 212.347 83.906 213.587 75.8232C215.862 76.5628 218.397 75.779 220.578 77.0242C220.891 77.3104 221.125 77.6724 221.258 78.0754C221.391 78.4783 221.418 78.9087 221.336 79.3251C220.616 83.0356 221.166 86.8472 220.357 90.545C219.882 91.5374 219.573 92.65 218.814 93.5602Z" fill="#BD6F20"/>
<path d="M197.157 124.919C196.285 123.895 195.489 125.21 194.629 125.001C195.507 123.326 197.391 122.656 198.421 121.158C198.896 122.094 199.875 122.372 200.773 122.808C199.856 124.167 198.832 125.128 197.157 124.919Z" fill="#A4E053"/>
<path d="M156.595 164.698C158.65 163.434 159.333 165.26 160.249 166.366C160.751 166.91 161.029 167.622 161.029 168.361C161.029 169.1 160.751 169.812 160.249 170.355C158.791 172.249 156.984 173.847 154.927 175.064C154.257 173.383 154.984 171.904 155.559 170.38C156.204 168.547 157.114 166.758 156.595 164.698Z" fill="#4DB428"/>
<path d="M156.595 164.698C158.131 164.97 157.897 165.836 157.587 167.031C156.873 169.774 155.217 172.195 154.907 175.065C151.804 170.577 152.562 165.931 156.595 164.698Z" fill="#3D9B18"/>
<path d="M166.803 162.877L166.272 163.579C164.452 160.886 164.629 160.241 167.461 159.274C168.188 160.646 167.486 161.765 166.803 162.877Z" fill="#399914"/>
<path d="M156.659 183.687C155.142 184.805 155.123 183.339 155.028 182.599C154.807 180.937 155.628 180.027 157.36 180.071C158.334 181.493 157.158 182.53 156.659 183.687Z" fill="#47A01A"/>
<path d="M180.672 138.326L181.449 139.521C180.817 140.589 179.635 141.095 178.82 141.98L177.676 141.936C178.605 140.665 177.897 138.055 180.672 138.326Z" fill="#409B17"/>
<path d="M166.803 162.877C167.022 161.676 167.233 160.475 167.435 159.274C168.289 158.446 167.897 159.635 168.175 159.729C168.99 161.335 168.263 162.271 166.803 162.877Z" fill="#58B62A"/>
<path d="M156.659 183.686C155.906 182.283 157.853 181.404 157.36 180.052C158.934 182.056 158.928 182.087 156.659 183.686Z" fill="#57BA2C"/>
<path d="M149.458 174.976C149.907 175.096 151.007 174.698 150.432 175.728C149.978 176.613 149.731 177.59 149.711 178.585C148.63 177.454 149.01 176.215 149.458 174.976Z" fill="#368F0F"/>
<path d="M200.419 205.987C197.644 206.733 197.834 204.028 196.987 202.795C195.893 201.202 197.056 199.894 198.523 199.002C200.286 198.933 199.97 200.444 200.248 201.404C200.579 202.909 200.637 204.462 200.419 205.987Z" fill="#3C9A17"/>
<path d="M200.419 205.987C199.509 204.723 199.901 203.25 199.616 201.891C199.408 200.918 199.907 199.559 198.523 198.996C198.573 198.219 198.687 197.82 199.572 198.484C200.836 199.42 202.455 200.001 202.17 202.017C201.978 203.481 201.37 204.859 200.419 205.987Z" fill="#4DB326"/>
<path d="M201.058 189.603C204.06 190.09 204.351 191.209 202.271 194.394C201.488 192.89 199.724 191.645 201.058 189.603Z" fill="#429F19"/>
<path d="M203.789 214.464C202.891 212.447 201.001 211.676 202.208 209.78C202.67 209.059 203.346 208.844 204.035 209.451C205.628 210.854 204.522 212.232 203.789 214.464Z" fill="#469E1A"/>
<path d="M199.111 171.778C198.432 173.86 197.752 175.939 197.069 178.017C192.884 181.918 189.293 186.411 186.412 191.354C184.876 191.955 184.484 190.785 184.395 189.787C184.117 186.689 183.58 183.529 185.129 180.564L189.686 176.279C192.442 174.174 194.313 171.354 196.089 168.447C196.601 167.612 196.949 166.493 198.289 166.607C200.002 168.105 198.788 170.046 199.111 171.778Z" fill="#AEE959"/>
<path d="M185.128 180.563C185.128 183.357 185.128 186.151 185.172 188.945C185.172 189.931 184.888 191.126 186.437 191.354C185.236 194.232 183.754 196.984 182.012 199.571C180.64 195.633 181.721 191.562 181.38 187.561C181.26 186.297 181.892 184.843 180.748 183.724L185.128 180.563Z" fill="#A0D749"/>
<path d="M196.519 183.49C197.113 184.167 198.877 182.017 198.757 184.413C200.558 186.252 198.365 187.15 197.575 187.706C196.608 188.383 195.855 186.537 194.718 186.385C196.096 185.905 193.89 183.193 196.519 183.49Z" fill="#46A224"/>
<path d="M197.979 166.79C196.462 169.122 195.014 171.506 193.403 173.775C192.518 175.039 191.443 176.221 189.686 176.303L184.502 176.366C183.807 175.924 183.731 175.102 183.377 174.47C183.681 173.149 184.686 172.049 184.642 170.602C184.237 166.967 185.381 163.528 186.102 160.058C187.237 154.498 188.874 149.052 190.994 143.788C191.373 142.687 191.983 141.681 192.783 140.836C194.812 137.814 196.196 134.338 199.041 131.885C202.745 136.619 206.159 141.55 209.389 146.619C209.442 147.088 209.401 147.563 209.269 148.015C209.137 148.468 208.915 148.89 208.617 149.255C206 153.295 203.946 157.643 201.519 161.784C200.33 163.427 199.989 165.69 197.979 166.79Z" fill="#227565"/>
<path d="M192.777 140.804C188.877 150.406 186.949 160.538 184.635 170.57L181.993 171.708C183.192 164.958 184.882 158.306 187.05 151.803C188.057 148.416 189.438 145.151 191.165 142.068C191.544 141.417 191.879 140.785 192.777 140.804Z" fill="#A0D74A"/>
<path d="M183.377 174.47C185.274 174.198 184.01 175.804 184.503 176.366C185.975 178.825 182.543 177.631 182.543 179.021C181.489 178.508 180.583 177.736 179.907 176.777C181.329 176.701 179.977 173.68 182.271 174.546C182.676 174.672 183.03 174.818 183.377 174.47Z" fill="#46A224"/>
<path d="M165.002 196.967C165.202 196.98 165.403 196.98 165.603 196.967C166.804 198.686 166.943 200.406 165.603 202.106C164.13 202.27 164.016 205.121 161.892 203.971C163.036 201.682 162.417 198.604 165.002 196.967Z" fill="#50B62B"/>
<path d="M169.983 196.43C169.528 194.439 167.796 193.086 169.731 191.525C170.179 191.165 170.812 190.842 171.355 191.569C172.758 193.434 171.368 194.635 169.983 196.43Z" fill="#48A31B"/>
<path d="M219.812 90.6841C219.559 86.095 220.368 81.5565 220.577 76.9927L221.733 74.4642C221.942 75.2733 222.151 76.0887 222.366 76.8978C222.473 79.1798 222.897 81.1899 224.483 83.1304C227.012 86.2467 226.525 89.1607 223.579 91.9104C222.081 92.2138 220.747 92.0621 219.812 90.6841Z" fill="#0F5622"/>
<path d="M219.812 90.6841L223.668 91.6702C225.931 92.6815 227.954 94.8307 230.779 93.1493C232.258 93.3073 233.51 93.7814 233.75 95.4944C235.381 96.4868 234.584 97.4729 233.75 98.459C231.986 98.7435 231.082 100.444 229.502 101.032C227.239 100.21 224.938 99.7169 222.549 100.267C221.708 97.8079 220.172 95.7283 218.845 93.5349C218.428 92.3402 218.428 91.2593 219.812 90.6841Z" fill="#ADE95A"/>
<path d="M233.75 95.4946C232.91 94.6034 232.05 93.7437 230.786 93.4719L230.445 93.1748C230.311 92.8144 230.322 92.4167 230.473 92.0638C230.625 91.7109 230.907 91.4297 231.26 91.2785C232.853 91.3607 234.307 90.5768 235.881 90.5326C236.317 90.7222 236.664 90.9498 236.374 91.506L233.75 95.4946Z" fill="#195821"/>
<path d="M236.374 91.5252L235.698 90.8551C235.559 89.2053 236.538 88.5037 237.967 88.1876L238.372 88.4658C237.995 89.6478 237.305 90.7054 236.374 91.5252Z" fill="#305C1C"/>
<path d="M239.812 85.9181C239.547 86.8916 239.332 87.8903 238.371 88.4466C238.294 88.3611 238.202 88.2904 238.099 88.238C237.644 86.9738 238.011 86.1078 239.313 85.7096C239.406 85.7052 239.5 85.7216 239.586 85.7577C239.672 85.7938 239.75 85.8486 239.812 85.9181Z" fill="#24561A"/>
<path d="M239.287 85.7032C238.889 86.5566 238.485 87.4036 238.074 88.2317L235.672 90.8296C234.325 91.5186 233.055 92.6691 231.405 91.5566C229.913 92.3151 228.877 91.2405 227.385 90.3808C228.864 91.3606 229.995 92.0812 230.678 93.2948L230.754 93.4466C227.372 95.4503 226.721 95.286 223.643 91.645C226.057 88.1179 225.571 85.0711 222.499 82.0623C221.089 80.6843 221.234 78.6489 222.328 76.8727C222.732 77.549 223.137 78.2191 223.535 78.8954C223.466 79.5275 223.535 80.0838 224.401 79.9447C227.713 82.4732 231.013 84.9573 235.482 82.4732C235.76 82.3151 236.165 82.8335 236.184 83.3139C235.963 83.6994 236.07 84.2115 235.71 84.5465C236.102 84.4643 236.051 83.9713 236.342 83.8259L239.287 85.7032Z" fill="#BE6E20"/>
<path d="M230.217 80.7222C228.283 80.5452 226.861 79.6666 226.222 77.745C226.646 76.4808 227.935 76.348 228.871 75.7475C229.124 75.7103 229.383 75.7423 229.62 75.8402C229.857 75.9381 230.064 76.0983 230.217 76.3038C230.565 77.1508 231.399 77.2267 232.113 77.4921C233.251 79.0471 234.673 80.6906 231.108 80.817C230.95 80.5958 230.982 80.147 230.558 80.2418C230.438 80.2861 230.324 80.5516 230.217 80.7222Z" fill="#B76C22"/>
<path d="M240.217 82.8587C239.427 84.0218 238.77 83.2064 238.087 82.7196C238.049 82.0243 239.541 80.9687 237.613 80.7222C238.542 79.5907 239.604 79.1293 240.95 80.0395C241.589 81.2089 240.824 82.0117 240.217 82.8587Z" fill="#B6712E"/>
<path d="M228.871 75.7475C228.608 76.2597 228.234 76.7064 227.776 77.0543C227.317 77.4023 226.786 77.6426 226.222 77.7576C225.83 75.7728 226.134 75.5452 228.871 75.7475Z" fill="#20602D"/>
<path d="M237.613 80.722C238.087 80.8232 238.877 80.7979 238.978 81.0444C239.263 81.7903 238.776 82.3592 238.093 82.7195C237.215 82.2201 236.665 81.6512 237.613 80.722Z" fill="#694525"/>
<path d="M230.216 80.7227C230.134 79.9136 229.913 78.7379 231.158 79.0413C232.189 79.3005 231.095 80.1981 231.108 80.8175L230.216 80.7227Z" fill="#3C3129"/>
<path d="M240.217 82.8589C240.463 81.9234 240.704 80.9626 240.95 80.0397C242.082 81.2407 241.904 81.9107 240.217 82.8589Z" fill="#51784A"/>
<path d="M236.399 83.826C236.272 85.0017 235.596 85.3367 234.401 85.0396L236.209 83.314C236.277 83.3797 236.329 83.4598 236.362 83.5484C236.395 83.637 236.407 83.7319 236.399 83.826Z" fill="#A55A1B"/>
<path d="M224.427 79.9697C224.117 80.3616 223.991 81.3477 223.289 80.7409C222.783 80.3047 223.005 79.4767 223.561 78.9204L224.427 79.9697Z" fill="#A75211"/>
<path d="M232.114 77.492C231.481 77.1317 229.585 78.6803 230.217 76.3036C230.617 76.2835 231.013 76.3867 231.352 76.5993C231.692 76.8118 231.957 77.1235 232.114 77.492Z" fill="#683A1F"/>
<path d="M165.003 196.967C163.669 199.167 163.916 202.081 161.842 203.952C161.514 202.669 161.286 201.363 161.16 200.045C161.128 197.498 162.436 196.385 165.003 196.967Z" fill="#3F9C18"/>
<path d="M222.518 100.267C225.097 98.2191 227.398 98.6995 229.471 101.026C229.71 101.933 229.866 102.859 229.939 103.794C229.939 105.804 229.117 107.511 227.24 108.421C226.539 108.801 225.738 108.956 224.946 108.865C224.155 108.773 223.41 108.439 222.815 107.909C221.197 106.55 220.83 104.749 221.273 102.783C221.586 101.898 222.004 101.053 222.518 100.267Z" fill="#50B52B"/>
<path d="M200.944 161.626C203.423 156.433 206.242 151.41 209.382 146.588C210.227 146.476 211.085 146.666 211.803 147.125C207.587 152.46 205.021 158.693 202.145 164.761C200.255 164.287 201 162.802 200.944 161.626Z" fill="#ABE858"/>
<path d="M200.944 161.626C201.366 162.675 201.766 163.729 202.145 164.786L199.111 171.803C197.575 170.406 199.193 168.288 197.98 166.815C198.97 165.079 199.958 163.349 200.944 161.626Z" fill="#9CD44B"/>
<path d="M217.372 176.164C218.042 176.897 219.085 177.529 218.004 178.692C217.05 178.06 216.348 177.333 217.372 176.164Z" fill="#38920C"/>
<path d="M178.82 141.98C178.887 141.321 179.19 140.709 179.674 140.257C180.157 139.805 180.788 139.543 181.45 139.521C182.183 142.068 180.046 141.537 178.82 141.98Z" fill="#4AB225"/>
<path d="M230.704 93.3197C228.959 92.1756 226.772 91.4676 226.159 88.4146C228.175 89.6788 229.37 91.4423 231.431 91.5751C231.184 92.163 230.944 92.7382 230.704 93.3197Z" fill="#AD5511"/>
<path d="M235.779 87.0626C235.293 88.7883 234.446 89.1802 233.251 88.959C231.879 88.6745 230.767 87.8148 230.969 86.4305C231.171 85.0462 232.524 85.7984 233.232 86.0386C234.13 86.3167 235.564 85.9754 235.779 87.0626Z" fill="#F2E2D5"/>
<path d="M228.763 103.939C228.479 106.057 227.436 107.353 225.306 107.302C223.175 107.252 222.398 105.931 222.461 103.977C222.524 101.917 223.612 100.45 225.622 100.45C227.632 100.45 228.637 102.011 228.763 103.939Z" fill="#99DE4F"/>
<path d="M226.463 101.664C227.038 103.137 228.03 104.483 226.292 105.659C226.147 105.78 225.973 105.862 225.787 105.895C225.601 105.928 225.409 105.912 225.232 105.848C225.054 105.784 224.896 105.674 224.774 105.53C224.651 105.386 224.569 105.213 224.535 105.027C223.934 103.295 224.933 102.41 226.463 101.664Z" fill="#469F1A"/>
<path d="M35.207 207.772C33.8797 209.628 32.1811 211.391 31.2994 213.461C29.5637 217.592 27.2433 217.749 23.874 215.494C9.84001 206.231 -1.5301 195.316 0.168454 176.641C1.09663 166.069 5.886 156.834 11.6685 148.137C26.4172 125.944 44.9435 107.204 65.0477 89.903C65.2807 89.8979 65.5123 89.9401 65.7285 90.0269C65.9448 90.1137 66.1412 90.2435 66.306 90.4082C66.4708 90.573 66.6005 90.7694 66.6873 90.9857C66.7742 91.2019 66.8163 91.4335 66.8113 91.6665C67.5074 97.449 68.6676 103.129 67.2753 109.088C64.7136 120.041 62.3282 131.086 64.4258 142.503C62.9036 147.143 63.674 152.035 63.4977 156.806C63.3677 164.667 67.2104 171.1 71.3129 177.281C75.4154 183.463 79.6664 189.57 84.7992 194.916C85.9966 196.16 87.7787 197.487 86.1729 199.65C80.6967 198.935 75.8238 202.147 70.4497 202.073C67.5445 201.144 66.31 198.481 64.4723 196.457C56.4528 187.602 50.4754 177.615 48.6933 165.614C47.6058 158.528 47.7314 151.31 49.0646 144.266C45.1013 164.417 52.0162 181.653 62.0033 197.617C64.5744 201.729 63.9618 203.075 59.2188 203.344C57.2139 203.465 55.1998 203.233 53.2414 203.836C52.5275 204.006 51.792 204.065 51.0602 204.013C50.2749 204.011 49.5217 203.701 48.9625 203.149C42.0662 194.462 33.3692 187.37 27.5495 177.68C25.7666 174.783 24.592 171.554 24.0973 168.189C23.6026 164.823 23.7982 161.392 24.6722 158.105C27.3454 146.884 33.4806 137.463 40.4511 128.496C41.1019 127.465 41.8544 126.501 42.6973 125.619C41.8426 126.422 41.108 127.344 40.5161 128.357C34.7615 135.634 29.5915 143.301 26.0459 151.886C21.5814 162.7 20.4769 173.643 26.3429 184.372C28.852 189.18 32.5689 193.252 37.1283 196.188C39.1703 197.478 41.6114 198.351 42.8922 200.653C41.3051 204.068 38.2421 205.906 35.207 207.772Z" fill="#4CB327"/>
<path d="M64.0457 142.558C63.4375 141.978 62.9579 141.277 62.6381 140.5C62.3183 139.722 62.1654 138.887 62.1894 138.047C62.0831 128.349 63.3105 118.683 65.8371 109.32C67.6935 102.637 66.0599 96.3254 65.0389 89.9025C66.4776 86.032 65.5494 82.0223 65.6608 78.0776C65.8742 70.8935 65.1781 63.6909 66.0228 56.5161C71.7232 58.0612 77.6869 58.3776 83.5188 57.4443C85.9599 65.9742 88.4752 74.4855 90.7864 83.0526C91.1391 84.3613 91.9837 85.1038 92.6427 86.0877C91.9559 89.2899 92.8655 92.0187 94.7404 94.6733C96.9309 97.7548 99.1307 100.957 98.4531 105.115C95.8264 107.445 92.6335 109.329 92.2715 113.367C91.966 115.518 92.3494 117.711 93.3667 119.632C94.0628 120.848 95.6964 121.943 94.4156 123.707C91.8167 124.83 89.4127 123.066 86.8788 123.224C82.4514 121.878 77.4671 121.999 74.9239 119.298C77.4943 121.227 80.5945 122.322 83.8065 122.435C90.081 123.28 95.6129 125.387 99.075 131.169C99.6969 132.209 100.634 133.025 100.579 134.408C97.6642 138.019 97.4321 142.938 94.6012 146.595C90.6286 149.38 86.0713 148.832 81.6068 148.702C76.9918 148.427 72.4404 147.489 68.0926 145.918C66.3662 145.333 64.5006 144.757 64.0457 142.558Z" fill="#AEE95A"/>
<path d="M94.545 145.324C95.8445 141.37 96.2529 136.971 100.114 134.335C103.205 131.801 104.272 132.042 105.015 135.43C103.613 153.195 111.011 165.132 127.588 171.545C137.529 175.416 147.915 177.894 158.125 180.892C166.766 183.426 175.101 186.674 182.257 192.308C186.304 195.492 189.757 199.177 191.01 204.83C182.591 204.83 179.677 211.243 176.317 217.128C162.627 215.095 149.196 212.041 136.276 207.011C135.145 206.191 134.236 205.104 133.63 203.846C123.3 186.396 111.206 170.19 98.7125 154.253C97.3574 151.274 95.3247 148.592 94.545 145.324Z" fill="#4CB327"/>
<path d="M157.791 243.998C161.364 253.391 166.525 261.995 171.156 270.859C173.013 274.396 174.795 277.96 176.781 281.849C173.802 282.471 171.899 281.051 170.024 279.9C162.859 275.519 157.03 269.578 150.959 263.833C148.945 261.912 148.5 259.87 150.755 257.902C153.011 255.934 152.342 253.939 151.024 251.776C147.238 245.576 142.888 239.738 138.03 234.336C130.605 229.342 124.516 223.198 121.323 214.714C120.673 212.988 120.135 211.159 121.369 209.405C125.509 207.892 128.683 210.936 132.285 211.855C135.422 212.654 136.925 212.208 137.065 208.82C141.26 208.467 141.149 212.904 143.506 214.603C145.363 217.387 147.442 219.958 148.76 223.04C150.7 226.697 152.277 230.53 154.004 234.289C154.951 237.631 157.707 240.295 157.791 243.998Z" fill="#0D5523"/>
<path d="M109.526 131.578L107.67 131.708C101.637 132.358 98.6757 130.863 96.6245 126.139C96.2625 125.303 95.8541 124.422 96.8565 123.688C104.486 123.224 107.363 117.683 109.749 111.622C113.591 110.072 118.047 111.817 121.741 109.413C122.409 111.427 123.04 113.386 124.674 114.982C126.929 117.2 127.783 120.236 128.479 123.252C129.612 128.181 130.707 133.119 131.821 138.047C132.322 139.616 130.948 140.182 130.178 141.036C125.147 146.605 124.711 150.234 128.173 156.954C128.906 158.383 130.596 159.46 130.029 161.446C127.403 163.414 125.63 161.511 124.21 159.831C121.073 156.119 118.195 152.174 115.206 148.331C113.796 142.447 113.127 136.581 115.012 130.65C115.819 128.106 117.388 126.009 118.576 123.698C119.437 122.146 119.939 120.42 120.042 118.648C119.077 125.034 115.336 129.137 109.526 131.578Z" fill="#AEE959"/>
<path d="M83.5363 57.4168C77.5032 61.0088 71.7114 59.9878 66.0402 56.4886C65.901 53.9454 67.6274 52.2097 68.8804 50.3441C74.8288 41.3189 81.3943 32.7158 88.5299 24.5966C90.9617 21.8121 91.8898 19.2596 91.2308 15.4819C90.4326 11.0545 88.9383 6.38583 91.7042 1.94916C92.1683 1.19734 92.2611 0.232043 93.3192 0C93.412 1.42939 95.0085 1.04883 95.751 2.16264C96.8672 3.81722 97.5934 5.70356 97.8747 7.67951C98.1561 9.65546 97.9853 11.6695 97.3753 13.5699C99.7793 13.9133 100.058 11.5093 101.626 12.1034C101.134 18.9626 99.3802 25.2556 95.0456 30.8896C92.2611 34.5559 91.5279 39.3916 90.0985 43.7912C88.5206 48.627 86.757 53.3699 83.5363 57.4168Z" fill="#0D5523"/>
<path d="M70.5423 201.311C75.7586 200.661 80.5387 196.819 86.1634 199.148C86.5143 198.969 86.9014 198.872 87.2954 198.864C87.6894 198.856 88.08 198.938 88.4376 199.104C88.7953 199.269 89.1107 199.514 89.3599 199.819C89.6091 200.124 89.7856 200.482 89.8761 200.866C92.5307 208.588 97.8677 213.711 105.005 217.229C104.936 217.597 104.767 217.939 104.516 218.217C104.266 218.496 103.944 218.7 103.585 218.807C99.7803 219.534 95.8556 219.324 92.1502 218.195C90.7115 217.823 89.3007 217.266 87.862 216.923C82.7014 215.466 77.4201 214.603 72.1759 213.582C68.5838 212.923 65.1218 211.549 61.7618 211.679C64.5927 218.649 66.8946 225.722 66.5326 233.417C65.0197 234.818 65.0197 234.818 62.0031 231.913C60.9171 231.078 59.6734 230.419 59.0144 229.128C55.2456 221.884 51.9137 214.42 49.0365 206.778C48.9151 206.033 49.0477 205.27 49.4131 204.61C49.7784 203.95 50.3552 203.432 51.0507 203.14L52.907 202.982C58.8752 203.288 64.6113 201.098 70.5423 201.311Z" fill="#0D5523"/>
<path d="M129.946 161.419C129.204 160.426 128.406 159.479 127.747 158.439C122.484 150.169 123.468 145.213 131.766 138.019C138.233 135.739 143.597 131.097 146.783 125.025C149.02 120.96 153.745 121.433 156.641 118.751C156.78 118.63 157.476 118.89 157.717 119.15C160.01 121.591 160.01 121.619 162.646 119.67C165.282 117.72 167.445 119.67 169.746 120.505C170.767 120.941 172.633 120.069 172.531 122.287C168.958 127.067 163.528 127.912 158.228 128.784C156.724 128.96 155.292 129.527 154.074 130.427C152.856 131.327 151.895 132.53 151.285 133.917C146.83 142.558 141.855 150.94 135.237 158.179C133.826 159.767 132.62 161.836 129.946 161.419Z" fill="#0D5523"/>
<path d="M103.873 218.056L105.015 216.988C107.465 209.943 106.704 203.27 103.158 196.689C101.45 193.505 99.13 190.535 98.5731 186.795C98.6079 186.449 98.7361 186.12 98.9437 185.842C99.1514 185.564 99.4307 185.348 99.7519 185.217C100.303 185.241 100.84 185.391 101.323 185.657C101.806 185.923 102.221 186.296 102.536 186.748C108.208 193.654 114.974 199.566 120.441 206.639C120.818 207.028 121.106 207.494 121.284 208.005C121.462 208.517 121.526 209.061 121.471 209.6C121.815 215.457 124.627 220.153 128.497 224.311C131.653 227.69 134.883 231.004 138.067 234.336L134.549 237.399C124.887 234.763 116.051 230.242 107.4 225.332C104.439 223.643 101.237 222.195 98.9258 219.448C100.504 217.656 102.481 219.077 103.873 218.056Z" fill="#4BB327"/>
<path d="M157.791 243.997C155.601 241.213 154.487 237.797 153.002 234.604C151.721 230.827 154.487 228.348 155.907 225.425C157.021 223.104 158.691 220.672 155.146 218.872C151.006 217.804 146.709 217.257 142.857 215.233C141.044 213.043 139.231 210.855 137.418 208.671C136.118 208.086 135.45 207.279 136.434 205.887C148.24 209.961 160.139 213.674 172.633 215.168C174.248 215.354 175.686 215.493 176.41 217.173C172.716 227.866 167.426 237.444 157.791 243.997Z" fill="#46A224"/>
<path d="M50.0579 206.833C54.0397 215.187 57.0284 224.032 62.0313 231.894C53.2517 234.517 45.5902 239.978 40.2471 247.422C39.1704 248.935 38.5578 251.766 36.1817 251.135C33.9819 250.559 33.5828 247.979 33.2858 245.816C31.9678 236.154 37.3326 228.766 41.6393 221.034C44.0433 216.765 47.1341 212.848 48.3222 207.947C48.3487 207.753 48.417 207.566 48.5225 207.401C48.6279 207.236 48.768 207.095 48.933 206.99C49.098 206.884 49.2841 206.815 49.4783 206.788C49.6725 206.761 49.8702 206.776 50.0579 206.833Z" fill="#4CB327"/>
<path d="M50.0579 206.834C48.053 214.547 43.2451 220.821 39.2447 227.476C36.3488 232.303 33.4343 236.953 34.2789 242.93C34.4183 243.46 34.3985 244.019 34.2218 244.537C34.0452 245.056 33.7196 245.51 33.2858 245.845C31.2067 241.046 32.7474 236.563 34.6038 232.173C36.9242 226.724 39.5788 221.415 42.0941 216.041C42.0941 214.129 43.1151 212.505 43.737 210.778C44.9529 207.372 45.0272 204.17 42.6418 201.209C34.7709 196.494 27.5775 191.157 23.8648 182.256C20.839 175.034 20.6069 167.702 22.1663 160.147C24.3846 149.463 30.3528 140.72 36.4787 132.051C37.6027 130.365 39.0942 128.956 40.8411 127.93C39.9129 131.986 36.785 134.715 34.7801 138.14C29.9258 146.4 25.6098 154.772 24.9972 164.657C24.5888 171.034 27.6703 175.851 30.9654 180.706C34.8652 186.437 39.4851 191.643 44.7116 196.197C47.1248 198.313 47.691 202.044 51.1067 203.158C50.308 204.208 49.9336 205.52 50.0579 206.834Z" fill="#46A224"/>
<path d="M72.3989 212.384C77.7359 213.433 83.1936 213.953 88.3078 216.014C93.2178 222.854 100.671 226.836 106.751 232.359C109.22 234.605 112.32 236.22 113.498 239.645C111.456 242.095 108.523 242.522 105.646 243.07C101.525 243.302 98.3692 246.179 94.508 247.172C90.6468 248.165 86.535 249.298 84.2981 244.221C83.472 242.541 84.2981 241.278 85.3469 240.081C86.1754 239.18 87.0589 238.33 87.9922 237.538C93.5613 232.721 93.5613 231.969 87.9458 227.857C88.0386 227.272 88.0665 227.05 87.3147 226.558C81.4857 222.743 75.5826 218.956 72.3989 212.384Z" fill="#46A224"/>
<path d="M103.873 218.056C102.87 219.374 101.265 218.576 99.6404 219.253C109.479 226.252 120.348 230.595 130.938 235.459C132.182 236.025 133.602 236.229 134.512 237.399C130.156 243.804 123.934 248.714 116.691 251.461C113.99 252.463 111.224 253.085 109.665 249.558C110.055 247.321 112.106 246.541 113.535 245.242C115.197 243.729 116.57 242.179 115.67 239.673C114.426 236.675 111.642 235.181 109.275 233.38C104.847 230.001 100.643 226.363 96.2804 222.938C94.3684 221.444 91.8252 220.033 91.8623 216.942C95.8047 217.807 99.8388 218.181 103.873 218.056Z" fill="#46A224"/>
<path d="M121.731 109.385C121.629 111.427 120.683 112.225 118.557 112.114C115.55 111.947 112.524 112.114 109.498 112.114C106.806 108.141 103.808 104.624 98.4343 104.577C96.7844 100.187 94.5857 96.024 91.8907 92.1861C90.4985 90.3298 90.2014 87.8237 92.6518 86.0602C93.4597 87.1512 94.5248 88.0254 95.7523 88.6052C96.9798 89.1849 98.3316 89.4522 99.6874 89.383C101.228 91.5921 101.302 94.9521 104.523 95.8802C106.649 97.3653 109.387 97.5602 111.447 99.166C116.571 99.8435 120.228 103.491 121.731 109.385Z" fill="#4CB427"/>
<path d="M72.3994 212.384C77.6158 217.424 82.4516 222.91 88.9673 226.418C89.0601 226.474 89.1158 226.604 89.1994 226.697L88.0948 227.281C83.6489 229.333 78.8131 229.138 74.1073 229.797C69.3365 228.729 67.1089 229.797 66.6077 233.426C65.2562 226.517 63.4706 219.7 61.2614 213.015C60.556 210.927 61.1778 210.073 63.3312 210.5C66.3478 211.094 69.3458 211.762 72.3994 212.384Z" fill="#4BB427"/>
<path d="M101.062 87.9627C98.8341 85.9486 95.8269 84.4171 96.4859 80.6116C97.9338 79.6834 98.6949 80.5281 99.3632 81.6326C99.1033 80.1011 97.5069 80.4074 96.5787 79.7763C96.5787 79.1451 96.5787 78.5139 96.5787 77.9199C99.3632 76.9917 100.895 79.0801 102.76 80.3796C103.15 80.5559 103.512 80.7601 103.883 80.9736C107.169 83.4704 110.603 83.9159 113.991 81.3449C117.379 78.7738 120.674 82.0224 124.025 81.5584C124.168 83.2436 124.215 84.9356 124.164 86.6262C123.542 94.2465 120.219 96.8361 112.543 95.6666C112.129 95.8964 111.697 96.095 111.253 96.2606C106.027 95.7223 102.268 93.4297 101.062 87.9627Z" fill="#F2BA81"/>
<path d="M74.0607 229.797C76.641 226.752 80.4187 228.265 83.5745 227.356C84.9575 226.957 86.5539 227.281 88.0483 227.281C89.9046 228.618 93.3389 228.052 93.6173 231.3C93.8958 234.549 91.6589 236.173 89.3477 237.909C87.0366 239.645 84.7069 241.13 84.2892 244.221L74.0607 229.797Z" fill="#2D541C"/>
<path d="M124.033 81.4746C123.207 81.8459 122.01 82.7741 121.639 82.5049C117.573 79.7204 114.464 83.0618 110.965 83.9064C107.939 84.6397 105.247 84.0178 103.205 81.4653C101.785 80.3887 101.831 78.8293 101.831 77.2886C102.379 73.2417 105.544 72.4342 108.746 71.7195C109.192 71.6315 109.648 71.6034 110.101 71.636C112.505 71.8495 115.011 74.4948 117.276 71.3111C122.52 69.8632 124.312 71.0048 124.358 75.7849C124.247 77.697 124.138 79.5935 124.033 81.4746Z" fill="#4CB328"/>
<path d="M95.0276 64.8519C96.8932 62.6573 99.2924 60.9801 101.994 59.9819C104.696 58.9838 107.61 58.6982 110.454 59.1529C112.893 59.3435 115.341 59.3992 117.786 59.3199C118.984 63.1255 117.786 65.2417 113.74 66.801C110.621 67.9891 107.02 67.59 104.179 69.6783C103.776 69.8723 103.336 69.9768 102.889 69.9846C100.188 68.3882 96.4756 68.3603 95.0276 64.8519Z" fill="#F5E768"/>
<path d="M102.963 69.4732H103.975C104.24 69.1993 104.558 68.9811 104.908 68.8313C105.259 68.6815 105.636 68.6031 106.017 68.6007C113.118 68.6007 119.708 67.0599 125.175 62.1685C126.957 66.8093 128.173 71.5152 124.358 75.859C123.55 71.5523 120.961 70.8747 117.294 72.3876C114.965 73.5571 112.654 72.8981 110.296 72.3876L109.934 72.4619L109.572 72.3784C107.103 72.9353 104.699 73.2044 102.88 70.8561C102.756 70.643 102.698 70.3981 102.713 70.1521C102.728 69.9061 102.815 69.6699 102.963 69.4732Z" fill="#F3E568"/>
<path d="M42.6418 201.21C45.8255 201.6 46.1967 204.273 45.8904 206.38C45.3985 209.805 44.8323 213.415 42.0942 216.042L35.2072 207.772C37.0154 204.926 39.5932 202.651 42.6418 201.21Z" fill="#2C541C"/>
<path d="M109.526 131.578C109.526 131.193 109.633 130.816 109.834 130.488C110.036 130.16 110.324 129.895 110.668 129.721C115.55 127.447 118.316 123.373 120.274 117.293C120.746 120.096 120.167 122.974 118.65 125.377C116.857 128.427 115.688 131.803 115.21 135.308C114.732 138.813 114.955 142.379 115.866 145.797C116.027 146.236 116.048 146.714 115.924 147.165C115.801 147.616 115.541 148.017 115.179 148.313C111.382 143.403 112.19 136.905 109.526 131.578Z" fill="#9ED646"/>
<path d="M125.174 62.132C122.464 67.7011 117.118 68.6292 111.827 69.3903C109.256 69.7523 106.592 69.446 103.975 69.3903C103.585 68.5271 103.047 67.7475 104.689 67.469C107.409 67.0142 110.101 66.3366 112.802 65.789C116.375 65.0651 118.213 63.0045 117.777 59.2918C120.394 59.8673 124.181 57.3148 125.174 62.132Z" fill="#FAF1AB"/>
<path d="M96.5318 124.161C98.5181 129.22 102.435 131.448 107.67 131.707C105.981 132.376 105.813 134.102 105.043 135.42C104.115 132.125 101.971 133.814 100.142 134.325C96.1048 128.366 91.1205 123.846 83.5095 123.28C83.7601 120.969 85.1524 122.045 86.294 122.351C89.1714 121.915 91.8631 123.122 94.6476 123.28C95.715 122.704 96.4575 122.732 96.5318 124.161Z" fill="#9DD646"/>
<path d="M115.828 239.384C118.084 240.73 118.307 242.317 116.292 244.025C114.12 245.881 111.884 247.738 109.665 249.529C108.31 247.366 106.964 245.204 105.6 243.032C107.577 240.609 110.825 240.795 113.248 239.319C113.405 239.125 113.604 238.969 113.83 238.864C114.057 238.759 114.305 238.708 114.554 238.714C114.804 238.72 115.049 238.784 115.27 238.9C115.491 239.016 115.682 239.182 115.828 239.384Z" fill="#2E561D"/>
<path d="M102.963 69.4736V70.4018C102.35 71.0979 101.162 70.8102 100.716 71.7569C100.54 75.1076 103.501 78.0314 101.96 81.5306C100.8 79.368 98.5816 78.7461 96.5582 77.8179C95.1567 73.5947 93.8294 69.3623 94.9896 64.8235C97.2451 67.1254 100.911 66.9026 102.963 69.4736Z" fill="#E4BB5A"/>
<path d="M101.061 87.9629C103.697 91.5735 106.435 95.0263 111.382 95.444C112.161 98.5626 109.952 98.2285 108.226 97.9593C106.5 97.6901 105.163 96.8548 103.585 96.4557C100.337 95.1748 98.9443 92.8636 99.6868 89.383C100.142 88.9096 100.596 88.4363 101.061 87.9629Z" fill="#E29064"/>
<path d="M168.084 112.049C166.747 111.613 165.401 110.935 165.689 109.367C165.875 108.374 165.55 106.499 167.991 106.889C169.717 107.158 170.088 107.613 170.395 109.265C170.785 111.464 169.16 111.325 168.084 112.049Z" fill="#CCE8C3"/>
<path d="M156.455 70.0211C158.497 70.3553 159.731 70.8286 159.638 72.9634C159.647 73.3106 159.586 73.656 159.46 73.9793C159.333 74.3027 159.143 74.5975 158.901 74.8465C158.659 75.0955 158.37 75.2936 158.05 75.4293C157.73 75.565 157.387 75.6354 157.04 75.6366C156.696 75.67 156.349 75.6317 156.021 75.5242C155.693 75.4167 155.39 75.2423 155.133 75.012C154.876 74.7817 154.669 74.5006 154.526 74.1863C154.383 73.872 154.306 73.5315 154.301 73.1862C154.274 71.8032 154.886 70.1696 156.455 70.0211Z" fill="#CBE6C3"/>
<path d="M184.104 61.1943C184.127 61.7289 183.938 62.2509 183.579 62.6471C183.219 63.0433 182.717 63.2817 182.183 63.3105C181.914 63.3321 181.643 63.2982 181.387 63.211C181.131 63.1237 180.896 62.9848 180.696 62.803C180.495 62.6212 180.335 62.4003 180.223 62.1539C180.112 61.9075 180.053 61.641 180.048 61.3706C179.988 61.1042 179.992 60.8271 180.06 60.5624C180.128 60.2978 180.258 60.0532 180.439 59.8489C180.621 59.6447 180.848 59.4867 181.103 59.3881C181.358 59.2896 181.633 59.2533 181.905 59.2823C183.176 59.2173 183.715 60.0898 184.104 61.1943Z" fill="#CEE6C1"/>
<path d="M145.724 104.763C145.409 107.13 144.128 106.406 142.94 105.608C142.671 105.465 142.44 105.26 142.266 105.011C142.091 104.762 141.978 104.475 141.935 104.173C141.893 103.872 141.922 103.565 142.021 103.277C142.12 102.989 142.285 102.729 142.504 102.517C143.2 101.793 144.62 100.902 145.585 102.081C146.012 102.6 148.435 103.761 145.762 104.772L145.724 104.763Z" fill="#CADDC2"/>
<path d="M181.821 100.168C181.942 96.7613 184.995 98.6919 185.32 98.9797C185.581 99.2138 185.789 99.5001 185.931 99.8199C186.074 100.14 186.147 100.486 186.147 100.836C186.147 101.186 186.074 101.532 185.931 101.852C185.789 102.172 185.581 102.458 185.32 102.692C184.624 103.212 182.137 105.31 181.821 101.82C182.582 101.282 182.545 100.706 181.821 100.168Z" fill="#C8E4BF"/>
<path d="M103.567 96.4556C105.033 96.7062 106.49 97.0217 107.957 97.1981C109.423 97.3744 111.085 97.6622 111.382 95.4438L112.551 95.5831L111.438 99.138C108.31 99.7227 105.961 98.0334 103.567 96.4556Z" fill="#EFBE86"/>
<path d="M149.614 79.415C149.856 80.4081 149.076 80.7701 148.417 80.9465C147.303 81.2528 146.839 80.4174 146.672 79.4985C146.613 79.3211 146.596 79.1324 146.622 78.9472C146.648 78.7621 146.717 78.5856 146.824 78.4317C146.93 78.2777 147.07 78.1506 147.234 78.0603C147.398 77.97 147.58 77.919 147.767 77.9114C148.881 77.7721 149.364 78.4311 149.614 79.415Z" fill="#C2DDB1"/>
<path d="M148.425 97.5046C148.239 98.2935 147.952 99.0268 146.931 98.6741C146.56 98.5559 146.243 98.3124 146.033 97.9855C145.823 97.6585 145.733 97.2685 145.78 96.8827C145.773 96.6901 145.813 96.4987 145.898 96.3253C145.982 96.1519 146.107 96.0019 146.263 95.8883C146.419 95.7747 146.6 95.701 146.791 95.6737C146.982 95.6464 147.176 95.6664 147.358 95.7318C148.286 95.9452 148.416 96.7063 148.425 97.5046Z" fill="#C6E3BB"/>
<path d="M171.36 101.161C173.133 101.004 173.588 101.793 173.718 102.739C173.876 103.862 172.976 103.853 172.242 103.807C171.509 103.76 170.553 104.076 170.469 102.999C170.408 102.638 170.46 102.267 170.62 101.937C170.78 101.608 171.039 101.336 171.36 101.161Z" fill="#BDDDAD"/>
<path d="M148.092 65.7331C148.389 64.8699 148.621 63.9418 149.818 63.9975C150.009 63.9782 150.201 64.0028 150.38 64.0694C150.56 64.1361 150.722 64.243 150.854 64.3819C150.985 64.5208 151.083 64.688 151.14 64.8708C151.197 65.0535 151.212 65.2469 151.183 65.4361C151.183 66.42 150.709 67.2925 149.558 67.0976C148.89 66.9862 148.045 66.7634 148.092 65.7331Z" fill="#C1DFB6"/>
<path d="M96.6052 79.73C99.8259 79.3959 100.253 81.5121 100.578 84.111C97.9789 84.0275 99.3804 79.8692 96.4845 80.6118C96.4305 80.3125 96.4728 80.0038 96.6052 79.73Z" fill="#E59869"/>
<path d="M142.421 89.2438C142.096 90.2648 141.604 90.7846 140.741 90.766C140.119 90.766 139.478 90.5897 139.469 89.8378C139.444 89.6128 139.473 89.385 139.555 89.1735C139.636 88.9621 139.766 88.7731 139.935 88.6223C140.104 88.4715 140.306 88.3633 140.526 88.3068C140.745 88.2502 140.975 88.2469 141.195 88.2971C141.66 88.3342 142.059 88.9468 142.421 89.2438Z" fill="#C0DFB7"/>
<path d="M183.724 95.2865C182.127 95.0173 181.923 94.4882 181.96 93.8571C181.953 93.7067 181.982 93.5568 182.045 93.4202C182.109 93.2836 182.204 93.1646 182.324 93.0732C182.443 92.9818 182.584 92.921 182.732 92.8958C182.88 92.8707 183.033 92.8821 183.176 92.9289C183.319 92.947 183.457 92.9937 183.581 93.066C183.706 93.1383 183.814 93.2349 183.901 93.35C183.987 93.4651 184.05 93.5964 184.085 93.7361C184.12 93.8758 184.126 94.0211 184.104 94.1634C184.039 94.556 183.911 94.9354 183.724 95.2865Z" fill="#BFE0B4"/>
<path d="M172.522 122.305C172.141 120.894 169.904 122.305 169.737 120.523C171.194 118.852 172.225 120.634 173.338 121.089C173.673 121.209 173.125 122.054 172.522 122.305Z" fill="#6E9278"/>
<path d="M181.821 100.168C182.749 100.27 184.29 99.5832 184.123 101.254C184.03 102.266 182.666 101.876 181.812 101.839C181.812 101.282 181.821 100.706 181.821 100.168Z" fill="#F6FBF6"/>
<path d="M162.237 61.4815L161.16 62.3076C160.974 61.992 160.612 61.6393 160.668 61.3794C160.724 61.1195 161.169 60.8411 161.448 60.5719L162.237 61.4815Z" fill="#EBF8E3"/>
<path d="M99.1582 186.489C101.302 190.693 103.391 194.935 105.6 199.103C108.013 203.66 107.809 208.533 107.53 213.424C107.471 214.19 107.206 214.925 106.763 215.553C106.321 216.18 105.717 216.676 105.015 216.989C96.9956 216.06 92.9487 210.575 90.0621 203.809C89.2268 201.822 88.7812 199.65 86.2009 199.168C81.393 192.271 75.4248 186.238 71.0067 179.054C66.9042 172.408 62.3747 165.921 62.3654 157.623C65.9946 155.85 69.5681 157.233 72.9466 158.207C77.8222 159.53 82.3745 161.839 86.3216 164.992C88.3264 167.081 89.6537 169.633 91.343 171.972C91.7978 172.687 92.1691 173.448 92.5496 174.2C93.5922 176.386 94.8351 178.471 96.2623 180.428C97.5711 182.265 98.5509 184.316 99.1582 186.489Z" fill="#227464"/>
<path d="M86.3207 166.059C79.0438 161.214 71.2007 157.994 62.3552 157.604C62.3552 153.64 62.281 149.677 62.2624 145.714C62.2624 144.331 62.1696 142.864 64.0631 142.558C71.8783 146.772 80.3061 147.858 89.0216 147.403C91.0365 147.327 92.9718 146.598 94.535 145.324C97.3195 147.505 98.1827 150.81 99.4543 153.863C95.6581 157.984 91.6205 161.883 88.2234 166.375C87.9047 166.482 87.5644 166.51 87.2326 166.455C86.9008 166.4 86.5876 166.264 86.3207 166.059Z" fill="#0D5523"/>
<path d="M70.5427 201.311C64.7973 203.511 58.8106 203.01 52.861 202.982C55.0979 201.367 57.6597 202.508 60.0451 202.165C60.9175 202.035 62.0499 202.471 62.5047 201.404C62.9595 200.337 61.8643 199.826 61.3723 199.093C51.7379 184.669 45.9554 169.066 47.3384 151.422C47.6075 148.164 47.7096 144.72 49.6959 141.639C45.1015 165.679 53.6778 184.947 70.5427 201.311Z" fill="#46A323"/>
<path d="M40.8403 127.93C41.1002 125.377 43.1793 124.356 44.9985 123.131C44.3116 125.331 42.6595 126.704 40.8403 127.93Z" fill="#46A224"/>
<path d="M96.5317 124.161L94.6754 123.233C88.3917 115.743 89.8767 108.382 98.3881 104.586C104.625 103.37 107.503 105.329 109.452 112.123C109.22 120.43 105.154 124.189 96.5317 124.161Z" fill="#D6FA9B"/>
<path d="M69.5584 113.098C68.6952 109.385 67.6463 105.738 71.1827 102.582C71.9716 101.886 71.3312 100.262 70.9321 99.0642C70.1524 96.753 69.0757 94.479 69.744 91.9265C74.4591 99.5004 74.5334 100.345 71.4147 111.223C70.5887 111.65 71.3776 113.701 69.5584 113.098Z" fill="#9ED746"/>
<path d="M93.5237 131.967C85.6806 126.333 79.1091 130.408 76.3618 142.177C75.1551 139.922 75.6842 135.903 77.7169 133.36C80.8356 129.498 84.6225 126.612 89.8945 127.224C92.0015 127.456 94.0434 128.617 93.5237 131.967Z" fill="#A0DB4A"/>
<path d="M86.3214 122.361C85.3097 122.361 84.2052 122.203 83.5369 123.289C79.0445 122.12 73.6797 122.287 72.5937 115.864C76.0558 120.421 81.4114 120.857 86.3214 122.361Z" fill="#A4DE4E"/>
<path d="M69.5582 113.098L71.4146 111.242C71.3589 112.365 71.6745 113.711 70.375 114.249C69.7439 114.5 69.6139 113.636 69.5582 113.098Z" fill="#A4DE4E"/>
<path d="M88.1778 165.901C90.5464 160.762 94.516 156.529 99.4922 153.835C106.973 161.79 112.83 170.988 119.253 179.75C125.416 188.159 131.096 196.893 136.424 205.859L137.408 208.644C138.772 214.593 138.661 214.677 132.767 213.127C128.943 212.134 125.481 210.017 121.49 209.572L100.216 185.439C97.608 184.511 97.4317 181.402 95.3897 179.935C94.3316 177.968 93.06 176.139 91.8534 174.264C91.5393 174.086 91.2842 173.819 91.1193 173.498C90.9545 173.176 90.887 172.814 90.9252 172.454C90.0341 170.319 87.6487 168.695 88.1778 165.901Z" fill="#227565"/>
<path d="M154.876 217.833C159.517 217.982 159.136 220.794 157.985 223.885C156.612 227.597 153.205 230.382 152.964 234.605L147.581 223.328C149.186 220.376 151.238 218.065 154.876 217.833Z" fill="#2C541C"/>
<path d="M154.876 217.833L147.58 223.328L142.782 215.234C147.042 215.169 150.866 216.923 154.876 217.833Z" fill="#4BB128"/>
<path d="M115.828 239.385H113.248C104.996 231.959 95.761 225.731 87.8437 217.925C86.6742 216.775 86.5164 216.329 88.2521 216.069L91.8349 217.044C97.209 223.216 104.077 227.643 110.315 232.823C112.595 234.641 114.783 236.574 116.868 238.614C117.49 239.19 116.255 239.162 115.828 239.385Z" fill="#4BB228"/>
<path d="M95.6025 179.777C97.8116 181.132 98.7862 183.49 100.178 185.495L99.176 186.488C97.1897 185.114 96.7627 182.775 95.5283 180.863C95.4167 180.78 95.3355 180.662 95.2969 180.528C95.2584 180.394 95.2647 180.251 95.3148 180.121C95.389 179.889 95.4911 179.777 95.6025 179.777Z" fill="#3E9D33"/>
<path d="M115.577 90.9512C113.656 90.8491 111.753 89.791 112.096 88.0461C112.597 85.5307 115.271 86.4682 117.108 86.3011C118.296 86.1804 119.494 86.0227 119.336 88.1574C119.141 90.812 117.554 90.9977 115.577 90.9512Z" fill="#FAF3E8"/>
<path d="M101.989 81.5304C102.054 79.1543 101.061 77.0845 100.133 74.9775C99.4829 73.4367 98.499 71.9145 100.133 70.3923C101.989 72.1466 102.277 74.5041 102.676 76.8339C102.834 78.3746 103.001 79.9154 103.158 81.4747L101.989 81.5304Z" fill="#F7E76A"/>
<path d="M102.722 76.834C101.404 74.8755 100.114 72.8985 100.179 70.3924C101.107 69.3343 102.036 70.7266 102.964 70.3924C105.006 71.5434 107.113 72.5087 109.544 72.3695C107.094 73.5668 103.669 73.2883 102.722 76.834Z" fill="#EEBE78"/>
<path d="M109.376 82.1987C107.622 81.8738 106.49 81.0106 106.48 79.1914C106.48 77.2144 107.464 75.9614 109.488 76.0078C109.871 75.9845 110.254 76.0431 110.613 76.1797C110.972 76.3164 111.297 76.5278 111.568 76.8001C111.838 77.0724 112.048 77.3991 112.182 77.7587C112.316 78.1182 112.372 78.5022 112.347 78.8851C112.374 80.89 111.14 81.8367 109.376 82.1987Z" fill="#E7B87F"/>
<path d="M122.919 78.245C122.612 79.7672 122.13 81.2987 120.44 81.178C120.052 81.1523 119.674 81.0454 119.329 80.8644C118.985 80.6833 118.682 80.4321 118.441 80.1269C118.199 79.8217 118.025 79.4692 117.928 79.0924C117.831 78.7155 117.814 78.3225 117.879 77.9387C117.981 76.5743 118.25 75.0057 120.181 75.1542C122.111 75.3027 122.668 76.7043 122.919 78.245Z" fill="#D4B06E"/>
<path d="M110.296 72.3881H117.285C114.983 76.4256 112.626 72.7315 110.296 72.3881Z" fill="#EEBE78"/>
<path d="M158.301 73.511C157.707 73.743 157.373 74.0029 157.02 73.9844C156.875 73.9832 156.731 73.953 156.597 73.8957C156.464 73.8384 156.343 73.755 156.242 73.6505C156.14 73.5459 156.061 73.4223 156.008 73.2868C155.956 73.1513 155.93 73.0066 155.934 72.8613C155.934 72.1002 156.305 71.7753 156.964 72.1651C157.466 72.5548 157.915 73.0071 158.301 73.511Z" fill="#F3F9F1"/>
<path d="M145.724 104.763C144.889 104.596 143.803 105.097 143.357 103.937C143.356 103.805 143.388 103.675 143.451 103.559C143.515 103.444 143.607 103.347 143.719 103.278C144.908 103.046 145.251 104.011 145.724 104.772V104.763Z" fill="#E6FCDB"/>
<path d="M88.1783 165.902L90.9628 172.51C88.6981 170.877 87.6399 168.398 86.3776 166.013L88.1783 165.902Z" fill="#3E9D3C"/>
<path d="M95.6029 179.778C95.6029 180.14 95.6029 180.502 95.5286 180.864C93.9043 178.905 92.215 176.975 91.8159 174.32C93.6773 175.641 95.0172 177.572 95.6029 179.778Z" fill="#369248"/>
<path d="M103.8 108.541C107.169 111.687 107.596 114.871 104.895 118.092C102.556 120.876 99.6135 121.999 96.3556 119.827C93.0977 117.655 92.9678 114.49 94.6571 111.242C96.6805 107.343 99.3629 106.601 103.818 108.559C103.406 109.293 102.862 109.945 102.212 110.48C100.681 112.337 96.0122 112.727 99.1773 116.829C101.823 117.516 102.324 115.669 102.621 113.803C102.918 111.938 102.686 110.137 103.8 108.541Z" fill="#ACE858"/>
<path d="M110.212 79.7487C110.017 79.8601 109.637 80.2406 109.284 80.2035C108.578 80.1199 108.411 79.4981 108.467 78.8576C108.523 78.2172 109.089 77.7531 109.702 78.0037C110.314 78.2543 110.546 78.8576 110.212 79.7487Z" fill="#5D4222"/>
<path d="M121.415 79.1544C120.821 79.2565 120.227 79.5071 120.088 79.3493C119.956 79.1766 119.86 78.9792 119.806 78.7687C119.752 78.5583 119.74 78.3391 119.772 78.1242C119.874 77.5301 120.394 77.5487 120.747 77.8921C121.023 78.2825 121.247 78.7067 121.415 79.1544Z" fill="#31270F"/>
<path d="M102.1 109.515L103.836 108.587C103.938 110.535 103.938 112.487 103.836 114.434C103.52 117.98 101.896 119.725 98.1833 117.952C98.0348 114.444 100.671 112.262 102.1 109.515Z" fill="#419E1A"/>
<path d="M102.101 109.515C101.98 112.866 99.8733 115.288 98.1933 117.868C95.4273 113.952 95.7243 113.311 102.101 109.515Z" fill="#4DB528"/>
</svg>
